<?xml version="1.0" encoding="utf-8"?>
<!-- Generator: Adobe Illustrator 26.0.2, SVG Export Plug-In . SVG Version: 6.00 Build 0)  -->
<svg version="1.1"
	id="starlite-hero"
	xmlns="http://www.w3.org/2000/svg"
	xmlns:xlink="http://www.w3.org/1999/xlink" x="0px" y="0px" viewBox="0 0 1280 408.3" style="enable-background:new 0 0 1280 408.3;" xml:space="preserve">
	<style type="text/css">
	.st0{fill:#FFAE57;}
	.st1{fill:#FFD580;}
	.st2{fill:#D6DBE1;}
	.st3{fill:#FFFFFF;}
	.st4{fill:#D6DBE1;}
	</style>
	<g id="starlite-icon">
		<polygon class="st0" points="241.4,0 273.9,148.2 426.3,115 281.5,188.1 374.1,326.5 252.8,202.8 156.8,342.1 217.7,189.6 
		74.8,140.3 232.1,153.6 	"/>
		<polygon class="st1" points="244.2,38.4 269.2,152.5 386.6,127 275.1,183.3 346.3,289.8 253,194.6 179,301.9 225.9,184.4 
		115.9,146.5 237,156.7 	"/>
		<polygon class="st0" points="349.1,0.3 281.7,165.8 470.4,220.2 272.1,207.9 298.8,403.6 235.3,204.1 71.4,297 211.3,176.8 
		102.5,47.8 241.1,153.1 	"/>
		<polygon class="st1" points="325.4,50.8 277.5,168.6 411.8,207.2 270.6,198.5 289.7,337.7 244.5,195.8 127.9,261.9 227.4,176.4 
		150,84.6 248.6,159.5 	"/>
		<polygon class="st2" points="247.4,111.3 259.3,165.6 315.2,153.5 262.1,180.2 296,231 251.6,185.6 216.4,236.7 238.7,180.8 
		186.4,162.7 244,167.6 	"/>
		<polygon class="st3" points="286.1,117.2 263.3,173.2 327.2,191.6 260,187.5 269.1,253.8 247.6,186.2 192,217.7 239.4,177 
		202.6,133.2 249.5,168.9 	"/>
	</g>
	<g id="starlite-text">
		<path class="st4" d="M344.2,327.3c-13.4,0-23.4-2-29.5-3.9l-2.5-2.6v-11.8l2.6-1.6c7,1.8,19.7,3.7,29.4,3.7
		c8.6,0,15.8-3.8,15.8-12.3c0-19.6-49.1-11.7-49.1-46.5c0-20,15.3-29.5,35.5-29.5c11.3,0,19.3,2,25.1,4.2l2.3,2.3v11l-2.6,2.2
		c-6-1.9-16.2-3.7-24.5-3.7c-8.8,0-15.6,3.1-15.6,11.5c0,20,49.2,12.6,49.2,46.3C380.3,317.5,365.2,327.3,344.2,327.3z"/>
		<path class="st4" d="M460.3,239.6H434v83.4l-2.5,2.5h-14.2l-2.5-2.5v-83.4h-26.2l-2.6-2.5v-10.2l2.6-2.5h71.6l2.6,2.5v10.2
		L460.3,239.6z"/>
		<path class="st4" d="M518.9,296h-29.8l-8.6,29.5l-3.4,1.8l-13.3-2.9l-1.6-3.2l31-94.2l2.5-2.5h18l2.6,2.6l30.1,94l-1.6,3.1
		l-14.5,3.2l-3.2-1.8L518.9,296z M492.9,281h22.6l-11-38.9L492.9,281z"/>
		<path class="st4" d="M635.4,322.6l-13,4.7l-3.5-1.5L590,281.1h-5.7v41.9l-2.5,2.5h-14l-2.6-2.5v-96.1l2.6-2.5h33.5
		c22.2,0,33.2,8.9,33.2,26.9c0,16.5-12.1,25.4-25.1,27l27.2,40.8L635.4,322.6z M600.9,239h-16.7v26.9h9.9c9.9,0,21.2-2.2,21.2-13.6
		C615.4,242.7,612.5,239,600.9,239z"/>
		<path class="st4" d="M716.1,325.6h-57.9l-2.5-2.5v-96.1l2.5-2.5h14l2.6,2.5v83.4h41.2l2.6,2.5v10.2L716.1,325.6z"/>
		<path class="st4" d="M757.6,239.6H737l-2.5-2.5v-10.2l2.5-2.5h60.5l2.5,2.5v10.2l-2.5,2.5h-20.7v70.7h20.7l2.5,2.5v10.2l-2.5,2.5
		H737l-2.5-2.5v-10.2l2.5-2.5h20.6V239.6z"/>
		<path class="st4" d="M888.6,239.6h-26.3v83.4l-2.5,2.5h-14.2l-2.5-2.5v-83.4H817l-2.6-2.5v-10.2l2.6-2.5h71.6l2.6,2.5v10.2
		L888.6,239.6z"/>
		<path class="st4" d="M966.5,325.6h-56.3l-2.6-2.5v-96.1l2.6-2.5h55.1l2.5,2.5v10.2l-2.5,2.5h-38.6v24.5h35.8l2.5,2.6v10.1l-2.5,2.5
		h-35.8v31h39.7l2.6,2.5v10.2L966.5,325.6z"/>
	</g>
</svg>
