<svg xmlns="http://www.w3.org/2000/svg" xmlns:xlink="http://www.w3.org/1999/xlink" width="375" viewBox="0 0 375 375" height="375" version="1.0"><defs><g id="b"><path d="M 11.554688 -9.542969 L 7.332031 -12.332031 C 5.316406 -13.625 4.511719 -14.316406 4.511719 -15.550781 C 4.511719 -17.277344 5.578125 -17.996094 7.675781 -17.996094 L 14.777344 -17.996094 L 14.777344 -20.125 L 7.214844 -20.125 C 3.679688 -20.125 1.867188 -18.800781 1.867188 -15.8125 C 1.867188 -13.886719 3.019531 -12.535156 5.433594 -10.867188 L 9.660156 -7.875 C 11.527344 -6.667969 12.476562 -5.808594 12.476562 -4.542969 C 12.476562 -2.847656 11.46875 -2.128906 9.488281 -2.128906 L 2.355469 -2.128906 L 2.355469 0 L 10.003906 0 C 13.394531 0 15.121094 -1.523438 15.121094 -4.484375 C 15.121094 -6.4375 13.828125 -8.050781 11.554688 -9.542969 Z M 11.554688 -9.542969"/></g><g id="c"><path d="M 15.523438 -20.125 L 1.007812 -20.125 L 1.007812 -17.996094 L 6.957031 -17.996094 L 6.957031 0 L 9.601562 0 L 9.601562 -17.996094 L 15.523438 -17.996094 Z M 15.523438 -20.125"/></g><g id="d"><path d="M 16.445312 0 L 19.347656 0 L 11.328125 -20.125 L 8.539062 -20.125 L 0.515625 0 L 3.421875 0 L 5.40625 -5.230469 L 14.460938 -5.230469 Z M 6.125 -7.15625 L 9.945312 -17.25 L 13.742188 -7.15625 Z M 6.125 -7.15625"/></g><g id="e"><path d="M 16.011719 -3.449219 C 15.324219 -6.785156 14.429688 -8.480469 12.476562 -9.226562 C 14.949219 -9.804688 16.128906 -11.554688 16.128906 -14.429688 C 16.128906 -18.253906 14.257812 -20.125 10.03125 -20.125 L 2.902344 -20.125 L 2.902344 0 L 5.546875 0 L 5.546875 -8.308594 L 9.054688 -8.308594 C 11.757812 -8.25 12.648438 -7.042969 13.367188 -3.449219 L 14.085938 0 L 16.761719 0 Z M 5.546875 -10.261719 L 5.546875 -18.109375 L 9.140625 -18.109375 C 12.304688 -18.109375 13.484375 -16.847656 13.484375 -14.203125 C 13.484375 -11.5 12.304688 -10.261719 9.140625 -10.261719 Z M 5.546875 -10.261719"/></g><g id="f"><path d="M 15.523438 -2.128906 L 8.738281 -2.128906 C 6.410156 -2.128906 5.546875 -2.960938 5.546875 -5.230469 L 5.546875 -20.125 L 2.902344 -20.125 L 2.902344 -4.511719 C 2.902344 -1.207031 4.285156 0 7.992188 0 L 15.523438 0 Z M 15.523438 -2.128906"/></g><g id="g"><path d="M 5.546875 -20.125 L 2.902344 -20.125 L 2.902344 0 L 5.546875 0 Z M 5.546875 -20.125"/></g><g id="h"><path d="M 15.351562 -17.996094 L 15.351562 -20.125 L 2.617188 -20.125 L 2.617188 -5.347656 C 2.617188 -1.378906 4.054688 0 8.25 0 L 15.351562 0 L 15.351562 -2.128906 L 8.652344 -2.128906 C 6.296875 -2.128906 5.261719 -3.191406 5.261719 -5.578125 L 5.261719 -9.890625 L 14.171875 -9.890625 L 14.171875 -11.871094 L 5.261719 -11.871094 L 5.261719 -17.996094 Z M 15.351562 -17.996094"/></g><clipPath id="a"><path d="M 118.96875 79.183594 L 256.21875 79.183594 L 256.21875 229 L 118.96875 229 Z M 118.96875 79.183594"/></clipPath></defs><path fill="#FFF" d="M-37.5 -37.5H412.5V412.5H-37.5z"/><path fill="#FFF" d="M-37.5 -37.5H412.5V412.5H-37.5z"/><path fill="#042552" d="M-37.5 -37.5H412.5V412.5H-37.5z"/><g clip-path="url(#a)"><path fill="#FFD51E" d="M 197.785156 160.503906 C 196.746094 160.089844 195.914062 161.507812 196.699219 162.355469 L 236.957031 205.886719 L 194.972656 164.785156 C 194.140625 163.96875 192.875 164.96875 193.335938 166.078125 L 205.046875 194.378906 L 191.003906 167.25 C 190.460938 166.195312 188.976562 166.691406 189.070312 167.898438 L 193.960938 228.953125 L 186.320312 168 C 186.175781 166.816406 184.644531 166.671875 184.308594 167.808594 L 175.445312 197.847656 L 181.683594 167.761719 C 181.933594 166.5625 180.484375 165.863281 179.828125 166.867188 L 147.363281 216.632812 L 177.921875 164.539062 C 178.511719 163.53125 177.4375 162.351562 176.503906 162.980469 L 150.660156 180.332031 L 174.335938 161.117188 C 175.246094 160.378906 174.554688 158.816406 173.453125 159.132812 L 118.960938 174.699219 L 173.144531 155.996094 C 174.207031 155.632812 174.054688 153.949219 172.945312 153.8125 L 142.296875 150.023438 L 172.976562 150.882812 C 174.097656 150.914062 174.457031 149.253906 173.441406 148.738281 L 122.050781 122.761719 L 174.363281 145.804688 C 175.414062 146.269531 176.285156 144.835938 175.480469 143.96875 L 154.265625 121.109375 L 177.625 142.230469 C 178.472656 143 179.691406 141.980469 179.222656 140.890625 L 155.179688 85.132812 L 181.476562 139.074219 C 182.003906 140.15625 183.519531 139.671875 183.421875 138.457031 L 180.960938 107.113281 L 186.007812 138.597656 C 186.195312 139.78125 187.738281 139.859375 188.027344 138.699219 L 202.847656 79.414062 L 190.738281 139.210938 C 190.496094 140.398438 191.921875 141.097656 192.582031 140.121094 L 209.902344 114.585938 L 194.683594 141.757812 C 194.105469 142.792969 195.242188 143.953125 196.160156 143.261719 L 242.757812 108.28125 L 197.824219 145.742188 C 196.9375 146.484375 197.617188 148.015625 198.703125 147.726562 L 227.539062 140.035156 L 199.34375 150.546875 C 198.289062 150.941406 198.476562 152.617188 199.585938 152.726562 L 256.226562 158.230469 L 199.636719 155.859375 C 198.507812 155.808594 198.132812 157.472656 199.15625 157.996094 L 225.621094 171.546875 L 197.785156 160.503906"/></g><g fill="#BEEFFF"><use x="104.271" y="272.381" xmlns:xlink="http://www.w3.org/1999/xlink" xlink:href="#b" xlink:type="simple" xlink:actuate="onLoad" xlink:show="embed"/></g><g fill="#BEEFFF"><use x="126.378" y="272.381" xmlns:xlink="http://www.w3.org/1999/xlink" xlink:href="#c" xlink:type="simple" xlink:actuate="onLoad" xlink:show="embed"/></g><g fill="#BEEFFF"><use x="148.14" y="272.381" xmlns:xlink="http://www.w3.org/1999/xlink" xlink:href="#d" xlink:type="simple" xlink:actuate="onLoad" xlink:show="embed"/></g><g fill="#BEEFFF"><use x="173.208" y="272.381" xmlns:xlink="http://www.w3.org/1999/xlink" xlink:href="#e" xlink:type="simple" xlink:actuate="onLoad" xlink:show="embed"/></g><g fill="#BEEFFF"><use x="196.723" y="272.381" xmlns:xlink="http://www.w3.org/1999/xlink" xlink:href="#f" xlink:type="simple" xlink:actuate="onLoad" xlink:show="embed"/></g><g fill="#BEEFFF"><use x="218.428" y="272.381" xmlns:xlink="http://www.w3.org/1999/xlink" xlink:href="#g" xlink:type="simple" xlink:actuate="onLoad" xlink:show="embed"/></g><g fill="#BEEFFF"><use x="232.055" y="272.381" xmlns:xlink="http://www.w3.org/1999/xlink" xlink:href="#c" xlink:type="simple" xlink:actuate="onLoad" xlink:show="embed"/></g><g fill="#BEEFFF"><use x="253.817" y="272.381" xmlns:xlink="http://www.w3.org/1999/xlink" xlink:href="#h" xlink:type="simple" xlink:actuate="onLoad" xlink:show="embed"/></g></svg>
