<svg xmlns="http://www.w3.org/2000/svg" xmlns:xlink="http://www.w3.org/1999/xlink" width="960" viewBox="0 0 960 480"
     height="480" version="1.0">
    <defs>
        <g id="b">
            <path d="M 23.316406 -18.824219 L 15.253906 -24.453125 C 12.820312 -26.074219 11.738281 -26.996094 11.738281 -28.402344 C 11.738281 -30.242188 12.765625 -30.945312 14.875 -30.945312 L 28.507812 -30.945312 L 28.507812 -37.867188 L 13.363281 -37.867188 C 6.546875 -37.867188 3.082031 -35.164062 3.082031 -29.265625 C 3.082031 -25.804688 4.816406 -22.882812 8.925781 -19.746094 L 17.039062 -13.46875 C 19.421875 -11.792969 20.503906 -10.875 20.503906 -9.414062 C 20.503906 -7.628906 19.527344 -6.925781 17.527344 -6.925781 L 3.839844 -6.925781 L 3.839844 0 L 19.367188 0 C 25.859375 0 29.160156 -3.355469 29.160156 -9.195312 C 29.160156 -12.605469 27.425781 -16.011719 23.316406 -18.824219 Z M 23.316406 -18.824219"/>
        </g>
        <g id="f">
            <path d="M 30.078125 -6.925781 L 18.71875 -6.925781 C 14.769531 -6.925781 13.253906 -8.4375 13.253906 -12.386719 L 13.253906 -37.867188 L 4.597656 -37.867188 L 4.597656 -9.847656 C 4.597656 -2.652344 7.734375 0 16.121094 0 L 30.078125 0 Z M 30.078125 -6.925781"/>
        </g>
        <g id="c">
            <path d="M 29.210938 -37.867188 L 1.894531 -37.867188 L 1.894531 -33.863281 L 13.089844 -33.863281 L 13.089844 0 L 18.070312 0 L 18.070312 -33.863281 L 29.210938 -33.863281 Z M 29.210938 -37.867188"/>
        </g>
        <g id="d">
            <path d="M 30.945312 0 L 36.40625 0 L 21.3125 -37.867188 L 16.066406 -37.867188 L 0.972656 0 L 6.4375 0 L 10.171875 -9.847656 L 27.210938 -9.847656 Z M 11.523438 -13.46875 L 18.71875 -32.457031 L 25.859375 -13.46875 Z M 11.523438 -13.46875"/>
        </g>
        <g id="e">
            <path d="M 30.132812 -6.492188 C 28.832031 -12.765625 27.15625 -15.957031 23.476562 -17.367188 C 28.128906 -18.445312 30.347656 -21.746094 30.347656 -27.15625 C 30.347656 -34.351562 26.832031 -37.867188 18.878906 -37.867188 L 5.464844 -37.867188 L 5.464844 0 L 10.441406 0 L 10.441406 -15.632812 L 17.039062 -15.632812 C 22.125 -15.527344 23.804688 -13.253906 25.15625 -6.492188 L 26.507812 0 L 31.539062 0 Z M 10.441406 -19.3125 L 10.441406 -34.082031 L 17.203125 -34.082031 C 23.152344 -34.082031 25.371094 -31.699219 25.371094 -26.722656 C 25.371094 -21.640625 23.152344 -19.3125 17.203125 -19.3125 Z M 10.441406 -19.3125"/>
        </g>
        <g id="g">
            <path d="M 10.441406 -37.867188 L 5.464844 -37.867188 L 5.464844 0 L 10.441406 0 Z M 10.441406 -37.867188"/>
        </g>
        <g id="h">
            <path d="M 28.886719 -33.863281 L 28.886719 -37.867188 L 4.921875 -37.867188 L 4.921875 -10.0625 C 4.921875 -2.597656 7.628906 0 15.527344 0 L 28.886719 0 L 28.886719 -4.003906 L 16.285156 -4.003906 C 11.847656 -4.003906 9.898438 -6.003906 9.898438 -10.496094 L 9.898438 -18.609375 L 26.671875 -18.609375 L 26.671875 -22.34375 L 9.898438 -22.34375 L 9.898438 -33.863281 Z M 28.886719 -33.863281"/>
        </g>
        <clipPath id="a">
            <path d="M 148.539062 8 L 573.789062 8 L 573.789062 472 L 148.539062 472 Z M 148.539062 8"/>
        </clipPath>
    </defs>
    <path fill="#FFF" d="M-96 -48H1056V528H-96z"/>
    <path fill="#FFF" d="M-96 -48H1056V528H-96z"/>
    <path fill="#042552" d="M-96 -48H1056V528H-96z"/>
    <g clip-path="url(#a)">
        <path fill="#FFD51E"
              d="M 392.746094 259.570312 C 389.519531 258.285156 386.945312 262.675781 389.382812 265.304688 L 514.105469 400.25 L 384.027344 272.835938 C 381.449219 270.308594 377.53125 273.40625 378.953125 276.847656 L 415.242188 364.578125 L 371.734375 280.480469 C 370.046875 277.207031 365.445312 278.75 365.746094 282.484375 L 380.894531 471.757812 L 357.222656 282.808594 C 356.765625 279.132812 352.03125 278.683594 350.988281 282.214844 L 323.519531 375.335938 L 342.851562 282.070312 C 343.621094 278.351562 339.132812 276.1875 337.105469 279.289062 L 236.511719 433.570312 L 331.191406 272.078125 C 333.027344 268.957031 329.695312 265.300781 326.800781 267.246094 L 246.738281 321.035156 L 320.09375 261.46875 C 322.910156 259.175781 320.761719 254.339844 317.351562 255.3125 L 148.515625 303.566406 L 316.390625 245.597656 C 319.691406 244.460938 319.222656 239.242188 315.785156 238.824219 L 220.816406 227.085938 L 315.875 229.738281 C 319.347656 229.835938 320.464844 224.695312 317.308594 223.097656 L 158.085938 142.574219 L 320.171875 214.003906 C 323.421875 215.441406 326.128906 210.992188 323.640625 208.308594 L 257.898438 137.449219 L 330.273438 202.921875 C 332.90625 205.304688 336.6875 202.144531 335.230469 198.773438 L 260.734375 25.917969 L 342.210938 193.140625 C 343.84375 196.496094 348.539062 194.996094 348.242188 191.21875 L 340.617188 94.058594 L 356.25 191.660156 C 356.835938 195.332031 361.609375 195.570312 362.503906 191.972656 L 408.433594 8.183594 L 370.90625 193.566406 C 370.160156 197.242188 374.574219 199.40625 376.621094 196.382812 L 430.285156 117.226562 L 383.136719 201.449219 C 381.339844 204.664062 384.863281 208.265625 387.710938 206.121094 L 532.078125 97.675781 L 392.867188 213.808594 C 390.113281 216.105469 392.21875 220.851562 395.589844 219.957031 L 484.925781 196.113281 L 397.566406 228.699219 C 394.296875 229.917969 394.878906 235.125 398.324219 235.460938 L 573.8125 252.515625 L 398.472656 245.164062 C 394.980469 245.015625 393.824219 250.171875 396.984375 251.789062 L 478.988281 293.796875 L 392.746094 259.570312"/>
    </g>
    <g fill="#BEEFFF">
        <use x="559.82" y="386.35" xmlns:xlink="http://www.w3.org/1999/xlink" xlink:href="#b" xlink:type="simple"
             xlink:actuate="onLoad" xlink:show="embed"/>
    </g>
    <g fill="#BEEFFF">
        <use x="601.738" y="386.35" xmlns:xlink="http://www.w3.org/1999/xlink" xlink:href="#c" xlink:type="simple"
             xlink:actuate="onLoad" xlink:show="embed"/>
    </g>
    <g fill="#BEEFFF">
        <use x="642.688" y="386.35" xmlns:xlink="http://www.w3.org/1999/xlink" xlink:href="#d" xlink:type="simple"
             xlink:actuate="onLoad" xlink:show="embed"/>
    </g>
    <g fill="#BEEFFF">
        <use x="689.858" y="386.35" xmlns:xlink="http://www.w3.org/1999/xlink" xlink:href="#e" xlink:type="simple"
             xlink:actuate="onLoad" xlink:show="embed"/>
    </g>
    <g fill="#BEEFFF">
        <use x="734.101" y="386.35" xmlns:xlink="http://www.w3.org/1999/xlink" xlink:href="#f" xlink:type="simple"
             xlink:actuate="onLoad" xlink:show="embed"/>
    </g>
    <g fill="#BEEFFF">
        <use x="775.375" y="386.35" xmlns:xlink="http://www.w3.org/1999/xlink" xlink:href="#g" xlink:type="simple"
             xlink:actuate="onLoad" xlink:show="embed"/>
    </g>
    <g fill="#BEEFFF">
        <use x="801.016" y="386.35" xmlns:xlink="http://www.w3.org/1999/xlink" xlink:href="#c" xlink:type="simple"
             xlink:actuate="onLoad" xlink:show="embed"/>
    </g>
    <g fill="#BEEFFF">
        <use x="841.965" y="386.35" xmlns:xlink="http://www.w3.org/1999/xlink" xlink:href="#h" xlink:type="simple"
             xlink:actuate="onLoad" xlink:show="embed"/>
    </g>
</svg>
