<svg xmlns="http://www.w3.org/2000/svg" xmlns:xlink="http://www.w3.org/1999/xlink" width="400" zoomAndPan="magnify" viewBox="0 0 300 72.749999" height="97" preserveAspectRatio="xMidYMid meet" version="1.0"><defs><clipPath id="4057413f7a"><path d="M 43.984375 17.617188 L 115.800781 17.617188 L 115.800781 52.996094 L 43.984375 52.996094 Z M 43.984375 17.617188 " clip-rule="nonzero"/></clipPath><clipPath id="932b96152a"><path d="M 72.640625 11.496094 L 122.523438 11.496094 L 122.523438 61.378906 L 72.640625 61.378906 Z M 72.640625 11.496094 " clip-rule="nonzero"/></clipPath></defs><g clip-path="url(#4057413f7a)"><path fill="#ffffff" d="M 74.09375 48.542969 C 77.265625 47.09375 80.023438 45.496094 82.28125 44.011719 C 86.59375 41.179688 92.113281 35.914062 92.414062 35.496094 L 90.394531 34.140625 L 88.640625 32.964844 L 94.1875 32.75 L 95.96875 32.679688 L 96.453125 30.960938 L 97.960938 25.609375 L 99.878906 30.828125 L 100.496094 32.5 L 102.277344 32.433594 L 107.820312 32.214844 L 103.460938 35.65625 L 102.0625 36.761719 L 102.679688 38.4375 L 104.597656 43.65625 L 99.984375 40.566406 L 98.503906 39.570312 L 97.105469 40.675781 L 92.746094 44.121094 L 93.496094 41.460938 L 94.253906 38.769531 L 94.347656 38.4375 C 89.042969 42.414062 81.621094 46.25 77.183594 47.667969 C 76.167969 47.992188 75.136719 48.285156 74.09375 48.542969 Z M 63.660156 52.621094 C 71.523438 52.3125 80.890625 50.308594 90.109375 44.429688 L 88.332031 50.734375 L 98.625 42.609375 L 109.511719 49.90625 L 104.984375 37.585938 L 115.269531 29.460938 L 102.179688 29.976562 L 97.648438 17.65625 L 94.089844 30.292969 L 81 30.804688 L 88.578125 35.882812 C 83.59375 40.429688 71.082031 50.125 54.503906 50.773438 C 51.15625 50.902344 47.636719 50.667969 43.984375 49.9375 C 43.984375 49.9375 52.234375 53.066406 63.660156 52.621094 " fill-opacity="1" fill-rule="nonzero"/></g><g clip-path="url(#932b96152a)"><path fill="#ffffff" d="M 97.679688 11.539062 C 83.960938 11.539062 72.839844 22.6875 72.839844 36.4375 C 72.839844 39.042969 73.238281 41.550781 73.980469 43.910156 C 75.058594 43.371094 76.089844 42.8125 77.074219 42.246094 C 76.554688 40.398438 76.28125 38.449219 76.28125 36.4375 C 76.28125 24.589844 85.863281 14.988281 97.679688 14.988281 C 109.503906 14.988281 119.082031 24.589844 119.082031 36.4375 C 119.082031 48.285156 109.503906 57.886719 97.679688 57.886719 C 91.269531 57.886719 85.519531 55.0625 81.597656 50.585938 C 80.457031 51.03125 79.300781 51.433594 78.132812 51.800781 C 82.679688 57.605469 89.746094 61.332031 97.679688 61.332031 C 111.402344 61.332031 122.523438 50.183594 122.523438 36.4375 C 122.523438 22.6875 111.402344 11.539062 97.679688 11.539062 " fill-opacity="1" fill-rule="nonzero"/></g><path fill="#ffffff" d="M 61.441406 33.113281 L 62.8125 37.339844 L 67.25 37.339844 L 63.660156 39.953125 L 65.03125 44.183594 L 61.441406 41.570312 L 57.851562 44.183594 L 59.222656 39.953125 L 55.636719 37.339844 L 60.070312 37.339844 L 61.441406 33.113281 " fill-opacity="1" fill-rule="nonzero"/><path fill="#ffffff" d="M 67.828125 19.175781 L 69.011719 22.824219 L 72.839844 22.824219 L 69.738281 25.082031 L 70.921875 28.730469 L 67.828125 26.472656 L 64.726562 28.730469 L 65.910156 25.082031 L 62.8125 22.824219 L 66.640625 22.824219 L 67.828125 19.175781 " fill-opacity="1" fill-rule="nonzero"/><path fill="#ffffff" d="M 48.273438 41.394531 L 48.964844 43.523438 L 51.199219 43.523438 L 49.390625 44.839844 L 50.078125 46.972656 L 48.273438 45.65625 L 46.464844 46.972656 L 47.15625 44.839844 L 45.347656 43.523438 L 47.582031 43.523438 L 48.273438 41.394531 " fill-opacity="1" fill-rule="nonzero"/><path fill="#ffffff" d="M 146.914062 27.261719 C 146.855469 26.636719 146.585938 26.144531 146.105469 25.792969 C 145.625 25.4375 144.980469 25.261719 144.171875 25.261719 C 143.335938 25.261719 142.703125 25.433594 142.261719 25.78125 C 141.816406 26.121094 141.597656 26.546875 141.597656 27.0625 C 141.578125 27.636719 141.824219 28.074219 142.328125 28.367188 C 142.835938 28.664062 143.433594 28.890625 144.128906 29.050781 L 145.578125 29.394531 C 146.503906 29.609375 147.328125 29.914062 148.054688 30.3125 C 148.78125 30.707031 149.351562 31.214844 149.765625 31.839844 C 150.179688 32.464844 150.386719 33.226562 150.386719 34.117188 C 150.386719 35.582031 149.835938 36.753906 148.738281 37.632812 C 147.636719 38.503906 146.109375 38.9375 144.152344 38.9375 C 142.203125 38.9375 140.648438 38.492188 139.484375 37.597656 C 138.328125 36.707031 137.726562 35.394531 137.683594 33.664062 L 140.976562 33.664062 C 141.027344 34.46875 141.34375 35.074219 141.917969 35.476562 C 142.496094 35.882812 143.234375 36.082031 144.117188 36.082031 C 144.980469 36.082031 145.667969 35.90625 146.183594 35.542969 C 146.699219 35.175781 146.957031 34.695312 146.957031 34.105469 C 146.957031 33.570312 146.722656 33.152344 146.25 32.855469 C 145.777344 32.5625 145.105469 32.3125 144.238281 32.105469 L 142.480469 31.660156 C 141.132812 31.339844 140.0625 30.828125 139.273438 30.125 C 138.492188 29.417969 138.105469 28.472656 138.113281 27.285156 C 138.105469 26.320312 138.363281 25.46875 138.886719 24.742188 C 139.417969 24.011719 140.140625 23.445312 141.054688 23.039062 C 141.976562 22.632812 143.023438 22.429688 144.195312 22.429688 C 145.390625 22.429688 146.429688 22.632812 147.324219 23.039062 C 148.214844 23.445312 148.90625 24.011719 149.402344 24.742188 C 149.894531 25.46875 150.148438 26.3125 150.164062 27.261719 Z M 146.914062 27.261719 " fill-opacity="1" fill-rule="nonzero"/><path fill="#ffffff" d="M 153.660156 25.449219 L 153.660156 22.652344 L 166.851562 22.652344 L 166.851562 25.449219 L 161.929688 25.449219 L 161.929688 38.703125 L 158.582031 38.703125 L 158.582031 25.449219 Z M 153.660156 25.449219 " fill-opacity="1" fill-rule="nonzero"/><path fill="#ffffff" d="M 173.40625 38.703125 L 169.769531 38.703125 L 175.308594 22.652344 L 179.6875 22.652344 L 185.214844 38.703125 L 181.578125 38.703125 L 180.382812 35.042969 L 174.589844 35.042969 Z M 175.453125 32.390625 L 179.53125 32.390625 L 177.550781 26.320312 L 177.429688 26.320312 Z M 175.453125 32.390625 " fill-opacity="1" fill-rule="nonzero"/><path fill="#ffffff" d="M 188.75 38.703125 L 188.75 22.652344 L 195.085938 22.652344 C 196.914062 22.652344 198.328125 23.125 199.332031 24.078125 C 200.339844 25.027344 200.847656 26.300781 200.847656 27.890625 C 200.847656 28.992188 200.597656 29.929688 200.105469 30.710938 C 199.617188 31.484375 198.917969 32.070312 198.003906 32.46875 L 201.421875 38.703125 L 197.671875 38.703125 L 194.621094 33.011719 L 192.144531 33.011719 L 192.144531 38.703125 Z M 192.144531 30.28125 L 194.457031 30.28125 C 196.378906 30.28125 197.339844 29.484375 197.339844 27.890625 C 197.339844 26.25 196.371094 25.425781 194.433594 25.425781 L 192.144531 25.425781 Z M 192.144531 30.28125 " fill-opacity="1" fill-rule="nonzero"/><path fill="#ffffff" d="M 204.847656 38.703125 L 204.847656 22.652344 L 208.242188 22.652344 L 208.242188 35.90625 L 215.128906 35.90625 L 215.128906 38.703125 Z M 204.847656 38.703125 " fill-opacity="1" fill-rule="nonzero"/><path fill="#ffffff" d="M 218.984375 22.652344 L 222.378906 22.652344 L 222.378906 38.703125 L 218.984375 38.703125 Z M 218.984375 22.652344 " fill-opacity="1" fill-rule="nonzero"/><path fill="#ffffff" d="M 226.179688 25.449219 L 226.179688 22.652344 L 239.371094 22.652344 L 239.371094 25.449219 L 234.449219 25.449219 L 234.449219 38.703125 L 231.101562 38.703125 L 231.101562 25.449219 Z M 226.179688 25.449219 " fill-opacity="1" fill-rule="nonzero"/><path fill="#ffffff" d="M 243.152344 38.703125 L 243.152344 22.652344 L 253.976562 22.652344 L 253.976562 25.449219 L 246.546875 25.449219 L 246.546875 29.273438 L 253.421875 29.273438 L 253.421875 32.070312 L 246.546875 32.070312 L 246.546875 35.90625 L 254.007812 35.90625 L 254.007812 38.703125 Z M 243.152344 38.703125 " fill-opacity="1" fill-rule="nonzero"/><path fill="#ffffff" d="M 155.03125 53 L 155.03125 45.65625 L 159.441406 45.65625 L 159.441406 46.441406 L 155.925781 46.441406 L 155.925781 48.929688 L 159.109375 48.929688 L 159.109375 49.714844 L 155.925781 49.714844 L 155.925781 53 Z M 155.03125 53 " fill-opacity="1" fill-rule="nonzero"/><path fill="#ffffff" d="M 163.335938 53 L 163.335938 45.65625 L 165.820312 45.65625 C 166.394531 45.65625 166.863281 45.757812 167.226562 45.957031 C 167.59375 46.148438 167.867188 46.414062 168.042969 46.753906 C 168.21875 47.09375 168.308594 47.480469 168.308594 47.914062 C 168.308594 48.398438 168.199219 48.824219 167.976562 49.183594 C 167.757812 49.546875 167.40625 49.808594 166.9375 49.96875 L 168.597656 53 L 167.570312 53 L 166.019531 50.125 C 165.960938 50.132812 165.898438 50.136719 165.832031 50.136719 L 164.230469 50.136719 L 164.230469 53 Z M 164.230469 49.328125 L 165.800781 49.328125 C 166.386719 49.328125 166.808594 49.203125 167.058594 48.953125 C 167.308594 48.695312 167.4375 48.347656 167.4375 47.914062 C 167.4375 47.46875 167.308594 47.117188 167.058594 46.851562 C 166.808594 46.582031 166.386719 46.441406 165.789062 46.441406 L 164.230469 46.441406 Z M 164.230469 49.328125 " fill-opacity="1" fill-rule="nonzero"/><path fill="#ffffff" d="M 172.476562 53 L 171.539062 53 L 174.234375 45.65625 L 175.152344 45.65625 L 177.851562 53 L 176.921875 53 L 176.183594 50.921875 L 173.207031 50.921875 Z M 173.496094 50.136719 L 175.90625 50.136719 L 174.722656 46.816406 L 174.667969 46.816406 Z M 173.496094 50.136719 " fill-opacity="1" fill-rule="nonzero"/><path fill="#ffffff" d="M 181.375 45.65625 L 182.4375 45.65625 L 184.9375 51.75 L 185.023438 51.75 L 187.511719 45.65625 L 188.574219 45.65625 L 188.574219 53 L 187.746094 53 L 187.746094 47.425781 L 187.679688 47.425781 L 185.378906 53 L 184.582031 53 L 182.28125 47.425781 L 182.214844 47.425781 L 182.214844 53 L 181.375 53 Z M 181.375 45.65625 " fill-opacity="1" fill-rule="nonzero"/><path fill="#ffffff" d="M 192.960938 53 L 192.960938 45.65625 L 197.394531 45.65625 L 197.394531 46.441406 L 193.859375 46.441406 L 193.859375 48.929688 L 197.164062 48.929688 L 197.164062 49.714844 L 193.859375 49.714844 L 193.859375 52.214844 L 197.453125 52.214844 L 197.453125 53 Z M 192.960938 53 " fill-opacity="1" fill-rule="nonzero"/><path fill="#ffffff" d="M 202.71875 53 L 200.707031 45.65625 L 201.613281 45.65625 L 203.148438 51.636719 L 203.214844 51.636719 L 204.785156 45.65625 L 205.792969 45.65625 L 207.351562 51.636719 L 207.417969 51.636719 L 208.953125 45.65625 L 209.859375 45.65625 L 207.847656 53 L 206.929688 53 L 205.316406 47.148438 L 205.261719 47.148438 L 203.636719 53 Z M 202.71875 53 " fill-opacity="1" fill-rule="nonzero"/><path fill="#ffffff" d="M 219.542969 49.328125 C 219.542969 50.101562 219.402344 50.773438 219.121094 51.339844 C 218.839844 51.902344 218.460938 52.335938 217.972656 52.644531 C 217.488281 52.949219 216.929688 53.097656 216.304688 53.097656 C 215.675781 53.097656 215.113281 52.949219 214.625 52.644531 C 214.136719 52.335938 213.753906 51.902344 213.472656 51.339844 C 213.191406 50.773438 213.054688 50.101562 213.054688 49.328125 C 213.054688 48.554688 213.191406 47.886719 213.472656 47.328125 C 213.753906 46.761719 214.136719 46.328125 214.625 46.023438 C 215.113281 45.710938 215.675781 45.558594 216.304688 45.558594 C 216.929688 45.558594 217.488281 45.710938 217.972656 46.023438 C 218.460938 46.328125 218.839844 46.761719 219.121094 47.328125 C 219.402344 47.886719 219.542969 48.554688 219.542969 49.328125 Z M 218.679688 49.328125 C 218.679688 48.695312 218.574219 48.160156 218.359375 47.726562 C 218.144531 47.28125 217.855469 46.949219 217.496094 46.730469 C 217.144531 46.503906 216.746094 46.386719 216.304688 46.386719 C 215.851562 46.386719 215.445312 46.503906 215.085938 46.730469 C 214.734375 46.949219 214.449219 47.28125 214.234375 47.726562 C 214.019531 48.160156 213.914062 48.695312 213.914062 49.328125 C 213.914062 49.964844 214.019531 50.5 214.234375 50.941406 C 214.449219 51.378906 214.734375 51.710938 215.085938 51.9375 C 215.445312 52.160156 215.851562 52.269531 216.304688 52.269531 C 216.746094 52.269531 217.144531 52.160156 217.496094 51.9375 C 217.855469 51.710938 218.144531 51.378906 218.359375 50.941406 C 218.574219 50.5 218.679688 49.964844 218.679688 49.328125 Z M 218.679688 49.328125 " fill-opacity="1" fill-rule="nonzero"/><path fill="#ffffff" d="M 223.40625 53 L 223.40625 45.65625 L 225.894531 45.65625 C 226.46875 45.65625 226.9375 45.757812 227.300781 45.957031 C 227.667969 46.148438 227.941406 46.414062 228.117188 46.753906 C 228.292969 47.09375 228.382812 47.480469 228.382812 47.914062 C 228.382812 48.398438 228.273438 48.824219 228.050781 49.183594 C 227.832031 49.546875 227.480469 49.808594 227.011719 49.96875 L 228.671875 53 L 227.640625 53 L 226.09375 50.125 C 226.035156 50.132812 225.972656 50.136719 225.90625 50.136719 L 224.304688 50.136719 L 224.304688 53 Z M 224.304688 49.328125 L 225.875 49.328125 C 226.460938 49.328125 226.882812 49.203125 227.132812 48.953125 C 227.382812 48.695312 227.507812 48.347656 227.507812 47.914062 C 227.507812 47.46875 227.382812 47.117188 227.132812 46.851562 C 226.882812 46.582031 226.460938 46.441406 225.863281 46.441406 L 224.304688 46.441406 Z M 224.304688 49.328125 " fill-opacity="1" fill-rule="nonzero"/><path fill="#ffffff" d="M 232.242188 53 L 232.242188 45.65625 L 233.136719 45.65625 L 233.136719 49.292969 L 233.226562 49.292969 L 236.519531 45.65625 L 237.683594 45.65625 L 234.597656 48.972656 L 237.683594 53 L 236.609375 53 L 234.054688 49.582031 L 233.136719 50.621094 L 233.136719 53 Z M 232.242188 53 " fill-opacity="1" fill-rule="nonzero"/><path stroke-linecap="round" transform="matrix(0, 0.532268, -0.530676, 0, 129.163415, 11.497454)" fill="none" stroke-linejoin="miter" d="M 0.503826 0.49932 L 93.230489 0.49932 " stroke="#edb641" stroke-width="1" stroke-opacity="1" stroke-miterlimit="4"/></svg>