<svg xmlns="http://www.w3.org/2000/svg" xmlns:xlink="http://www.w3.org/1999/xlink" width="500" zoomAndPan="magnify" viewBox="0 0 375 374.999991" height="500" preserveAspectRatio="xMidYMid meet" version="1.0"><defs><g/><clipPath id="8ffa53bb00"><path d="M 132.03125 137 L 233 137 L 233 187 L 132.03125 187 Z M 132.03125 137 " clip-rule="nonzero"/></clipPath><clipPath id="96e7e0d297"><path d="M 172 128.394531 L 243.03125 128.394531 L 243.03125 198.894531 L 172 198.894531 Z M 172 128.394531 " clip-rule="nonzero"/></clipPath></defs><g clip-path="url(#8ffa53bb00)"><path fill="#edb641" d="M 174.585938 180.757812 C 179.070312 178.707031 182.964844 176.445312 186.15625 174.351562 C 192.253906 170.351562 200.054688 162.90625 200.480469 162.3125 L 197.625 160.398438 L 195.148438 158.742188 L 202.984375 158.433594 L 205.503906 158.335938 L 206.1875 155.90625 L 208.316406 148.339844 L 211.03125 155.714844 L 211.902344 158.085938 L 214.417969 157.984375 L 222.253906 157.679688 L 216.09375 162.542969 L 214.117188 164.105469 L 214.988281 166.472656 L 217.699219 173.847656 L 211.179688 169.480469 L 209.085938 168.078125 L 207.109375 169.640625 L 200.949219 174.503906 L 202.007812 170.746094 L 203.078125 166.941406 L 203.210938 166.46875 C 195.714844 172.09375 185.226562 177.515625 178.953125 179.515625 C 177.515625 179.976562 176.058594 180.390625 174.585938 180.757812 Z M 159.839844 186.515625 C 170.953125 186.082031 184.195312 183.25 197.222656 174.9375 L 194.710938 183.855469 L 209.253906 172.371094 L 224.644531 182.679688 L 218.242188 165.273438 L 232.78125 153.789062 L 214.28125 154.511719 L 207.878906 137.105469 L 202.847656 154.960938 L 184.347656 155.6875 L 195.058594 162.859375 C 188.011719 169.285156 170.328125 182.988281 146.902344 183.90625 C 142.167969 184.09375 137.195312 183.753906 132.03125 182.730469 C 132.03125 182.730469 143.691406 187.148438 159.839844 186.515625 " fill-opacity="1" fill-rule="nonzero"/></g><g clip-path="url(#96e7e0d297)"><path fill="#edb641" d="M 207.921875 128.460938 C 188.53125 128.460938 172.8125 144.214844 172.8125 163.644531 C 172.8125 167.324219 173.378906 170.871094 174.425781 174.207031 C 175.949219 173.445312 177.410156 172.65625 178.796875 171.855469 C 178.066406 169.242188 177.675781 166.488281 177.675781 163.644531 C 177.675781 146.902344 191.21875 133.332031 207.921875 133.332031 C 224.628906 133.332031 238.167969 146.902344 238.167969 163.644531 C 238.167969 180.386719 224.628906 193.960938 207.921875 193.960938 C 198.863281 193.960938 190.734375 189.964844 185.191406 183.640625 C 183.578125 184.269531 181.945312 184.84375 180.292969 185.359375 C 186.722656 193.5625 196.707031 198.832031 207.921875 198.832031 C 227.3125 198.832031 243.03125 183.078125 243.03125 163.644531 C 243.03125 144.214844 227.3125 128.460938 207.921875 128.460938 " fill-opacity="1" fill-rule="nonzero"/></g><path fill="#edb641" d="M 156.707031 158.945312 L 158.644531 164.921875 L 164.914062 164.921875 L 159.839844 168.617188 L 161.777344 174.59375 L 156.707031 170.898438 L 151.632812 174.59375 L 153.570312 168.617188 L 148.5 164.921875 L 154.769531 164.921875 L 156.707031 158.945312 " fill-opacity="1" fill-rule="nonzero"/><path fill="#edb641" d="M 165.730469 139.246094 L 167.402344 144.40625 L 172.8125 144.40625 L 168.433594 147.59375 L 170.105469 152.753906 L 165.730469 149.566406 L 161.347656 152.753906 L 163.023438 147.59375 L 158.644531 144.40625 L 164.054688 144.40625 L 165.730469 139.246094 " fill-opacity="1" fill-rule="nonzero"/><path fill="#edb641" d="M 138.09375 170.652344 L 139.070312 173.660156 L 142.230469 173.660156 L 139.675781 175.523438 L 140.648438 178.53125 L 138.09375 176.671875 L 135.539062 178.53125 L 136.515625 175.523438 L 133.960938 173.660156 L 137.117188 173.660156 L 138.09375 170.652344 " fill-opacity="1" fill-rule="nonzero"/><g fill="#ffffff" fill-opacity="1"><g transform="translate(121.961869, 229.94014)"><g><path d="M 11.171875 -12.65625 C 11.109375 -13.351562 10.8125 -13.894531 10.28125 -14.28125 C 9.75 -14.664062 9.035156 -14.859375 8.140625 -14.859375 C 7.222656 -14.859375 6.519531 -14.671875 6.03125 -14.296875 C 5.539062 -13.921875 5.296875 -13.445312 5.296875 -12.875 C 5.273438 -12.238281 5.546875 -11.753906 6.109375 -11.421875 C 6.671875 -11.097656 7.332031 -10.847656 8.09375 -10.671875 L 9.703125 -10.296875 C 10.722656 -10.066406 11.632812 -9.726562 12.4375 -9.28125 C 13.238281 -8.84375 13.867188 -8.28125 14.328125 -7.59375 C 14.785156 -6.90625 15.015625 -6.066406 15.015625 -5.078125 C 15.015625 -3.453125 14.40625 -2.15625 13.1875 -1.1875 C 11.976562 -0.226562 10.289062 0.25 8.125 0.25 C 5.96875 0.25 4.25 -0.238281 2.96875 -1.21875 C 1.6875 -2.207031 1.019531 -3.660156 0.96875 -5.578125 L 4.609375 -5.578125 C 4.671875 -4.679688 5.019531 -4.007812 5.65625 -3.5625 C 6.289062 -3.113281 7.097656 -2.890625 8.078125 -2.890625 C 9.035156 -2.890625 9.796875 -3.09375 10.359375 -3.5 C 10.929688 -3.90625 11.222656 -4.429688 11.234375 -5.078125 C 11.222656 -5.679688 10.957031 -6.144531 10.4375 -6.46875 C 9.914062 -6.789062 9.175781 -7.066406 8.21875 -7.296875 L 6.28125 -7.78125 C 4.78125 -8.144531 3.597656 -8.71875 2.734375 -9.5 C 1.867188 -10.28125 1.4375 -11.320312 1.4375 -12.625 C 1.4375 -13.695312 1.722656 -14.632812 2.296875 -15.4375 C 2.878906 -16.25 3.679688 -16.878906 4.703125 -17.328125 C 5.722656 -17.773438 6.878906 -18 8.171875 -18 C 9.484375 -18 10.632812 -17.773438 11.625 -17.328125 C 12.613281 -16.878906 13.378906 -16.25 13.921875 -15.4375 C 14.472656 -14.632812 14.757812 -13.707031 14.78125 -12.65625 Z M 11.171875 -12.65625 "/></g></g></g><g fill="#ffffff" fill-opacity="1"><g transform="translate(139.737611, 229.94014)"><g><path d="M 0.875 -14.671875 L 0.875 -17.765625 L 15.453125 -17.765625 L 15.453125 -14.671875 L 10.015625 -14.671875 L 10.015625 0 L 6.3125 0 L 6.3125 -14.671875 Z M 0.875 -14.671875 "/></g></g></g><g fill="#ffffff" fill-opacity="1"><g transform="translate(157.842908, 229.94014)"><g><path d="M 4.609375 0 L 0.578125 0 L 6.71875 -17.765625 L 11.546875 -17.765625 L 17.671875 0 L 13.65625 0 L 12.328125 -4.046875 L 5.921875 -4.046875 Z M 6.875 -6.984375 L 11.390625 -6.984375 L 9.203125 -13.703125 L 9.0625 -13.703125 Z M 6.875 -6.984375 "/></g></g></g><g fill="#ffffff" fill-opacity="1"><g transform="translate(177.890841, 229.94014)"><g><path d="M 1.546875 0 L 1.546875 -17.765625 L 8.546875 -17.765625 C 10.566406 -17.765625 12.132812 -17.238281 13.25 -16.1875 C 14.363281 -15.132812 14.921875 -13.722656 14.921875 -11.953125 C 14.921875 -10.742188 14.648438 -9.707031 14.109375 -8.84375 C 13.566406 -7.976562 12.789062 -7.332031 11.78125 -6.90625 L 15.546875 0 L 11.40625 0 L 8.046875 -6.296875 L 5.296875 -6.296875 L 5.296875 0 Z M 5.296875 -9.3125 L 7.84375 -9.3125 C 9.976562 -9.3125 11.046875 -10.191406 11.046875 -11.953125 C 11.046875 -13.773438 9.972656 -14.6875 7.828125 -14.6875 L 5.296875 -14.6875 Z M 5.296875 -9.3125 "/></g></g></g><g fill="#ffffff" fill-opacity="1"><g transform="translate(195.70128, 229.94014)"><g><path d="M 1.546875 0 L 1.546875 -17.765625 L 5.296875 -17.765625 L 5.296875 -3.09375 L 12.90625 -3.09375 L 12.90625 0 Z M 1.546875 0 "/></g></g></g><g fill="#ffffff" fill-opacity="1"><g transform="translate(211.34359, 229.94014)"><g><path d="M 5.296875 -17.765625 L 5.296875 0 L 1.546875 0 L 1.546875 -17.765625 Z M 5.296875 -17.765625 "/></g></g></g><g fill="#ffffff" fill-opacity="1"><g transform="translate(219.978551, 229.94014)"><g><path d="M 0.875 -14.671875 L 0.875 -17.765625 L 15.453125 -17.765625 L 15.453125 -14.671875 L 10.015625 -14.671875 L 10.015625 0 L 6.3125 0 L 6.3125 -14.671875 Z M 0.875 -14.671875 "/></g></g></g><g fill="#ffffff" fill-opacity="1"><g transform="translate(238.083847, 229.94014)"><g><path d="M 1.546875 0 L 1.546875 -17.765625 L 13.515625 -17.765625 L 13.515625 -14.671875 L 5.296875 -14.671875 L 5.296875 -10.4375 L 12.890625 -10.4375 L 12.890625 -7.34375 L 5.296875 -7.34375 L 5.296875 -3.09375 L 13.546875 -3.09375 L 13.546875 0 Z M 1.546875 0 "/></g></g></g><g fill="#ffffff" fill-opacity="1"><g transform="translate(141.134811, 245.128578)"><g><path d="M 0.984375 0 L 0.984375 -8.125 L 5.859375 -8.125 L 5.859375 -7.25 L 1.96875 -7.25 L 1.96875 -4.5 L 5.484375 -4.5 L 5.484375 -3.640625 L 1.96875 -3.640625 L 1.96875 0 Z M 0.984375 0 "/></g></g></g><g fill="#ffffff" fill-opacity="1"><g transform="translate(150.325195, 245.128578)"><g><path d="M 0.984375 0 L 0.984375 -8.125 L 3.734375 -8.125 C 4.367188 -8.125 4.890625 -8.015625 5.296875 -7.796875 C 5.703125 -7.585938 6 -7.296875 6.1875 -6.921875 C 6.382812 -6.546875 6.484375 -6.117188 6.484375 -5.640625 C 6.484375 -5.097656 6.359375 -4.625 6.109375 -4.21875 C 5.867188 -3.820312 5.488281 -3.535156 4.96875 -3.359375 L 6.8125 0 L 5.671875 0 L 3.953125 -3.171875 C 3.890625 -3.171875 3.820312 -3.171875 3.75 -3.171875 L 1.96875 -3.171875 L 1.96875 0 Z M 1.96875 -4.0625 L 3.71875 -4.0625 C 4.363281 -4.0625 4.820312 -4.203125 5.09375 -4.484375 C 5.375 -4.765625 5.515625 -5.148438 5.515625 -5.640625 C 5.515625 -6.128906 5.375 -6.519531 5.09375 -6.8125 C 4.820312 -7.101562 4.359375 -7.25 3.703125 -7.25 L 1.96875 -7.25 Z M 1.96875 -4.0625 "/></g></g></g><g fill="#ffffff" fill-opacity="1"><g transform="translate(160.102534, 245.128578)"><g><path d="M 1.3125 0 L 0.28125 0 L 3.265625 -8.125 L 4.28125 -8.125 L 7.265625 0 L 6.234375 0 L 5.421875 -2.296875 L 2.140625 -2.296875 Z M 2.4375 -3.171875 L 5.109375 -3.171875 L 3.8125 -6.84375 L 3.75 -6.84375 Z M 2.4375 -3.171875 "/></g></g></g><g fill="#ffffff" fill-opacity="1"><g transform="translate(170.29233, 245.128578)"><g><path d="M 0.984375 -8.125 L 2.15625 -8.125 L 4.921875 -1.375 L 5.015625 -1.375 L 7.78125 -8.125 L 8.953125 -8.125 L 8.953125 0 L 8.03125 0 L 8.03125 -6.171875 L 7.953125 -6.171875 L 5.40625 0 L 4.515625 0 L 1.984375 -6.171875 L 1.90625 -6.171875 L 1.90625 0 L 0.984375 0 Z M 0.984375 -8.125 "/></g></g></g><g fill="#ffffff" fill-opacity="1"><g transform="translate(183.115491, 245.128578)"><g><path d="M 0.984375 0 L 0.984375 -8.125 L 5.890625 -8.125 L 5.890625 -7.25 L 1.96875 -7.25 L 1.96875 -4.5 L 5.640625 -4.5 L 5.640625 -3.640625 L 1.96875 -3.640625 L 1.96875 -0.875 L 5.953125 -0.875 L 5.953125 0 Z M 0.984375 0 "/></g></g></g><g fill="#ffffff" fill-opacity="1"><g transform="translate(192.432789, 245.128578)"><g><path d="M 2.453125 0 L 0.234375 -8.125 L 1.234375 -8.125 L 2.9375 -1.5 L 3.015625 -1.5 L 4.75 -8.125 L 5.859375 -8.125 L 7.578125 -1.5 L 7.671875 -1.5 L 9.359375 -8.125 L 10.359375 -8.125 L 8.140625 0 L 7.125 0 L 5.328125 -6.46875 L 5.265625 -6.46875 L 3.46875 0 Z M 2.453125 0 "/></g></g></g><g fill="#ffffff" fill-opacity="1"><g transform="translate(205.668406, 245.128578)"><g><path d="M 7.84375 -4.0625 C 7.84375 -3.207031 7.6875 -2.46875 7.375 -1.84375 C 7.0625 -1.21875 6.632812 -0.734375 6.09375 -0.390625 C 5.5625 -0.0546875 4.945312 0.109375 4.25 0.109375 C 3.5625 0.109375 2.945312 -0.0546875 2.40625 -0.390625 C 1.863281 -0.734375 1.4375 -1.21875 1.125 -1.84375 C 0.820312 -2.46875 0.671875 -3.207031 0.671875 -4.0625 C 0.671875 -4.914062 0.820312 -5.65625 1.125 -6.28125 C 1.4375 -6.90625 1.863281 -7.382812 2.40625 -7.71875 C 2.945312 -8.0625 3.5625 -8.234375 4.25 -8.234375 C 4.945312 -8.234375 5.5625 -8.0625 6.09375 -7.71875 C 6.632812 -7.382812 7.0625 -6.90625 7.375 -6.28125 C 7.6875 -5.65625 7.84375 -4.914062 7.84375 -4.0625 Z M 6.890625 -4.0625 C 6.890625 -4.769531 6.769531 -5.363281 6.53125 -5.84375 C 6.300781 -6.320312 5.984375 -6.6875 5.578125 -6.9375 C 5.179688 -7.1875 4.738281 -7.3125 4.25 -7.3125 C 3.757812 -7.3125 3.316406 -7.1875 2.921875 -6.9375 C 2.523438 -6.6875 2.207031 -6.320312 1.96875 -5.84375 C 1.738281 -5.363281 1.625 -4.769531 1.625 -4.0625 C 1.625 -3.351562 1.738281 -2.757812 1.96875 -2.28125 C 2.207031 -1.800781 2.523438 -1.4375 2.921875 -1.1875 C 3.316406 -0.9375 3.757812 -0.8125 4.25 -0.8125 C 4.738281 -0.8125 5.179688 -0.9375 5.578125 -1.1875 C 5.984375 -1.4375 6.300781 -1.800781 6.53125 -2.28125 C 6.769531 -2.757812 6.890625 -3.351562 6.890625 -4.0625 Z M 6.890625 -4.0625 "/></g></g></g><g fill="#ffffff" fill-opacity="1"><g transform="translate(216.81003, 245.128578)"><g><path d="M 0.984375 0 L 0.984375 -8.125 L 3.734375 -8.125 C 4.367188 -8.125 4.890625 -8.015625 5.296875 -7.796875 C 5.703125 -7.585938 6 -7.296875 6.1875 -6.921875 C 6.382812 -6.546875 6.484375 -6.117188 6.484375 -5.640625 C 6.484375 -5.097656 6.359375 -4.625 6.109375 -4.21875 C 5.867188 -3.820312 5.488281 -3.535156 4.96875 -3.359375 L 6.8125 0 L 5.671875 0 L 3.953125 -3.171875 C 3.890625 -3.171875 3.820312 -3.171875 3.75 -3.171875 L 1.96875 -3.171875 L 1.96875 0 Z M 1.96875 -4.0625 L 3.71875 -4.0625 C 4.363281 -4.0625 4.820312 -4.203125 5.09375 -4.484375 C 5.375 -4.765625 5.515625 -5.148438 5.515625 -5.640625 C 5.515625 -6.128906 5.375 -6.519531 5.09375 -6.8125 C 4.820312 -7.101562 4.359375 -7.25 3.703125 -7.25 L 1.96875 -7.25 Z M 1.96875 -4.0625 "/></g></g></g><g fill="#ffffff" fill-opacity="1"><g transform="translate(226.587369, 245.128578)"><g><path d="M 0.984375 0 L 0.984375 -8.125 L 1.96875 -8.125 L 1.96875 -4.09375 L 2.0625 -4.09375 L 5.71875 -8.125 L 7 -8.125 L 3.59375 -4.453125 L 7 0 L 5.8125 0 L 2.984375 -3.78125 L 1.96875 -2.640625 L 1.96875 0 Z M 0.984375 0 "/></g></g></g></svg>