<svg xmlns="http://www.w3.org/2000/svg" xmlns:xlink="http://www.w3.org/1999/xlink" width="500" zoomAndPan="magnify" viewBox="0 0 375 374.999991" height="500" preserveAspectRatio="xMidYMid meet" version="1.0"><defs><g/><clipPath id="aa50de20da"><path d="M 37.5 161 L 139 161 L 139 211 L 37.5 211 Z M 37.5 161 " clip-rule="nonzero"/></clipPath><clipPath id="6a7e1d1d45"><path d="M 78 152.347656 L 148.5 152.347656 L 148.5 222.847656 L 78 222.847656 Z M 78 152.347656 " clip-rule="nonzero"/></clipPath></defs><g clip-path="url(#aa50de20da)"><path fill="#edb641" d="M 80.054688 204.707031 C 84.539062 202.65625 88.433594 200.398438 91.625 198.304688 C 97.722656 194.300781 105.523438 186.859375 105.949219 186.265625 L 103.09375 184.351562 L 100.617188 182.691406 L 108.453125 182.386719 L 110.96875 182.285156 L 111.65625 179.855469 L 113.785156 172.292969 L 116.5 179.667969 L 117.371094 182.035156 L 119.886719 181.9375 L 127.722656 181.628906 L 121.5625 186.492188 L 119.585938 188.058594 L 120.457031 190.425781 L 123.167969 197.800781 L 116.648438 193.433594 L 114.554688 192.027344 L 112.578125 193.589844 L 106.417969 198.457031 L 107.476562 194.695312 L 108.546875 190.894531 L 108.679688 190.421875 C 101.183594 196.046875 90.695312 201.464844 84.421875 203.46875 C 82.984375 203.929688 81.527344 204.339844 80.054688 204.707031 Z M 65.308594 210.46875 C 76.421875 210.03125 89.664062 207.203125 102.691406 198.890625 L 100.179688 207.804688 L 114.722656 196.320312 L 130.113281 206.632812 L 123.710938 189.222656 L 138.25 177.738281 L 119.75 178.464844 L 113.347656 161.054688 L 108.316406 178.914062 L 89.816406 179.636719 L 100.527344 186.8125 C 93.480469 193.238281 75.796875 206.941406 52.371094 207.859375 C 47.636719 208.042969 42.664062 207.707031 37.5 206.679688 C 37.5 206.679688 49.160156 211.101562 65.308594 210.46875 " fill-opacity="1" fill-rule="nonzero"/></g><g clip-path="url(#6a7e1d1d45)"><path fill="#edb641" d="M 113.390625 152.410156 C 94 152.410156 78.28125 168.164062 78.28125 187.597656 C 78.28125 191.277344 78.847656 194.824219 79.894531 198.15625 C 81.417969 197.394531 82.878906 196.605469 84.265625 195.804688 C 83.535156 193.195312 83.144531 190.441406 83.144531 187.597656 C 83.144531 170.855469 96.6875 157.28125 113.390625 157.28125 C 130.097656 157.28125 143.636719 170.855469 143.636719 187.597656 C 143.636719 204.339844 130.097656 217.910156 113.390625 217.910156 C 104.332031 217.910156 96.203125 213.917969 90.660156 207.59375 C 89.046875 208.222656 87.414062 208.792969 85.761719 209.3125 C 92.191406 217.511719 102.175781 222.78125 113.390625 222.78125 C 132.78125 222.78125 148.5 207.027344 148.5 187.597656 C 148.5 168.164062 132.78125 152.410156 113.390625 152.410156 " fill-opacity="1" fill-rule="nonzero"/></g><path fill="#edb641" d="M 62.175781 182.898438 L 64.113281 188.875 L 70.382812 188.875 L 65.308594 192.566406 L 67.246094 198.542969 L 62.175781 194.851562 L 57.101562 198.542969 L 59.039062 192.566406 L 53.96875 188.875 L 60.238281 188.875 L 62.175781 182.898438 " fill-opacity="1" fill-rule="nonzero"/><path fill="#edb641" d="M 71.199219 163.199219 L 72.871094 168.359375 L 78.28125 168.359375 L 73.902344 171.546875 L 75.574219 176.703125 L 71.199219 173.515625 L 66.816406 176.703125 L 68.492188 171.546875 L 64.113281 168.359375 L 69.523438 168.359375 L 71.199219 163.199219 " fill-opacity="1" fill-rule="nonzero"/><path fill="#edb641" d="M 43.5625 194.601562 L 44.539062 197.613281 L 47.699219 197.613281 L 45.144531 199.472656 L 46.117188 202.484375 L 43.5625 200.625 L 41.007812 202.484375 L 41.984375 199.472656 L 39.429688 197.613281 L 42.585938 197.613281 L 43.5625 194.601562 " fill-opacity="1" fill-rule="nonzero"/><g fill="#202235" fill-opacity="1"><g transform="translate(168.711512, 190.364389)"><g><path d="M 14.28125 -16.15625 C 14.1875 -17.050781 13.800781 -17.742188 13.125 -18.234375 C 12.445312 -18.734375 11.539062 -18.984375 10.40625 -18.984375 C 9.226562 -18.984375 8.320312 -18.742188 7.6875 -18.265625 C 7.0625 -17.785156 6.75 -17.179688 6.75 -16.453125 C 6.738281 -15.640625 7.085938 -15.023438 7.796875 -14.609375 C 8.515625 -14.191406 9.363281 -13.867188 10.34375 -13.640625 L 12.375 -13.140625 C 13.695312 -12.847656 14.867188 -12.421875 15.890625 -11.859375 C 16.910156 -11.296875 17.710938 -10.570312 18.296875 -9.6875 C 18.890625 -8.8125 19.1875 -7.742188 19.1875 -6.484375 C 19.175781 -4.398438 18.394531 -2.742188 16.84375 -1.515625 C 15.300781 -0.285156 13.144531 0.328125 10.375 0.328125 C 7.625 0.328125 5.425781 -0.296875 3.78125 -1.546875 C 2.144531 -2.804688 1.296875 -4.664062 1.234375 -7.125 L 5.875 -7.125 C 5.957031 -5.988281 6.40625 -5.132812 7.21875 -4.5625 C 8.039062 -3.988281 9.078125 -3.703125 10.328125 -3.703125 C 11.546875 -3.703125 12.515625 -3.957031 13.234375 -4.46875 C 13.960938 -4.988281 14.332031 -5.660156 14.34375 -6.484375 C 14.332031 -7.253906 13.992188 -7.84375 13.328125 -8.25 C 12.671875 -8.664062 11.722656 -9.023438 10.484375 -9.328125 L 8.015625 -9.953125 C 6.109375 -10.398438 4.597656 -11.125 3.484375 -12.125 C 2.378906 -13.125 1.832031 -14.457031 1.84375 -16.125 C 1.832031 -17.5 2.195312 -18.703125 2.9375 -19.734375 C 3.675781 -20.765625 4.695312 -21.5625 6 -22.125 C 7.300781 -22.695312 8.78125 -22.984375 10.4375 -22.984375 C 12.113281 -22.984375 13.582031 -22.695312 14.84375 -22.125 C 16.101562 -21.550781 17.082031 -20.75 17.78125 -19.71875 C 18.488281 -18.695312 18.851562 -17.507812 18.875 -16.15625 Z M 14.28125 -16.15625 "/></g></g></g><g fill="#202235" fill-opacity="1"><g transform="translate(191.410904, 190.364389)"><g><path d="M 1.109375 -18.734375 L 1.109375 -22.6875 L 19.734375 -22.6875 L 19.734375 -18.734375 L 12.796875 -18.734375 L 12.796875 0 L 8.046875 0 L 8.046875 -18.734375 Z M 1.109375 -18.734375 "/></g></g></g><g fill="#202235" fill-opacity="1"><g transform="translate(214.531135, 190.364389)"><g><path d="M 5.875 0 L 0.734375 0 L 8.578125 -22.6875 L 14.75 -22.6875 L 22.578125 0 L 17.4375 0 L 15.75 -5.171875 L 7.5625 -5.171875 Z M 8.78125 -8.921875 L 14.546875 -8.921875 L 11.75 -17.5 L 11.578125 -17.5 Z M 8.78125 -8.921875 "/></g></g></g><g fill="#202235" fill-opacity="1"><g transform="translate(240.132086, 190.364389)"><g><path d="M 1.96875 0 L 1.96875 -22.6875 L 10.921875 -22.6875 C 13.492188 -22.6875 15.488281 -22.015625 16.90625 -20.671875 C 18.332031 -19.328125 19.046875 -17.523438 19.046875 -15.265625 C 19.046875 -13.722656 18.703125 -12.398438 18.015625 -11.296875 C 17.328125 -10.191406 16.335938 -9.363281 15.046875 -8.8125 L 19.859375 0 L 14.5625 0 L 10.265625 -8.046875 L 6.765625 -8.046875 L 6.765625 0 Z M 6.765625 -11.890625 L 10.015625 -11.890625 C 12.742188 -11.890625 14.109375 -13.015625 14.109375 -15.265625 C 14.109375 -17.597656 12.738281 -18.765625 10 -18.765625 L 6.765625 -18.765625 Z M 6.765625 -11.890625 "/></g></g></g><g fill="#202235" fill-opacity="1"><g transform="translate(262.875786, 190.364389)"><g><path d="M 1.96875 0 L 1.96875 -22.6875 L 6.765625 -22.6875 L 6.765625 -3.953125 L 16.484375 -3.953125 L 16.484375 0 Z M 1.96875 0 "/></g></g></g><g fill="#202235" fill-opacity="1"><g transform="translate(282.850814, 190.364389)"><g><path d="M 6.765625 -22.6875 L 6.765625 0 L 1.96875 0 L 1.96875 -22.6875 Z M 6.765625 -22.6875 "/></g></g></g><g fill="#202235" fill-opacity="1"><g transform="translate(293.877548, 190.364389)"><g><path d="M 1.109375 -18.734375 L 1.109375 -22.6875 L 19.734375 -22.6875 L 19.734375 -18.734375 L 12.796875 -18.734375 L 12.796875 0 L 8.046875 0 L 8.046875 -18.734375 Z M 1.109375 -18.734375 "/></g></g></g><g fill="#202235" fill-opacity="1"><g transform="translate(316.997777, 190.364389)"><g><path d="M 1.96875 0 L 1.96875 -22.6875 L 17.25 -22.6875 L 17.25 -18.734375 L 6.765625 -18.734375 L 6.765625 -13.328125 L 16.46875 -13.328125 L 16.46875 -9.375 L 6.765625 -9.375 L 6.765625 -3.953125 L 17.296875 -3.953125 L 17.296875 0 Z M 1.96875 0 "/></g></g></g><g fill="#737373" fill-opacity="1"><g transform="translate(193.193096, 209.759874)"><g><path d="M 1.25 0 L 1.25 -10.375 L 7.484375 -10.375 L 7.484375 -9.265625 L 2.515625 -9.265625 L 2.515625 -5.75 L 7.015625 -5.75 L 7.015625 -4.640625 L 2.515625 -4.640625 L 2.515625 0 Z M 1.25 0 "/></g></g></g><g fill="#737373" fill-opacity="1"><g transform="translate(204.929096, 209.759874)"><g><path d="M 1.25 0 L 1.25 -10.375 L 4.765625 -10.375 C 5.578125 -10.375 6.238281 -10.234375 6.75 -9.953125 C 7.269531 -9.679688 7.65625 -9.304688 7.90625 -8.828125 C 8.15625 -8.347656 8.28125 -7.800781 8.28125 -7.1875 C 8.28125 -6.5 8.125 -5.898438 7.8125 -5.390625 C 7.5 -4.878906 7.007812 -4.507812 6.34375 -4.28125 L 8.6875 0 L 7.234375 0 L 5.046875 -4.0625 C 4.960938 -4.050781 4.875 -4.046875 4.78125 -4.046875 L 2.515625 -4.046875 L 2.515625 0 Z M 2.515625 -5.1875 L 4.734375 -5.1875 C 5.566406 -5.1875 6.160156 -5.363281 6.515625 -5.71875 C 6.867188 -6.082031 7.046875 -6.570312 7.046875 -7.1875 C 7.046875 -7.8125 6.867188 -8.3125 6.515625 -8.6875 C 6.160156 -9.070312 5.5625 -9.265625 4.71875 -9.265625 L 2.515625 -9.265625 Z M 2.515625 -5.1875 "/></g></g></g><g fill="#737373" fill-opacity="1"><g transform="translate(217.414632, 209.759874)"><g><path d="M 1.6875 0 L 0.359375 0 L 4.171875 -10.375 L 5.46875 -10.375 L 9.28125 0 L 7.96875 0 L 6.921875 -2.9375 L 2.71875 -2.9375 Z M 3.125 -4.046875 L 6.53125 -4.046875 L 4.859375 -8.734375 L 4.78125 -8.734375 Z M 3.125 -4.046875 "/></g></g></g><g fill="#737373" fill-opacity="1"><g transform="translate(230.42687, 209.759874)"><g><path d="M 1.25 -10.375 L 2.75 -10.375 L 6.28125 -1.765625 L 6.40625 -1.765625 L 9.921875 -10.375 L 11.421875 -10.375 L 11.421875 0 L 10.25 0 L 10.25 -7.875 L 10.15625 -7.875 L 6.90625 0 L 5.78125 0 L 2.53125 -7.875 L 2.4375 -7.875 L 2.4375 0 L 1.25 0 Z M 1.25 -10.375 "/></g></g></g><g fill="#737373" fill-opacity="1"><g transform="translate(246.80188, 209.759874)"><g><path d="M 1.25 0 L 1.25 -10.375 L 7.515625 -10.375 L 7.515625 -9.265625 L 2.515625 -9.265625 L 2.515625 -5.75 L 7.1875 -5.75 L 7.1875 -4.640625 L 2.515625 -4.640625 L 2.515625 -1.109375 L 7.59375 -1.109375 L 7.59375 0 Z M 1.25 0 "/></g></g></g><g fill="#737373" fill-opacity="1"><g transform="translate(258.69995, 209.759874)"><g><path d="M 3.140625 0 L 0.296875 -10.375 L 1.578125 -10.375 L 3.75 -1.921875 L 3.84375 -1.921875 L 6.0625 -10.375 L 7.484375 -10.375 L 9.6875 -1.921875 L 9.78125 -1.921875 L 11.953125 -10.375 L 13.234375 -10.375 L 10.390625 0 L 9.09375 0 L 6.8125 -8.265625 L 6.734375 -8.265625 L 4.4375 0 Z M 3.140625 0 "/></g></g></g><g fill="#737373" fill-opacity="1"><g transform="translate(275.601662, 209.759874)"><g><path d="M 10.015625 -5.1875 C 10.015625 -4.09375 9.816406 -3.144531 9.421875 -2.34375 C 9.023438 -1.550781 8.484375 -0.9375 7.796875 -0.5 C 7.109375 -0.0703125 6.320312 0.140625 5.4375 0.140625 C 4.550781 0.140625 3.757812 -0.0703125 3.0625 -0.5 C 2.375 -0.9375 1.832031 -1.550781 1.4375 -2.34375 C 1.039062 -3.144531 0.84375 -4.09375 0.84375 -5.1875 C 0.84375 -6.28125 1.039062 -7.222656 1.4375 -8.015625 C 1.832031 -8.816406 2.375 -9.429688 3.0625 -9.859375 C 3.757812 -10.296875 4.550781 -10.515625 5.4375 -10.515625 C 6.320312 -10.515625 7.109375 -10.296875 7.796875 -9.859375 C 8.484375 -9.429688 9.023438 -8.816406 9.421875 -8.015625 C 9.816406 -7.222656 10.015625 -6.28125 10.015625 -5.1875 Z M 8.796875 -5.1875 C 8.796875 -6.082031 8.644531 -6.835938 8.34375 -7.453125 C 8.039062 -8.078125 7.632812 -8.546875 7.125 -8.859375 C 6.625 -9.179688 6.0625 -9.34375 5.4375 -9.34375 C 4.800781 -9.34375 4.226562 -9.179688 3.71875 -8.859375 C 3.21875 -8.546875 2.816406 -8.078125 2.515625 -7.453125 C 2.210938 -6.835938 2.0625 -6.082031 2.0625 -5.1875 C 2.0625 -4.289062 2.210938 -3.53125 2.515625 -2.90625 C 2.816406 -2.289062 3.21875 -1.820312 3.71875 -1.5 C 4.226562 -1.1875 4.800781 -1.03125 5.4375 -1.03125 C 6.0625 -1.03125 6.625 -1.1875 7.125 -1.5 C 7.632812 -1.820312 8.039062 -2.289062 8.34375 -2.90625 C 8.644531 -3.53125 8.796875 -4.289062 8.796875 -5.1875 Z M 8.796875 -5.1875 "/></g></g></g><g fill="#737373" fill-opacity="1"><g transform="translate(289.829372, 209.759874)"><g><path d="M 1.25 0 L 1.25 -10.375 L 4.765625 -10.375 C 5.578125 -10.375 6.238281 -10.234375 6.75 -9.953125 C 7.269531 -9.679688 7.65625 -9.304688 7.90625 -8.828125 C 8.15625 -8.347656 8.28125 -7.800781 8.28125 -7.1875 C 8.28125 -6.5 8.125 -5.898438 7.8125 -5.390625 C 7.5 -4.878906 7.007812 -4.507812 6.34375 -4.28125 L 8.6875 0 L 7.234375 0 L 5.046875 -4.0625 C 4.960938 -4.050781 4.875 -4.046875 4.78125 -4.046875 L 2.515625 -4.046875 L 2.515625 0 Z M 2.515625 -5.1875 L 4.734375 -5.1875 C 5.566406 -5.1875 6.160156 -5.363281 6.515625 -5.71875 C 6.867188 -6.082031 7.046875 -6.570312 7.046875 -7.1875 C 7.046875 -7.8125 6.867188 -8.3125 6.515625 -8.6875 C 6.160156 -9.070312 5.5625 -9.265625 4.71875 -9.265625 L 2.515625 -9.265625 Z M 2.515625 -5.1875 "/></g></g></g><g fill="#737373" fill-opacity="1"><g transform="translate(302.314907, 209.759874)"><g><path d="M 1.25 0 L 1.25 -10.375 L 2.515625 -10.375 L 2.515625 -5.234375 L 2.640625 -5.234375 L 7.296875 -10.375 L 8.9375 -10.375 L 4.578125 -5.6875 L 8.9375 0 L 7.421875 0 L 3.8125 -4.828125 L 2.515625 -3.359375 L 2.515625 0 Z M 1.25 0 "/></g></g></g><path stroke-linecap="round" transform="matrix(0.000000000000000046, 0.752251, -0.75, 0.000000000000000046, 157.885233, 152.349482)" fill="none" stroke-linejoin="miter" d="M 0.50127 0.498018 L 93.228214 0.498018 " stroke="#000000" stroke-width="1" stroke-opacity="1" stroke-miterlimit="4"/></svg>