<svg xmlns="http://www.w3.org/2000/svg" xmlns:xlink="http://www.w3.org/1999/xlink" width="400" zoomAndPan="magnify" viewBox="0 0 300 72.749999" height="97" preserveAspectRatio="xMidYMid meet" version="1.0"><defs><clipPath id="403c03762f"><path d="M 43.785156 17.421875 L 115.605469 17.421875 L 115.605469 52.800781 L 43.785156 52.800781 Z M 43.785156 17.421875 " clip-rule="nonzero"/></clipPath><clipPath id="5a3a2672db"><path d="M 72.441406 11.300781 L 122.324219 11.300781 L 122.324219 61.183594 L 72.441406 61.183594 Z M 72.441406 11.300781 " clip-rule="nonzero"/></clipPath></defs><g clip-path="url(#403c03762f)"><path fill="#edb641" d="M 73.894531 48.347656 C 77.070312 46.894531 79.824219 45.296875 82.082031 43.816406 C 86.398438 40.984375 91.917969 35.71875 92.21875 35.296875 L 90.199219 33.945312 L 88.445312 32.769531 L 93.992188 32.554688 L 95.769531 32.480469 L 96.257812 30.761719 L 97.761719 25.410156 L 99.683594 30.628906 L 100.300781 32.304688 L 102.082031 32.234375 L 107.625 32.015625 L 103.265625 35.457031 L 101.867188 36.566406 L 102.484375 38.242188 L 104.402344 43.460938 L 99.789062 40.371094 L 98.308594 39.375 L 96.910156 40.480469 L 92.550781 43.925781 L 93.300781 41.261719 L 94.054688 38.574219 L 94.152344 38.238281 C 88.847656 42.21875 81.425781 46.054688 76.988281 47.472656 C 75.96875 47.796875 74.9375 48.085938 73.894531 48.347656 Z M 63.460938 52.421875 C 71.324219 52.113281 80.695312 50.113281 89.914062 44.230469 L 88.136719 50.539062 L 98.425781 42.414062 L 109.316406 49.710938 L 104.785156 37.390625 L 115.074219 29.265625 L 101.984375 29.777344 L 97.453125 17.460938 L 93.894531 30.097656 L 80.804688 30.609375 L 88.382812 35.683594 C 83.394531 40.230469 70.882812 49.929688 54.308594 50.578125 C 50.957031 50.707031 47.441406 50.46875 43.785156 49.742188 C 43.785156 49.742188 52.035156 52.871094 63.460938 52.421875 " fill-opacity="1" fill-rule="nonzero"/></g><g clip-path="url(#5a3a2672db)"><path fill="#edb641" d="M 97.484375 11.34375 C 83.765625 11.34375 72.640625 22.492188 72.640625 36.242188 C 72.640625 38.84375 73.042969 41.355469 73.78125 43.710938 C 74.859375 43.171875 75.894531 42.613281 76.875 42.046875 C 76.359375 40.203125 76.082031 38.253906 76.082031 36.242188 C 76.082031 24.394531 85.664062 14.789062 97.484375 14.789062 C 109.304688 14.789062 118.886719 24.394531 118.886719 36.242188 C 118.886719 48.085938 109.304688 57.6875 97.484375 57.6875 C 91.074219 57.6875 85.324219 54.863281 81.402344 50.390625 C 80.257812 50.835938 79.105469 51.238281 77.933594 51.605469 C 82.484375 57.40625 89.546875 61.136719 97.484375 61.136719 C 111.203125 61.136719 122.324219 49.988281 122.324219 36.242188 C 122.324219 22.492188 111.203125 11.34375 97.484375 11.34375 " fill-opacity="1" fill-rule="nonzero"/></g><path fill="#edb641" d="M 61.246094 32.914062 L 62.617188 37.144531 L 67.054688 37.144531 L 63.460938 39.757812 L 64.832031 43.984375 L 61.246094 41.375 L 57.65625 43.984375 L 59.027344 39.757812 L 55.4375 37.144531 L 59.875 37.144531 L 61.246094 32.914062 " fill-opacity="1" fill-rule="nonzero"/><path fill="#edb641" d="M 67.628906 18.976562 L 68.8125 22.628906 L 72.640625 22.628906 L 69.542969 24.882812 L 70.726562 28.53125 L 67.628906 26.277344 L 64.53125 28.53125 L 65.714844 24.882812 L 62.617188 22.628906 L 66.445312 22.628906 L 67.628906 18.976562 " fill-opacity="1" fill-rule="nonzero"/><path fill="#edb641" d="M 48.074219 41.195312 L 48.765625 43.328125 L 51.003906 43.328125 L 49.195312 44.644531 L 49.882812 46.773438 L 48.074219 45.457031 L 46.269531 46.773438 L 46.960938 44.644531 L 45.152344 43.328125 L 47.382812 43.328125 L 48.074219 41.195312 " fill-opacity="1" fill-rule="nonzero"/><path fill="#202235" d="M 146.734375 26.765625 C 146.667969 26.132812 146.390625 25.644531 145.914062 25.296875 C 145.433594 24.941406 144.792969 24.765625 143.992188 24.765625 C 143.15625 24.765625 142.515625 24.9375 142.066406 25.273438 C 141.625 25.613281 141.402344 26.042969 141.402344 26.554688 C 141.394531 27.132812 141.640625 27.566406 142.144531 27.859375 C 142.652344 28.15625 143.253906 28.386719 143.945312 28.546875 L 145.382812 28.898438 C 146.316406 29.109375 147.148438 29.410156 147.871094 29.808594 C 148.59375 30.203125 149.160156 30.71875 149.574219 31.34375 C 149.992188 31.960938 150.203125 32.71875 150.203125 33.609375 C 150.195312 35.085938 149.644531 36.257812 148.546875 37.125 C 147.453125 37.996094 145.929688 38.429688 143.96875 38.429688 C 142.023438 38.429688 140.464844 37.988281 139.304688 37.105469 C 138.144531 36.214844 137.546875 34.898438 137.5 33.15625 L 140.785156 33.15625 C 140.84375 33.960938 141.160156 34.566406 141.734375 34.96875 C 142.316406 35.375 143.050781 35.578125 143.933594 35.578125 C 144.796875 35.578125 145.484375 35.398438 145.992188 35.035156 C 146.507812 34.667969 146.769531 34.191406 146.777344 33.609375 C 146.769531 33.066406 146.527344 32.648438 146.058594 32.359375 C 145.59375 32.066406 144.921875 31.8125 144.046875 31.597656 L 142.300781 31.15625 C 140.949219 30.839844 139.878906 30.328125 139.09375 29.617188 C 138.3125 28.910156 137.921875 27.96875 137.933594 26.789062 C 137.921875 25.816406 138.179688 24.964844 138.707031 24.234375 C 139.226562 23.503906 139.949219 22.941406 140.871094 22.542969 C 141.792969 22.140625 142.839844 21.933594 144.011719 21.933594 C 145.199219 21.933594 146.238281 22.140625 147.128906 22.542969 C 148.019531 22.949219 148.714844 23.515625 149.210938 24.246094 C 149.710938 24.96875 149.964844 25.808594 149.984375 26.765625 Z M 146.734375 26.765625 " fill-opacity="1" fill-rule="nonzero"/><path fill="#202235" d="M 153.472656 24.941406 L 153.472656 22.144531 L 166.652344 22.144531 L 166.652344 24.941406 L 161.742188 24.941406 L 161.742188 38.199219 L 158.382812 38.199219 L 158.382812 24.941406 Z M 153.472656 24.941406 " fill-opacity="1" fill-rule="nonzero"/><path fill="#202235" d="M 173.203125 38.199219 L 169.566406 38.199219 L 175.117188 22.144531 L 179.484375 22.144531 L 185.023438 38.199219 L 181.386719 38.199219 L 180.191406 34.539062 L 174.398438 34.539062 Z M 175.261719 31.886719 L 179.339844 31.886719 L 177.363281 25.816406 L 177.238281 25.816406 Z M 175.261719 31.886719 " fill-opacity="1" fill-rule="nonzero"/><path fill="#202235" d="M 188.554688 38.199219 L 188.554688 22.144531 L 194.890625 22.144531 C 196.707031 22.144531 198.121094 22.621094 199.125 23.570312 C 200.132812 24.523438 200.640625 25.800781 200.640625 27.398438 C 200.640625 28.488281 200.394531 29.425781 199.910156 30.203125 C 199.421875 30.988281 198.722656 31.574219 197.808594 31.960938 L 201.214844 38.199219 L 197.464844 38.199219 L 194.425781 32.503906 L 191.949219 32.503906 L 191.949219 38.199219 Z M 191.949219 29.785156 L 194.25 29.785156 C 196.179688 29.785156 197.144531 28.988281 197.144531 27.398438 C 197.144531 25.746094 196.175781 24.921875 194.238281 24.921875 L 191.949219 24.921875 Z M 191.949219 29.785156 " fill-opacity="1" fill-rule="nonzero"/><path fill="#202235" d="M 204.648438 38.199219 L 204.648438 22.144531 L 208.042969 22.144531 L 208.042969 35.402344 L 214.917969 35.402344 L 214.917969 38.199219 Z M 204.648438 38.199219 " fill-opacity="1" fill-rule="nonzero"/><path fill="#202235" d="M 218.78125 22.144531 L 222.175781 22.144531 L 222.175781 38.199219 L 218.78125 38.199219 Z M 218.78125 22.144531 " fill-opacity="1" fill-rule="nonzero"/><path fill="#202235" d="M 225.976562 24.941406 L 225.976562 22.144531 L 239.15625 22.144531 L 239.15625 24.941406 L 234.246094 24.941406 L 234.246094 38.199219 L 230.882812 38.199219 L 230.882812 24.941406 Z M 225.976562 24.941406 " fill-opacity="1" fill-rule="nonzero"/><path fill="#202235" d="M 242.941406 38.199219 L 242.941406 22.144531 L 253.753906 22.144531 L 253.753906 24.941406 L 246.335938 24.941406 L 246.335938 28.769531 L 253.203125 28.769531 L 253.203125 31.566406 L 246.335938 31.566406 L 246.335938 35.402344 L 253.789062 35.402344 L 253.789062 38.199219 Z M 242.941406 38.199219 " fill-opacity="1" fill-rule="nonzero"/><path fill="#737373" d="M 154.832031 51.921875 L 154.832031 44.582031 L 159.246094 44.582031 L 159.246094 45.367188 L 155.730469 45.367188 L 155.730469 47.855469 L 158.914062 47.855469 L 158.914062 48.636719 L 155.730469 48.636719 L 155.730469 51.921875 Z M 154.832031 51.921875 " fill-opacity="1" fill-rule="nonzero"/><path fill="#737373" d="M 163.140625 51.921875 L 163.140625 44.582031 L 165.625 44.582031 C 166.199219 44.582031 166.667969 44.679688 167.03125 44.878906 C 167.398438 45.074219 167.671875 45.339844 167.847656 45.675781 C 168.023438 46.015625 168.113281 46.402344 168.113281 46.835938 C 168.113281 47.324219 168.003906 47.75 167.78125 48.109375 C 167.5625 48.46875 167.210938 48.734375 166.742188 48.894531 L 168.402344 51.921875 L 167.375 51.921875 L 165.824219 49.046875 C 165.765625 49.054688 165.703125 49.058594 165.636719 49.058594 L 164.035156 49.058594 L 164.035156 51.921875 Z M 164.035156 48.25 L 165.605469 48.25 C 166.191406 48.25 166.613281 48.128906 166.863281 47.875 C 167.113281 47.617188 167.242188 47.273438 167.242188 46.835938 C 167.242188 46.394531 167.113281 46.039062 166.863281 45.773438 C 166.613281 45.503906 166.191406 45.367188 165.59375 45.367188 L 164.035156 45.367188 Z M 164.035156 48.25 " fill-opacity="1" fill-rule="nonzero"/><path fill="#737373" d="M 172.28125 51.921875 L 171.34375 51.921875 L 174.039062 44.582031 L 174.957031 44.582031 L 177.65625 51.921875 L 176.726562 51.921875 L 175.984375 49.84375 L 173.011719 49.84375 Z M 173.300781 49.058594 L 175.710938 49.058594 L 174.527344 45.742188 L 174.472656 45.742188 Z M 173.300781 49.058594 " fill-opacity="1" fill-rule="nonzero"/><path fill="#737373" d="M 181.179688 44.582031 L 182.242188 44.582031 L 184.738281 50.671875 L 184.828125 50.671875 L 187.316406 44.582031 L 188.375 44.582031 L 188.375 51.921875 L 187.546875 51.921875 L 187.546875 46.351562 L 187.480469 46.351562 L 185.183594 51.921875 L 184.386719 51.921875 L 182.085938 46.351562 L 182.019531 46.351562 L 182.019531 51.921875 L 181.179688 51.921875 Z M 181.179688 44.582031 " fill-opacity="1" fill-rule="nonzero"/><path fill="#737373" d="M 192.765625 51.921875 L 192.765625 44.582031 L 197.199219 44.582031 L 197.199219 45.367188 L 193.660156 45.367188 L 193.660156 47.855469 L 196.96875 47.855469 L 196.96875 48.636719 L 193.660156 48.636719 L 193.660156 51.136719 L 197.253906 51.136719 L 197.253906 51.921875 Z M 192.765625 51.921875 " fill-opacity="1" fill-rule="nonzero"/><path fill="#737373" d="M 202.523438 51.921875 L 200.511719 44.582031 L 201.417969 44.582031 L 202.953125 50.5625 L 203.019531 50.5625 L 204.589844 44.582031 L 205.597656 44.582031 L 207.15625 50.5625 L 207.222656 50.5625 L 208.757812 44.582031 L 209.664062 44.582031 L 207.652344 51.921875 L 206.734375 51.921875 L 205.121094 46.074219 L 205.066406 46.074219 L 203.441406 51.921875 Z M 202.523438 51.921875 " fill-opacity="1" fill-rule="nonzero"/><path fill="#737373" d="M 219.347656 48.25 C 219.347656 49.027344 219.207031 49.695312 218.925781 50.265625 C 218.644531 50.824219 218.261719 51.257812 217.777344 51.570312 C 217.289062 51.871094 216.730469 52.023438 216.105469 52.023438 C 215.480469 52.023438 214.917969 51.871094 214.425781 51.570312 C 213.941406 51.257812 213.554688 50.824219 213.277344 50.265625 C 212.996094 49.695312 212.855469 49.027344 212.855469 48.25 C 212.855469 47.476562 212.996094 46.8125 213.277344 46.25 C 213.554688 45.683594 213.941406 45.25 214.425781 44.945312 C 214.917969 44.636719 215.480469 44.480469 216.105469 44.480469 C 216.730469 44.480469 217.289062 44.636719 217.777344 44.945312 C 218.261719 45.25 218.644531 45.683594 218.925781 46.25 C 219.207031 46.8125 219.347656 47.476562 219.347656 48.25 Z M 218.484375 48.25 C 218.484375 47.617188 218.375 47.085938 218.164062 46.648438 C 217.949219 46.207031 217.660156 45.875 217.300781 45.652344 C 216.945312 45.425781 216.550781 45.3125 216.105469 45.3125 C 215.65625 45.3125 215.25 45.425781 214.890625 45.652344 C 214.535156 45.875 214.253906 46.207031 214.039062 46.648438 C 213.824219 47.085938 213.71875 47.617188 213.71875 48.25 C 213.71875 48.886719 213.824219 49.421875 214.039062 49.867188 C 214.253906 50.300781 214.535156 50.632812 214.890625 50.859375 C 215.25 51.082031 215.65625 51.191406 216.105469 51.191406 C 216.550781 51.191406 216.945312 51.082031 217.300781 50.859375 C 217.660156 50.632812 217.949219 50.300781 218.164062 49.867188 C 218.375 49.421875 218.484375 48.886719 218.484375 48.25 Z M 218.484375 48.25 " fill-opacity="1" fill-rule="nonzero"/><path fill="#737373" d="M 223.210938 51.921875 L 223.210938 44.582031 L 225.699219 44.582031 C 226.273438 44.582031 226.742188 44.679688 227.101562 44.878906 C 227.46875 45.074219 227.742188 45.339844 227.921875 45.675781 C 228.097656 46.015625 228.1875 46.402344 228.1875 46.835938 C 228.1875 47.324219 228.074219 47.75 227.855469 48.109375 C 227.632812 48.46875 227.285156 48.734375 226.816406 48.894531 L 228.472656 51.921875 L 227.445312 51.921875 L 225.898438 49.046875 C 225.835938 49.054688 225.777344 49.058594 225.710938 49.058594 L 224.105469 49.058594 L 224.105469 51.921875 Z M 224.105469 48.25 L 225.675781 48.25 C 226.265625 48.25 226.683594 48.128906 226.9375 47.875 C 227.1875 47.617188 227.3125 47.273438 227.3125 46.835938 C 227.3125 46.394531 227.1875 46.039062 226.9375 45.773438 C 226.683594 45.503906 226.261719 45.367188 225.664062 45.367188 L 224.105469 45.367188 Z M 224.105469 48.25 " fill-opacity="1" fill-rule="nonzero"/><path fill="#737373" d="M 232.046875 51.921875 L 232.046875 44.582031 L 232.941406 44.582031 L 232.941406 48.21875 L 233.027344 48.21875 L 236.324219 44.582031 L 237.484375 44.582031 L 234.398438 47.898438 L 237.484375 51.921875 L 236.414062 51.921875 L 233.859375 48.507812 L 232.941406 49.546875 L 232.941406 51.921875 Z M 232.046875 51.921875 " fill-opacity="1" fill-rule="nonzero"/><path stroke-linecap="round" transform="matrix(0, 0.532268, -0.530676, 0, 128.966689, 11.300728)" fill="none" stroke-linejoin="miter" d="M 0.499144 0.496656 L 93.225806 0.496656 " stroke="#000000" stroke-width="1" stroke-opacity="1" stroke-miterlimit="4"/></svg>