<svg xmlns="http://www.w3.org/2000/svg" xmlns:xlink="http://www.w3.org/1999/xlink" width="1640" zoomAndPan="magnify" viewBox="0 0 1230 37.5" height="50" preserveAspectRatio="xMidYMid meet" version="1.0"><defs><clipPath id="fc4e64fb88"><path d="M 558.601562 8.417969 L 596.664062 8.417969 L 596.664062 27 L 558.601562 27 Z M 558.601562 8.417969 " clip-rule="nonzero"/></clipPath><clipPath id="3b3866693d"><path d="M 573.789062 5.171875 L 600.226562 5.171875 L 600.226562 31.609375 L 573.789062 31.609375 Z M 573.789062 5.171875 " clip-rule="nonzero"/></clipPath></defs><g clip-path="url(#fc4e64fb88)"><path fill="#ffffff" d="M 574.558594 24.808594 C 576.242188 24.039062 577.703125 23.191406 578.898438 22.40625 C 581.183594 20.90625 584.109375 18.113281 584.269531 17.890625 L 583.199219 17.175781 L 582.269531 16.550781 L 585.207031 16.4375 L 586.152344 16.398438 L 586.410156 15.488281 L 587.207031 12.652344 L 588.226562 15.417969 L 588.554688 16.304688 L 589.496094 16.269531 L 592.433594 16.152344 L 590.125 17.976562 L 589.382812 18.5625 L 589.710938 19.453125 L 590.726562 22.21875 L 588.28125 20.578125 L 587.496094 20.050781 L 586.753906 20.636719 L 584.445312 22.464844 L 584.84375 21.054688 L 585.242188 19.628906 L 585.292969 19.449219 C 582.484375 21.558594 578.550781 23.589844 576.195312 24.34375 C 575.65625 24.515625 575.113281 24.667969 574.558594 24.808594 Z M 569.03125 26.96875 C 573.195312 26.804688 578.164062 25.742188 583.046875 22.625 L 582.105469 25.96875 L 587.558594 21.664062 L 593.332031 25.53125 L 590.929688 19 L 596.382812 14.695312 L 589.445312 14.964844 L 587.042969 8.4375 L 585.15625 15.136719 L 578.21875 15.40625 L 582.238281 18.097656 C 579.59375 20.507812 572.960938 25.644531 564.179688 25.988281 C 562.402344 26.058594 560.539062 25.933594 558.601562 25.546875 C 558.601562 25.546875 562.972656 27.207031 569.03125 26.96875 " fill-opacity="1" fill-rule="nonzero"/></g><g clip-path="url(#3b3866693d)"><path fill="#ffffff" d="M 587.058594 5.195312 C 579.789062 5.195312 573.894531 11.105469 573.894531 18.390625 C 573.894531 19.769531 574.105469 21.101562 574.5 22.351562 C 575.070312 22.066406 575.617188 21.769531 576.136719 21.46875 C 575.863281 20.492188 575.71875 19.457031 575.71875 18.390625 C 575.71875 12.113281 580.796875 7.023438 587.058594 7.023438 C 593.324219 7.023438 598.402344 12.113281 598.402344 18.390625 C 598.402344 24.667969 593.324219 29.757812 587.058594 29.757812 C 583.664062 29.757812 580.613281 28.261719 578.535156 25.890625 C 577.929688 26.125 577.320312 26.339844 576.699219 26.535156 C 579.109375 29.609375 582.855469 31.585938 587.058594 31.585938 C 594.332031 31.585938 600.226562 25.675781 600.226562 18.390625 C 600.226562 11.105469 594.332031 5.195312 587.058594 5.195312 " fill-opacity="1" fill-rule="nonzero"/></g><path fill="#ffffff" d="M 567.855469 16.628906 L 568.582031 18.871094 L 570.933594 18.871094 L 569.03125 20.253906 L 569.757812 22.496094 L 567.855469 21.113281 L 565.953125 22.496094 L 566.679688 20.253906 L 564.777344 18.871094 L 567.128906 18.871094 L 567.855469 16.628906 " fill-opacity="1" fill-rule="nonzero"/><path fill="#ffffff" d="M 571.238281 9.242188 L 571.867188 11.175781 L 573.894531 11.175781 L 572.253906 12.371094 L 572.878906 14.304688 L 571.238281 13.109375 L 569.59375 14.304688 L 570.222656 12.371094 L 568.582031 11.175781 L 570.609375 11.175781 L 571.238281 9.242188 " fill-opacity="1" fill-rule="nonzero"/><path fill="#ffffff" d="M 560.875 21.019531 L 561.242188 22.148438 L 562.425781 22.148438 L 561.46875 22.84375 L 561.832031 23.972656 L 560.875 23.277344 L 559.917969 23.972656 L 560.28125 22.84375 L 559.324219 22.148438 L 560.507812 22.148438 L 560.875 21.019531 " fill-opacity="1" fill-rule="nonzero"/><path fill="#ffffff" d="M 613.152344 13.527344 C 613.121094 13.195312 612.980469 12.9375 612.726562 12.75 C 612.472656 12.5625 612.128906 12.46875 611.699219 12.46875 C 611.257812 12.46875 610.921875 12.558594 610.6875 12.742188 C 610.453125 12.921875 610.335938 13.148438 610.335938 13.421875 C 610.328125 13.726562 610.457031 13.957031 610.722656 14.113281 C 610.992188 14.269531 611.308594 14.390625 611.675781 14.476562 L 612.445312 14.660156 C 612.9375 14.773438 613.375 14.933594 613.757812 15.144531 C 614.144531 15.351562 614.445312 15.621094 614.664062 15.953125 C 614.882812 16.285156 614.992188 16.6875 614.992188 17.160156 C 614.992188 17.9375 614.703125 18.558594 614.121094 19.023438 C 613.539062 19.484375 612.726562 19.714844 611.6875 19.714844 C 610.65625 19.714844 609.832031 19.480469 609.214844 19.007812 C 608.601562 18.535156 608.285156 17.839844 608.261719 16.921875 L 610.007812 16.921875 C 610.035156 17.347656 610.199219 17.667969 610.503906 17.882812 C 610.8125 18.097656 611.203125 18.203125 611.671875 18.203125 C 612.128906 18.203125 612.492188 18.109375 612.765625 17.917969 C 613.039062 17.722656 613.175781 17.46875 613.175781 17.15625 C 613.175781 16.871094 613.050781 16.648438 612.800781 16.492188 C 612.550781 16.335938 612.195312 16.203125 611.734375 16.09375 L 610.804688 15.859375 C 610.089844 15.6875 609.523438 15.417969 609.105469 15.046875 C 608.691406 14.671875 608.484375 14.167969 608.488281 13.539062 C 608.484375 13.027344 608.621094 12.578125 608.898438 12.191406 C 609.179688 11.804688 609.5625 11.503906 610.046875 11.289062 C 610.535156 11.074219 611.089844 10.96875 611.710938 10.96875 C 612.34375 10.96875 612.898438 11.074219 613.371094 11.289062 C 613.84375 11.503906 614.210938 11.804688 614.472656 12.191406 C 614.734375 12.578125 614.867188 13.023438 614.875 13.527344 Z M 613.152344 13.527344 " fill-opacity="1" fill-rule="nonzero"/><path fill="#ffffff" d="M 616.730469 12.566406 L 616.730469 11.085938 L 623.71875 11.085938 L 623.71875 12.566406 L 621.113281 12.566406 L 621.113281 19.59375 L 619.335938 19.59375 L 619.335938 12.566406 Z M 616.730469 12.566406 " fill-opacity="1" fill-rule="nonzero"/><path fill="#ffffff" d="M 627.195312 19.59375 L 625.265625 19.59375 L 628.203125 11.085938 L 630.523438 11.085938 L 633.453125 19.59375 L 631.523438 19.59375 L 630.890625 17.652344 L 627.820312 17.652344 Z M 628.277344 16.246094 L 630.441406 16.246094 L 629.390625 13.03125 L 629.328125 13.03125 Z M 628.277344 16.246094 " fill-opacity="1" fill-rule="nonzero"/><path fill="#ffffff" d="M 635.328125 19.59375 L 635.328125 11.085938 L 638.683594 11.085938 C 639.652344 11.085938 640.402344 11.335938 640.933594 11.839844 C 641.46875 12.34375 641.738281 13.019531 641.738281 13.863281 C 641.738281 14.445312 641.605469 14.941406 641.34375 15.355469 C 641.085938 15.765625 640.714844 16.078125 640.230469 16.289062 L 642.042969 19.59375 L 640.054688 19.59375 L 638.4375 16.574219 L 637.125 16.574219 L 637.125 19.59375 Z M 637.125 15.128906 L 638.351562 15.128906 C 639.371094 15.128906 639.878906 14.707031 639.878906 13.863281 C 639.878906 12.992188 639.363281 12.554688 638.339844 12.554688 L 637.125 12.554688 Z M 637.125 15.128906 " fill-opacity="1" fill-rule="nonzero"/><path fill="#ffffff" d="M 643.855469 19.59375 L 643.855469 11.085938 L 645.65625 11.085938 L 645.65625 18.109375 L 649.304688 18.109375 L 649.304688 19.59375 Z M 643.855469 19.59375 " fill-opacity="1" fill-rule="nonzero"/><path fill="#ffffff" d="M 651.351562 11.085938 L 653.148438 11.085938 L 653.148438 19.59375 L 651.351562 19.59375 Z M 651.351562 11.085938 " fill-opacity="1" fill-rule="nonzero"/><path fill="#ffffff" d="M 655.164062 12.566406 L 655.164062 11.085938 L 662.152344 11.085938 L 662.152344 12.566406 L 659.546875 12.566406 L 659.546875 19.59375 L 657.769531 19.59375 L 657.769531 12.566406 Z M 655.164062 12.566406 " fill-opacity="1" fill-rule="nonzero"/><path fill="#ffffff" d="M 664.15625 19.59375 L 664.15625 11.085938 L 669.894531 11.085938 L 669.894531 12.566406 L 665.957031 12.566406 L 665.957031 14.59375 L 669.601562 14.59375 L 669.601562 16.078125 L 665.957031 16.078125 L 665.957031 18.109375 L 669.910156 18.109375 L 669.910156 19.59375 Z M 664.15625 19.59375 " fill-opacity="1" fill-rule="nonzero"/><path fill="#ffffff" d="M 617.453125 27.167969 L 617.453125 23.277344 L 619.792969 23.277344 L 619.792969 23.695312 L 617.929688 23.695312 L 617.929688 25.011719 L 619.617188 25.011719 L 619.617188 25.429688 L 617.929688 25.429688 L 617.929688 27.167969 Z M 617.453125 27.167969 " fill-opacity="1" fill-rule="nonzero"/><path fill="#ffffff" d="M 621.855469 27.167969 L 621.855469 23.277344 L 623.175781 23.277344 C 623.480469 23.277344 623.726562 23.332031 623.917969 23.4375 C 624.113281 23.539062 624.257812 23.679688 624.351562 23.859375 C 624.445312 24.039062 624.492188 24.242188 624.492188 24.472656 C 624.492188 24.730469 624.433594 24.957031 624.316406 25.148438 C 624.199219 25.339844 624.015625 25.476562 623.765625 25.5625 L 624.644531 27.167969 L 624.101562 27.167969 L 623.28125 25.644531 C 623.246094 25.648438 623.214844 25.652344 623.179688 25.652344 L 622.332031 25.652344 L 622.332031 27.167969 Z M 622.332031 25.222656 L 623.164062 25.222656 C 623.472656 25.222656 623.695312 25.15625 623.832031 25.023438 C 623.960938 24.886719 624.03125 24.703125 624.03125 24.472656 C 624.03125 24.238281 623.960938 24.050781 623.832031 23.910156 C 623.695312 23.765625 623.472656 23.695312 623.15625 23.695312 L 622.332031 23.695312 Z M 622.332031 25.222656 " fill-opacity="1" fill-rule="nonzero"/><path fill="#ffffff" d="M 626.703125 27.167969 L 626.203125 27.167969 L 627.632812 23.277344 L 628.121094 23.277344 L 629.550781 27.167969 L 629.058594 27.167969 L 628.664062 26.066406 L 627.089844 26.066406 Z M 627.242188 25.652344 L 628.519531 25.652344 L 627.890625 23.894531 L 627.863281 23.894531 Z M 627.242188 25.652344 " fill-opacity="1" fill-rule="nonzero"/><path fill="#ffffff" d="M 631.417969 23.277344 L 631.980469 23.277344 L 633.304688 26.507812 L 633.351562 26.507812 L 634.667969 23.277344 L 635.230469 23.277344 L 635.230469 27.167969 L 634.792969 27.167969 L 634.792969 24.214844 L 634.757812 24.214844 L 633.539062 27.167969 L 633.117188 27.167969 L 631.898438 24.214844 L 631.863281 24.214844 L 631.863281 27.167969 L 631.417969 27.167969 Z M 631.417969 23.277344 " fill-opacity="1" fill-rule="nonzero"/><path fill="#ffffff" d="M 637.558594 27.167969 L 637.558594 23.277344 L 639.90625 23.277344 L 639.90625 23.695312 L 638.03125 23.695312 L 638.03125 25.011719 L 639.785156 25.011719 L 639.785156 25.429688 L 638.03125 25.429688 L 638.03125 26.753906 L 639.9375 26.753906 L 639.9375 27.167969 Z M 637.558594 27.167969 " fill-opacity="1" fill-rule="nonzero"/><path fill="#ffffff" d="M 642.730469 27.167969 L 641.664062 23.277344 L 642.144531 23.277344 L 642.957031 26.449219 L 642.992188 26.449219 L 643.824219 23.277344 L 644.359375 23.277344 L 645.183594 26.449219 L 645.21875 26.449219 L 646.035156 23.277344 L 646.515625 23.277344 L 645.449219 27.167969 L 644.960938 27.167969 L 644.105469 24.070312 L 644.078125 24.070312 L 643.214844 27.167969 Z M 642.730469 27.167969 " fill-opacity="1" fill-rule="nonzero"/><path fill="#ffffff" d="M 651.644531 25.222656 C 651.644531 25.632812 651.570312 25.988281 651.421875 26.289062 C 651.273438 26.585938 651.070312 26.816406 650.8125 26.980469 C 650.554688 27.140625 650.257812 27.222656 649.929688 27.222656 C 649.597656 27.222656 649.296875 27.140625 649.039062 26.980469 C 648.78125 26.816406 648.578125 26.585938 648.429688 26.289062 C 648.277344 25.988281 648.207031 25.632812 648.207031 25.222656 C 648.207031 24.8125 648.277344 24.460938 648.429688 24.164062 C 648.578125 23.863281 648.78125 23.632812 649.039062 23.472656 C 649.296875 23.308594 649.597656 23.226562 649.929688 23.226562 C 650.257812 23.226562 650.554688 23.308594 650.8125 23.472656 C 651.070312 23.632812 651.273438 23.863281 651.421875 24.164062 C 651.570312 24.460938 651.644531 24.8125 651.644531 25.222656 Z M 651.1875 25.222656 C 651.1875 24.886719 651.132812 24.605469 651.019531 24.375 C 650.902344 24.140625 650.75 23.964844 650.5625 23.847656 C 650.375 23.726562 650.164062 23.664062 649.929688 23.664062 C 649.691406 23.664062 649.472656 23.726562 649.285156 23.847656 C 649.097656 23.964844 648.945312 24.140625 648.832031 24.375 C 648.71875 24.605469 648.664062 24.886719 648.664062 25.222656 C 648.664062 25.558594 648.71875 25.84375 648.832031 26.078125 C 648.945312 26.308594 649.097656 26.484375 649.285156 26.605469 C 649.472656 26.722656 649.691406 26.78125 649.929688 26.78125 C 650.164062 26.78125 650.375 26.722656 650.5625 26.605469 C 650.75 26.484375 650.902344 26.308594 651.019531 26.078125 C 651.132812 25.84375 651.1875 25.558594 651.1875 25.222656 Z M 651.1875 25.222656 " fill-opacity="1" fill-rule="nonzero"/><path fill="#ffffff" d="M 653.695312 27.167969 L 653.695312 23.277344 L 655.011719 23.277344 C 655.316406 23.277344 655.566406 23.332031 655.757812 23.4375 C 655.953125 23.539062 656.097656 23.679688 656.191406 23.859375 C 656.285156 24.039062 656.332031 24.242188 656.332031 24.472656 C 656.332031 24.730469 656.273438 24.957031 656.15625 25.148438 C 656.039062 25.339844 655.851562 25.476562 655.605469 25.5625 L 656.484375 27.167969 L 655.9375 27.167969 L 655.117188 25.644531 C 655.085938 25.648438 655.054688 25.652344 655.019531 25.652344 L 654.167969 25.652344 L 654.167969 27.167969 Z M 654.167969 25.222656 L 655 25.222656 C 655.3125 25.222656 655.535156 25.15625 655.667969 25.023438 C 655.800781 24.886719 655.867188 24.703125 655.867188 24.472656 C 655.867188 24.238281 655.800781 24.050781 655.667969 23.910156 C 655.535156 23.765625 655.3125 23.695312 654.996094 23.695312 L 654.167969 23.695312 Z M 654.167969 25.222656 " fill-opacity="1" fill-rule="nonzero"/><path fill="#ffffff" d="M 658.375 27.167969 L 658.375 23.277344 L 658.851562 23.277344 L 658.851562 25.207031 L 658.898438 25.207031 L 660.644531 23.277344 L 661.257812 23.277344 L 659.625 25.035156 L 661.257812 27.167969 L 660.691406 27.167969 L 659.335938 25.359375 L 658.851562 25.910156 L 658.851562 27.167969 Z M 658.375 27.167969 " fill-opacity="1" fill-rule="nonzero"/><path stroke-linecap="round" transform="matrix(0, 0.282094, -0.28125, 0, 603.745759, 5.173416)" fill="none" stroke-linejoin="miter" d="M 0.506891 0.498811 L 93.228742 0.498811 " stroke="#edb641" stroke-width="1" stroke-opacity="1" stroke-miterlimit="4"/></svg>