<svg xmlns="http://www.w3.org/2000/svg" xmlns:xlink="http://www.w3.org/1999/xlink" width="1640" zoomAndPan="magnify" viewBox="0 0 1230 37.5" height="50" preserveAspectRatio="xMidYMid meet" version="1.0"><defs><clipPath id="c8ea333b81"><path d="M 558.9375 8.511719 L 596.800781 8.511719 L 596.800781 27 L 558.9375 27 Z M 558.9375 8.511719 " clip-rule="nonzero"/></clipPath><clipPath id="c32d7d129f"><path d="M 574.046875 5.285156 L 600.34375 5.285156 L 600.34375 31.582031 L 574.046875 31.582031 Z M 574.046875 5.285156 " clip-rule="nonzero"/></clipPath></defs><g clip-path="url(#c8ea333b81)"><path fill="#edb641" d="M 574.8125 24.816406 C 576.484375 24.050781 577.9375 23.207031 579.128906 22.425781 C 581.402344 20.933594 584.3125 18.15625 584.472656 17.9375 L 583.40625 17.222656 L 582.484375 16.601562 L 585.40625 16.488281 L 586.34375 16.453125 L 586.601562 15.542969 L 587.394531 12.722656 L 588.410156 15.476562 L 588.734375 16.359375 L 589.671875 16.320312 L 592.59375 16.207031 L 590.296875 18.019531 L 589.558594 18.605469 L 589.882812 19.488281 L 590.894531 22.238281 L 588.464844 20.609375 L 587.683594 20.085938 L 586.945312 20.667969 L 584.648438 22.484375 L 585.042969 21.082031 L 585.441406 19.664062 L 585.492188 19.488281 C 582.695312 21.585938 578.78125 23.605469 576.441406 24.351562 C 575.90625 24.523438 575.363281 24.679688 574.8125 24.816406 Z M 569.3125 26.964844 C 573.457031 26.800781 578.398438 25.746094 583.257812 22.644531 L 582.320312 25.96875 L 587.746094 21.6875 L 593.488281 25.535156 L 591.097656 19.039062 L 596.523438 14.753906 L 589.621094 15.027344 L 587.230469 8.53125 L 585.355469 15.195312 L 578.453125 15.464844 L 582.449219 18.140625 C 579.820312 20.535156 573.226562 25.648438 564.488281 25.992188 C 562.71875 26.058594 560.867188 25.933594 558.9375 25.550781 C 558.9375 25.550781 563.289062 27.199219 569.3125 26.964844 " fill-opacity="1" fill-rule="nonzero"/></g><g clip-path="url(#c32d7d129f)"><path fill="#edb641" d="M 587.25 5.308594 C 580.015625 5.308594 574.152344 11.183594 574.152344 18.433594 C 574.152344 19.804688 574.363281 21.128906 574.753906 22.371094 C 575.320312 22.085938 575.867188 21.792969 576.382812 21.496094 C 576.113281 20.519531 575.964844 19.492188 575.964844 18.433594 C 575.964844 12.1875 581.019531 7.125 587.25 7.125 C 593.480469 7.125 598.53125 12.1875 598.53125 18.433594 C 598.53125 24.679688 593.480469 29.742188 587.25 29.742188 C 583.871094 29.742188 580.835938 28.25 578.769531 25.890625 C 578.167969 26.125 577.558594 26.339844 576.941406 26.53125 C 579.339844 29.589844 583.066406 31.558594 587.25 31.558594 C 594.480469 31.558594 600.34375 25.679688 600.34375 18.433594 C 600.34375 11.183594 594.480469 5.308594 587.25 5.308594 " fill-opacity="1" fill-rule="nonzero"/></g><path fill="#edb641" d="M 568.144531 16.679688 L 568.867188 18.910156 L 571.207031 18.910156 L 569.3125 20.285156 L 570.035156 22.515625 L 568.144531 21.140625 L 566.25 22.515625 L 566.972656 20.285156 L 565.082031 18.910156 L 567.421875 18.910156 L 568.144531 16.679688 " fill-opacity="1" fill-rule="nonzero"/><path fill="#edb641" d="M 571.511719 9.332031 L 572.132812 11.257812 L 574.152344 11.257812 L 572.519531 12.445312 L 573.140625 14.367188 L 571.511719 13.179688 L 569.875 14.367188 L 570.5 12.445312 L 568.867188 11.257812 L 570.886719 11.257812 L 571.511719 9.332031 " fill-opacity="1" fill-rule="nonzero"/><path fill="#edb641" d="M 561.199219 21.046875 L 561.566406 22.167969 L 562.742188 22.167969 L 561.789062 22.863281 L 562.152344 23.984375 L 561.199219 23.292969 L 560.246094 23.984375 L 560.613281 22.863281 L 559.660156 22.167969 L 560.835938 22.167969 L 561.199219 21.046875 " fill-opacity="1" fill-rule="nonzero"/><path fill="#202235" d="M 613.210938 13.4375 C 613.175781 13.105469 613.03125 12.847656 612.78125 12.664062 C 612.527344 12.476562 612.1875 12.382812 611.765625 12.382812 C 611.328125 12.382812 610.988281 12.472656 610.753906 12.652344 C 610.519531 12.832031 610.402344 13.054688 610.402344 13.328125 C 610.398438 13.628906 610.527344 13.859375 610.792969 14.015625 C 611.0625 14.171875 611.378906 14.292969 611.742188 14.375 L 612.5 14.5625 C 612.992188 14.671875 613.429688 14.832031 613.8125 15.039062 C 614.191406 15.25 614.492188 15.523438 614.710938 15.851562 C 614.929688 16.175781 615.042969 16.578125 615.042969 17.046875 C 615.039062 17.824219 614.746094 18.441406 614.167969 18.898438 C 613.59375 19.359375 612.789062 19.585938 611.753906 19.585938 C 610.730469 19.585938 609.910156 19.355469 609.296875 18.886719 C 608.683594 18.417969 608.367188 17.726562 608.34375 16.808594 L 610.078125 16.808594 C 610.105469 17.230469 610.273438 17.550781 610.578125 17.761719 C 610.882812 17.976562 611.269531 18.082031 611.738281 18.082031 C 612.191406 18.082031 612.554688 17.988281 612.820312 17.796875 C 613.09375 17.605469 613.230469 17.351562 613.234375 17.046875 C 613.230469 16.757812 613.105469 16.539062 612.855469 16.386719 C 612.613281 16.234375 612.257812 16.097656 611.796875 15.984375 L 610.875 15.753906 C 610.164062 15.585938 609.601562 15.316406 609.183594 14.941406 C 608.773438 14.570312 608.566406 14.070312 608.574219 13.449219 C 608.566406 12.9375 608.703125 12.488281 608.980469 12.101562 C 609.257812 11.71875 609.636719 11.421875 610.121094 11.210938 C 610.609375 11 611.160156 10.890625 611.777344 10.890625 C 612.402344 10.890625 612.953125 11 613.421875 11.210938 C 613.890625 11.425781 614.257812 11.722656 614.519531 12.109375 C 614.78125 12.492188 614.917969 12.933594 614.925781 13.4375 Z M 613.210938 13.4375 " fill-opacity="1" fill-rule="nonzero"/><path fill="#202235" d="M 616.765625 12.476562 L 616.765625 11 L 623.714844 11 L 623.714844 12.476562 L 621.125 12.476562 L 621.125 19.464844 L 619.351562 19.464844 L 619.351562 12.476562 Z M 616.765625 12.476562 " fill-opacity="1" fill-rule="nonzero"/><path fill="#202235" d="M 627.167969 19.464844 L 625.25 19.464844 L 628.175781 11 L 630.480469 11 L 633.398438 19.464844 L 631.480469 19.464844 L 630.851562 17.535156 L 627.796875 17.535156 Z M 628.253906 16.136719 L 630.402344 16.136719 L 629.359375 12.9375 L 629.296875 12.9375 Z M 628.253906 16.136719 " fill-opacity="1" fill-rule="nonzero"/><path fill="#202235" d="M 635.261719 19.464844 L 635.261719 11 L 638.601562 11 C 639.558594 11 640.304688 11.253906 640.832031 11.753906 C 641.363281 12.253906 641.632812 12.929688 641.632812 13.769531 C 641.632812 14.347656 641.503906 14.839844 641.246094 15.25 C 640.988281 15.664062 640.621094 15.972656 640.140625 16.175781 L 641.933594 19.464844 L 639.957031 19.464844 L 638.355469 16.464844 L 637.050781 16.464844 L 637.050781 19.464844 Z M 637.050781 15.03125 L 638.261719 15.03125 C 639.28125 15.03125 639.789062 14.609375 639.789062 13.769531 C 639.789062 12.902344 639.277344 12.464844 638.257812 12.464844 L 637.050781 12.464844 Z M 637.050781 15.03125 " fill-opacity="1" fill-rule="nonzero"/><path fill="#202235" d="M 643.746094 19.464844 L 643.746094 11 L 645.535156 11 L 645.535156 17.988281 L 649.160156 17.988281 L 649.160156 19.464844 Z M 643.746094 19.464844 " fill-opacity="1" fill-rule="nonzero"/><path fill="#202235" d="M 651.195312 11 L 652.984375 11 L 652.984375 19.464844 L 651.195312 19.464844 Z M 651.195312 11 " fill-opacity="1" fill-rule="nonzero"/><path fill="#202235" d="M 654.988281 12.476562 L 654.988281 11 L 661.9375 11 L 661.9375 12.476562 L 659.347656 12.476562 L 659.347656 19.464844 L 657.578125 19.464844 L 657.578125 12.476562 Z M 654.988281 12.476562 " fill-opacity="1" fill-rule="nonzero"/><path fill="#202235" d="M 663.933594 19.464844 L 663.933594 11 L 669.632812 11 L 669.632812 12.476562 L 665.722656 12.476562 L 665.722656 14.492188 L 669.34375 14.492188 L 669.34375 15.96875 L 665.722656 15.96875 L 665.722656 17.988281 L 669.652344 17.988281 L 669.652344 19.464844 Z M 663.933594 19.464844 " fill-opacity="1" fill-rule="nonzero"/><path fill="#737373" d="M 617.484375 26.699219 L 617.484375 22.828125 L 619.808594 22.828125 L 619.808594 23.242188 L 617.957031 23.242188 L 617.957031 24.554688 L 619.632812 24.554688 L 619.632812 24.96875 L 617.957031 24.96875 L 617.957031 26.699219 Z M 617.484375 26.699219 " fill-opacity="1" fill-rule="nonzero"/><path fill="#737373" d="M 621.859375 26.699219 L 621.859375 22.828125 L 623.171875 22.828125 C 623.476562 22.828125 623.722656 22.882812 623.914062 22.988281 C 624.105469 23.089844 624.25 23.230469 624.34375 23.40625 C 624.4375 23.585938 624.484375 23.789062 624.484375 24.019531 C 624.484375 24.277344 624.425781 24.5 624.308594 24.6875 C 624.191406 24.878906 624.007812 25.019531 623.761719 25.101562 L 624.636719 26.699219 L 624.09375 26.699219 L 623.277344 25.183594 C 623.246094 25.1875 623.214844 25.191406 623.179688 25.191406 L 622.332031 25.191406 L 622.332031 26.699219 Z M 622.332031 24.765625 L 623.160156 24.765625 C 623.472656 24.765625 623.691406 24.699219 623.824219 24.566406 C 623.957031 24.429688 624.023438 24.25 624.023438 24.019531 C 624.023438 23.785156 623.957031 23.597656 623.824219 23.460938 C 623.691406 23.316406 623.46875 23.242188 623.15625 23.242188 L 622.332031 23.242188 Z M 622.332031 24.765625 " fill-opacity="1" fill-rule="nonzero"/><path fill="#737373" d="M 626.683594 26.699219 L 626.1875 26.699219 L 627.609375 22.828125 L 628.09375 22.828125 L 629.515625 26.699219 L 629.023438 26.699219 L 628.632812 25.605469 L 627.066406 25.605469 Z M 627.21875 25.191406 L 628.488281 25.191406 L 627.863281 23.441406 L 627.835938 23.441406 Z M 627.21875 25.191406 " fill-opacity="1" fill-rule="nonzero"/><path fill="#737373" d="M 631.371094 22.828125 L 631.933594 22.828125 L 633.25 26.042969 L 633.296875 26.042969 L 634.605469 22.828125 L 635.167969 22.828125 L 635.167969 26.699219 L 634.730469 26.699219 L 634.730469 23.761719 L 634.695312 23.761719 L 633.480469 26.699219 L 633.0625 26.699219 L 631.851562 23.761719 L 631.816406 23.761719 L 631.816406 26.699219 L 631.371094 26.699219 Z M 631.371094 22.828125 " fill-opacity="1" fill-rule="nonzero"/><path fill="#737373" d="M 637.480469 26.699219 L 637.480469 22.828125 L 639.816406 22.828125 L 639.816406 23.242188 L 637.953125 23.242188 L 637.953125 24.554688 L 639.695312 24.554688 L 639.695312 24.96875 L 637.953125 24.96875 L 637.953125 26.285156 L 639.847656 26.285156 L 639.847656 26.699219 Z M 637.480469 26.699219 " fill-opacity="1" fill-rule="nonzero"/><path fill="#737373" d="M 642.625 26.699219 L 641.5625 22.828125 L 642.042969 22.828125 L 642.851562 25.984375 L 642.886719 25.984375 L 643.714844 22.828125 L 644.246094 22.828125 L 645.066406 25.984375 L 645.101562 25.984375 L 645.910156 22.828125 L 646.390625 22.828125 L 645.328125 26.699219 L 644.84375 26.699219 L 643.992188 23.617188 L 643.964844 23.617188 L 643.109375 26.699219 Z M 642.625 26.699219 " fill-opacity="1" fill-rule="nonzero"/><path fill="#737373" d="M 651.492188 24.765625 C 651.492188 25.171875 651.417969 25.527344 651.273438 25.824219 C 651.125 26.121094 650.921875 26.351562 650.664062 26.511719 C 650.410156 26.675781 650.113281 26.753906 649.785156 26.753906 C 649.453125 26.753906 649.160156 26.675781 648.898438 26.511719 C 648.644531 26.351562 648.441406 26.121094 648.292969 25.824219 C 648.144531 25.527344 648.070312 25.171875 648.070312 24.765625 C 648.070312 24.355469 648.144531 24.003906 648.292969 23.710938 C 648.441406 23.410156 648.644531 23.183594 648.898438 23.023438 C 649.160156 22.859375 649.453125 22.777344 649.785156 22.777344 C 650.113281 22.777344 650.410156 22.859375 650.664062 23.023438 C 650.921875 23.183594 651.125 23.410156 651.273438 23.710938 C 651.417969 24.003906 651.492188 24.355469 651.492188 24.765625 Z M 651.039062 24.765625 C 651.039062 24.429688 650.980469 24.148438 650.871094 23.917969 C 650.757812 23.6875 650.605469 23.511719 650.414062 23.394531 C 650.230469 23.277344 650.019531 23.214844 649.785156 23.214844 C 649.546875 23.214844 649.335938 23.277344 649.144531 23.394531 C 648.957031 23.511719 648.808594 23.6875 648.695312 23.917969 C 648.582031 24.148438 648.527344 24.429688 648.527344 24.765625 C 648.527344 25.101562 648.582031 25.382812 648.695312 25.617188 C 648.808594 25.847656 648.957031 26.019531 649.144531 26.140625 C 649.335938 26.257812 649.546875 26.316406 649.785156 26.316406 C 650.019531 26.316406 650.230469 26.257812 650.414062 26.140625 C 650.605469 26.019531 650.757812 25.847656 650.871094 25.617188 C 650.980469 25.382812 651.039062 25.101562 651.039062 24.765625 Z M 651.039062 24.765625 " fill-opacity="1" fill-rule="nonzero"/><path fill="#737373" d="M 653.53125 26.699219 L 653.53125 22.828125 L 654.84375 22.828125 C 655.144531 22.828125 655.390625 22.882812 655.582031 22.988281 C 655.777344 23.089844 655.921875 23.230469 656.015625 23.40625 C 656.109375 23.585938 656.152344 23.789062 656.152344 24.019531 C 656.152344 24.277344 656.097656 24.5 655.980469 24.6875 C 655.863281 24.878906 655.679688 25.019531 655.429688 25.101562 L 656.304688 26.699219 L 655.761719 26.699219 L 654.949219 25.183594 C 654.914062 25.1875 654.882812 25.191406 654.847656 25.191406 L 654.003906 25.191406 L 654.003906 26.699219 Z M 654.003906 24.765625 L 654.832031 24.765625 C 655.140625 24.765625 655.363281 24.699219 655.496094 24.566406 C 655.625 24.429688 655.695312 24.25 655.695312 24.019531 C 655.695312 23.785156 655.625 23.597656 655.496094 23.460938 C 655.363281 23.316406 655.140625 23.242188 654.824219 23.242188 L 654.003906 23.242188 Z M 654.003906 24.765625 " fill-opacity="1" fill-rule="nonzero"/><path fill="#737373" d="M 658.1875 26.699219 L 658.1875 22.828125 L 658.660156 22.828125 L 658.660156 24.746094 L 658.707031 24.746094 L 660.445312 22.828125 L 661.054688 22.828125 L 659.429688 24.578125 L 661.054688 26.699219 L 660.492188 26.699219 L 659.144531 24.898438 L 658.660156 25.445312 L 658.660156 26.699219 Z M 658.1875 26.699219 " fill-opacity="1" fill-rule="nonzero"/><path stroke-linecap="round" transform="matrix(0, 0.280609, -0.27977, 0, 603.846015, 5.28463)" fill="none" stroke-linejoin="miter" d="M 0.503016 0.496778 L 93.228228 0.496778 " stroke="#000000" stroke-width="1" stroke-opacity="1" stroke-miterlimit="4"/></svg>