<svg xmlns="http://www.w3.org/2000/svg" viewBox="0 0 48 48"><defs><style>.cls-1{fill:#1d2433;}.cls-2{fill:#ffd580;}</style></defs><g id="favicon"><rect id="bg" class="cls-1" width="48" height="48"/><path id="star" class="cls-2" d="M46.43,24.48,28.18,21.05l12.1-7.62a.1.1,0,0,0-.09-.18L25.63,17.9l5-16.56c0-.09-.11-.15-.16-.06L22.63,14.92l-4-12.43a.1.1,0,0,0-.19,0L19,18.75,3.59,9.22c-.08-.06-.17.06-.1.13L14,19.62,1.6,19.76a.1.1,0,0,0,0,.2L16,23.43,2.7,37.22c-.07.07,0,.18.11.13l13.84-9.7-4,13.57a.1.1,0,0,0,.18.07l7.86-14.1,8.33,19.52a.08.08,0,0,0,.16-.05L24.67,27.29,36.42,37.2a.1.1,0,0,0,.15-.14L27,25.29l19.46-.65A.08.08,0,0,0,46.43,24.48Z"/></g></svg>
