<svg xmlns="http://www.w3.org/2000/svg" viewBox="0 0 476 476"><defs><style>.cls-1{fill:#ffae57;}.cls-2{fill:#ffd580;}.cls-3{fill:#d6dbe1;}.cls-4{fill:#fff;}</style></defs><g id="icon"><g id="star"><path id="dark1" class="cls-1" d="M180.87,18.9l52.19,162.21a1,1,0,0,0,1.3.67l166.39-53.16a1,1,0,0,1,.87,1.87l-153.88,97a1.05,1.05,0,0,0-.25,1.54L363.78,371.51A1,1,0,0,1,362.3,373L215.64,249.34a1,1,0,0,0-1.58.28l-92,165.09a1,1,0,0,1-1.9-.79L171.64,238a1,1,0,0,0-.75-1.3L6.9,197.1a1,1,0,0,1,.23-2l176.71-1.94a1.05,1.05,0,0,0,1-1.08l-6-172.77A1,1,0,0,1,180.87,18.9Z"/><path id="light1" class="cls-2" d="M187.53,60.93l40.6,126.21a.63.63,0,0,0,.79.41l129.54-41.39a.63.63,0,0,1,.53,1.14L239.23,222.81a.63.63,0,0,0-.16.93L329.87,335a.63.63,0,0,1-.9.88L214.51,239.39a.63.63,0,0,0-1,.17l-71.64,128.6a.63.63,0,0,1-1.16-.48l40.08-137.07a.62.62,0,0,0-.46-.79L52.62,199a.63.63,0,0,1,.14-1.24l137.59-1.52a.62.62,0,0,0,.62-.65L186.29,61.15A.64.64,0,0,1,187.53,60.93Z"/><path id="dark2" class="cls-1" d="M302.89,7.23,244.76,201a.87.87,0,0,0,.66,1.09l219,41.08a.85.85,0,0,1-.13,1.69l-225.4,7.52a.85.85,0,0,0-.8,1.05l50.8,216a.86.86,0,0,1-1.62.53L194.66,253a.86.86,0,0,0-1.28-.36L19.49,374.44a.85.85,0,0,1-1.1-1.29l144-149.82a.86.86,0,0,0,0-1.2L26.39,88.84a.85.85,0,0,1,1.05-1.33L194.67,191a.85.85,0,0,0,1.19-.3L301.33,6.56A.85.85,0,0,1,302.89,7.23Z"/><path id="light2" class="cls-2" d="M280.33,70.63,240.17,204.5a1,1,0,0,0,.8,1.32L392.5,234.24a1,1,0,0,1-.16,2l-156,5.21a1,1,0,0,0-1,1.27l34.9,148.38a1,1,0,0,1-2,.64L204.59,242.44A1,1,0,0,0,203,242L83.34,325.85A1,1,0,0,1,82,324.28l99.13-103.14a1,1,0,0,0,0-1.45L87.4,127.84a1,1,0,0,1,1.27-1.62L204,197.61a1,1,0,0,0,1.45-.36l73-127.43A1,1,0,0,1,280.33,70.63Z"/><path id="silver" class="cls-3" d="M198.31,142.43l19.83,61.64a.1.1,0,0,0,.13.07l63.35-20.24a.1.1,0,0,1,.09.18L223.18,221a.1.1,0,0,0,0,.15l44.73,54.79a.1.1,0,0,1-.15.14L211.41,228.6a.1.1,0,0,0-.15,0l-35.09,63a.1.1,0,0,1-.18-.08l19.64-67.16a.12.12,0,0,0-.08-.13L133,209.14a.1.1,0,0,1,0-.2l67.31-.74c.06,0,.11,0,.1-.1l-2.28-65.63A.1.1,0,0,1,198.31,142.43Z"/><path id="white" class="cls-4" d="M243.64,146.06l-19.91,66.39a.21.21,0,0,0,.16.27l75,14.06a.21.21,0,0,1,0,.42l-77.18,2.58a.2.2,0,0,0-.2.25l17.45,74.17a.21.21,0,0,1-.4.13l-31.77-74.44a.21.21,0,0,0-.31-.09l-59.66,41.79a.21.21,0,0,1-.27-.32l49.41-51.4a.21.21,0,0,0,0-.29l-46.63-45.71a.21.21,0,0,1,.25-.33L206.85,209a.22.22,0,0,0,.3-.08l36.11-63A.21.21,0,0,1,243.64,146.06Z"/></g></g></svg>
