<svg xmlns="http://www.w3.org/2000/svg" xmlns:xlink="http://www.w3.org/1999/xlink" width="400" zoomAndPan="magnify" viewBox="0 0 300 72.749999" height="97" preserveAspectRatio="xMidYMid meet" version="1.0"><defs><clipPath id="9f09dc75c1"><path d="M 43.789062 17.425781 L 115.609375 17.425781 L 115.609375 52.804688 L 43.789062 52.804688 Z M 43.789062 17.425781 " clip-rule="nonzero"/></clipPath><clipPath id="43d1889212"><path d="M 72.445312 11.304688 L 122.332031 11.304688 L 122.332031 61.1875 L 72.445312 61.1875 Z M 72.445312 11.304688 " clip-rule="nonzero"/></clipPath></defs><g clip-path="url(#9f09dc75c1)"><path fill="#edb641" d="M 73.898438 48.351562 C 77.074219 46.898438 79.828125 45.300781 82.085938 43.820312 C 86.402344 40.988281 91.921875 35.722656 92.222656 35.300781 L 90.203125 33.949219 L 88.449219 32.773438 L 93.996094 32.558594 L 95.773438 32.484375 L 96.261719 30.765625 L 97.765625 25.414062 L 99.6875 30.632812 L 100.304688 32.308594 L 102.085938 32.238281 L 107.628906 32.019531 L 103.269531 35.460938 L 101.871094 36.570312 L 102.488281 38.246094 L 104.40625 43.464844 L 99.792969 40.375 L 98.3125 39.378906 L 96.914062 40.484375 L 92.554688 43.929688 L 93.304688 41.265625 L 94.058594 38.578125 L 94.15625 38.242188 C 88.851562 42.222656 81.429688 46.058594 76.992188 47.476562 C 75.972656 47.800781 74.941406 48.089844 73.898438 48.351562 Z M 63.464844 52.425781 C 71.328125 52.117188 80.699219 50.117188 89.917969 44.234375 L 88.140625 50.542969 L 98.429688 42.417969 L 109.320312 49.714844 L 104.789062 37.394531 L 115.078125 29.269531 L 101.988281 29.78125 L 97.457031 17.464844 L 93.898438 30.101562 L 80.808594 30.613281 L 88.386719 35.6875 C 83.398438 40.234375 70.886719 49.933594 54.3125 50.582031 C 50.960938 50.710938 47.445312 50.472656 43.789062 49.746094 C 43.789062 49.746094 52.039062 52.875 63.464844 52.425781 " fill-opacity="1" fill-rule="nonzero"/></g><g clip-path="url(#43d1889212)"><path fill="#edb641" d="M 97.488281 11.347656 C 83.769531 11.347656 72.644531 22.496094 72.644531 36.246094 C 72.644531 38.847656 73.046875 41.359375 73.785156 43.714844 C 74.863281 43.175781 75.898438 42.617188 76.878906 42.050781 C 76.363281 40.207031 76.085938 38.257812 76.085938 36.246094 C 76.085938 24.398438 85.667969 14.792969 97.488281 14.792969 C 109.308594 14.792969 118.890625 24.398438 118.890625 36.246094 C 118.890625 48.089844 109.308594 57.691406 97.488281 57.691406 C 91.078125 57.691406 85.328125 54.867188 81.40625 50.394531 C 80.261719 50.839844 79.109375 51.242188 77.9375 51.609375 C 82.488281 57.410156 89.550781 61.140625 97.488281 61.140625 C 111.207031 61.140625 122.332031 49.992188 122.332031 36.246094 C 122.332031 22.496094 111.207031 11.347656 97.488281 11.347656 " fill-opacity="1" fill-rule="nonzero"/></g><path fill="#edb641" d="M 61.25 32.917969 L 62.621094 37.148438 L 67.058594 37.148438 L 63.464844 39.761719 L 64.835938 43.988281 L 61.25 41.378906 L 57.660156 43.988281 L 59.03125 39.761719 L 55.441406 37.148438 L 59.878906 37.148438 L 61.25 32.917969 " fill-opacity="1" fill-rule="nonzero"/><path fill="#edb641" d="M 67.632812 18.980469 L 68.816406 22.632812 L 72.644531 22.632812 L 69.546875 24.886719 L 70.730469 28.535156 L 67.632812 26.28125 L 64.535156 28.535156 L 65.71875 24.886719 L 62.621094 22.632812 L 66.449219 22.632812 L 67.632812 18.980469 " fill-opacity="1" fill-rule="nonzero"/><path fill="#edb641" d="M 48.078125 41.199219 L 48.769531 43.332031 L 51.007812 43.332031 L 49.199219 44.648438 L 49.886719 46.777344 L 48.078125 45.460938 L 46.273438 46.777344 L 46.964844 44.648438 L 45.15625 43.332031 L 47.386719 43.332031 L 48.078125 41.199219 " fill-opacity="1" fill-rule="nonzero"/><path fill="#202235" d="M 138.023438 38.203125 L 138.023438 22.148438 L 141.417969 22.148438 L 141.417969 35.40625 L 148.296875 35.40625 L 148.296875 38.203125 Z M 138.023438 38.203125 " fill-opacity="1" fill-rule="nonzero"/><path fill="#202235" d="M 152.15625 22.148438 L 155.550781 22.148438 L 155.550781 38.203125 L 152.15625 38.203125 Z M 152.15625 22.148438 " fill-opacity="1" fill-rule="nonzero"/><path fill="#202235" d="M 159.351562 24.945312 L 159.351562 22.148438 L 172.53125 22.148438 L 172.53125 24.945312 L 167.621094 24.945312 L 167.621094 38.203125 L 164.261719 38.203125 L 164.261719 24.945312 Z M 159.351562 24.945312 " fill-opacity="1" fill-rule="nonzero"/><path fill="#202235" d="M 176.320312 38.203125 L 176.320312 22.148438 L 187.132812 22.148438 L 187.132812 24.945312 L 179.714844 24.945312 L 179.714844 28.773438 L 186.578125 28.773438 L 186.578125 31.570312 L 179.714844 31.570312 L 179.714844 35.40625 L 187.164062 35.40625 L 187.164062 38.203125 Z M 176.320312 38.203125 " fill-opacity="1" fill-rule="nonzero"/><path fill="#202235" d="M 200.160156 26.769531 C 200.09375 26.136719 199.820312 25.648438 199.34375 25.300781 C 198.859375 24.945312 198.21875 24.769531 197.417969 24.769531 C 196.582031 24.769531 195.941406 24.941406 195.496094 25.277344 C 195.050781 25.617188 194.832031 26.046875 194.832031 26.558594 C 194.824219 27.136719 195.070312 27.570312 195.570312 27.863281 C 196.082031 28.160156 196.679688 28.390625 197.375 28.550781 L 198.8125 28.902344 C 199.746094 29.113281 200.574219 29.414062 201.296875 29.8125 C 202.019531 30.207031 202.585938 30.722656 203 31.347656 C 203.421875 31.964844 203.632812 32.722656 203.632812 33.613281 C 203.625 35.089844 203.070312 36.261719 201.972656 37.128906 C 200.882812 38 199.355469 38.433594 197.394531 38.433594 C 195.449219 38.433594 193.894531 37.992188 192.730469 37.109375 C 191.574219 36.21875 190.972656 34.902344 190.929688 33.160156 L 194.210938 33.160156 C 194.269531 33.964844 194.585938 34.570312 195.164062 34.972656 C 195.742188 35.378906 196.476562 35.582031 197.363281 35.582031 C 198.226562 35.582031 198.910156 35.402344 199.417969 35.039062 C 199.933594 34.671875 200.195312 34.195312 200.203125 33.613281 C 200.195312 33.070312 199.957031 32.652344 199.484375 32.363281 C 199.019531 32.070312 198.347656 31.816406 197.472656 31.601562 L 195.726562 31.160156 C 194.378906 30.84375 193.308594 30.332031 192.519531 29.621094 C 191.738281 28.914062 191.351562 27.972656 191.359375 26.792969 C 191.351562 25.820312 191.609375 24.96875 192.132812 24.238281 C 192.65625 23.507812 193.378906 22.945312 194.300781 22.546875 C 195.222656 22.144531 196.269531 21.9375 197.441406 21.9375 C 198.625 21.9375 199.664062 22.144531 200.558594 22.546875 C 201.449219 22.953125 202.140625 23.519531 202.636719 24.25 C 203.136719 24.972656 203.394531 25.8125 203.410156 26.769531 Z M 200.160156 26.769531 " fill-opacity="1" fill-rule="nonzero"/><path fill="#202235" d="M 206.902344 24.945312 L 206.902344 22.148438 L 220.078125 22.148438 L 220.078125 24.945312 L 215.171875 24.945312 L 215.171875 38.203125 L 211.808594 38.203125 L 211.808594 24.945312 Z M 206.902344 24.945312 " fill-opacity="1" fill-rule="nonzero"/><path fill="#202235" d="M 226.632812 38.203125 L 222.996094 38.203125 L 228.546875 22.148438 L 232.914062 22.148438 L 238.453125 38.203125 L 234.8125 38.203125 L 233.621094 34.542969 L 227.828125 34.542969 Z M 228.6875 31.890625 L 232.769531 31.890625 L 230.789062 25.820312 L 230.667969 25.820312 Z M 228.6875 31.890625 " fill-opacity="1" fill-rule="nonzero"/><path fill="#202235" d="M 241.984375 38.203125 L 241.984375 22.148438 L 248.316406 22.148438 C 250.136719 22.148438 251.550781 22.625 252.550781 23.574219 C 253.5625 24.527344 254.066406 25.804688 254.066406 27.402344 C 254.066406 28.492188 253.824219 29.429688 253.335938 30.207031 C 252.851562 30.992188 252.148438 31.578125 251.238281 31.964844 L 254.640625 38.203125 L 250.894531 38.203125 L 247.855469 32.507812 L 245.378906 32.507812 L 245.378906 38.203125 Z M 245.378906 29.789062 L 247.675781 29.789062 C 249.605469 29.789062 250.574219 28.992188 250.574219 27.402344 C 250.574219 25.75 249.601562 24.925781 247.664062 24.925781 L 245.378906 24.925781 Z M 245.378906 29.789062 " fill-opacity="1" fill-rule="nonzero"/><path fill="#737373" d="M 154.835938 51.925781 L 154.835938 44.585938 L 159.25 44.585938 L 159.25 45.371094 L 155.734375 45.371094 L 155.734375 47.859375 L 158.917969 47.859375 L 158.917969 48.644531 L 155.734375 48.644531 L 155.734375 51.925781 Z M 154.835938 51.925781 " fill-opacity="1" fill-rule="nonzero"/><path fill="#737373" d="M 163.144531 51.925781 L 163.144531 44.585938 L 165.628906 44.585938 C 166.203125 44.585938 166.671875 44.683594 167.035156 44.882812 C 167.402344 45.078125 167.675781 45.34375 167.851562 45.679688 C 168.027344 46.019531 168.117188 46.40625 168.117188 46.839844 C 168.117188 47.328125 168.007812 47.753906 167.785156 48.113281 C 167.566406 48.472656 167.214844 48.738281 166.746094 48.898438 L 168.40625 51.925781 L 167.378906 51.925781 L 165.828125 49.050781 C 165.769531 49.058594 165.707031 49.0625 165.640625 49.0625 L 164.039062 49.0625 L 164.039062 51.925781 Z M 164.039062 48.253906 L 165.609375 48.253906 C 166.195312 48.253906 166.617188 48.132812 166.867188 47.878906 C 167.117188 47.621094 167.246094 47.277344 167.246094 46.839844 C 167.246094 46.398438 167.117188 46.042969 166.867188 45.777344 C 166.617188 45.507812 166.195312 45.371094 165.597656 45.371094 L 164.039062 45.371094 Z M 164.039062 48.253906 " fill-opacity="1" fill-rule="nonzero"/><path fill="#737373" d="M 172.285156 51.925781 L 171.347656 51.925781 L 174.042969 44.585938 L 174.960938 44.585938 L 177.660156 51.925781 L 176.730469 51.925781 L 175.988281 49.847656 L 173.015625 49.847656 Z M 173.304688 49.0625 L 175.714844 49.0625 L 174.53125 45.746094 L 174.476562 45.746094 Z M 173.304688 49.0625 " fill-opacity="1" fill-rule="nonzero"/><path fill="#737373" d="M 181.183594 44.585938 L 182.246094 44.585938 L 184.742188 50.675781 L 184.832031 50.675781 L 187.320312 44.585938 L 188.378906 44.585938 L 188.378906 51.925781 L 187.550781 51.925781 L 187.550781 46.355469 L 187.484375 46.355469 L 185.1875 51.925781 L 184.390625 51.925781 L 182.089844 46.355469 L 182.023438 46.355469 L 182.023438 51.925781 L 181.183594 51.925781 Z M 181.183594 44.585938 " fill-opacity="1" fill-rule="nonzero"/><path fill="#737373" d="M 192.769531 51.925781 L 192.769531 44.585938 L 197.203125 44.585938 L 197.203125 45.371094 L 193.664062 45.371094 L 193.664062 47.859375 L 196.972656 47.859375 L 196.972656 48.644531 L 193.664062 48.644531 L 193.664062 51.140625 L 197.257812 51.140625 L 197.257812 51.925781 Z M 192.769531 51.925781 " fill-opacity="1" fill-rule="nonzero"/><path fill="#737373" d="M 202.527344 51.925781 L 200.515625 44.585938 L 201.421875 44.585938 L 202.957031 50.566406 L 203.023438 50.566406 L 204.59375 44.585938 L 205.601562 44.585938 L 207.160156 50.566406 L 207.226562 50.566406 L 208.761719 44.585938 L 209.667969 44.585938 L 207.65625 51.925781 L 206.738281 51.925781 L 205.125 46.078125 L 205.070312 46.078125 L 203.445312 51.925781 Z M 202.527344 51.925781 " fill-opacity="1" fill-rule="nonzero"/><path fill="#737373" d="M 219.351562 48.253906 C 219.351562 49.03125 219.210938 49.703125 218.929688 50.269531 C 218.648438 50.828125 218.265625 51.261719 217.78125 51.574219 C 217.292969 51.875 216.734375 52.027344 216.109375 52.027344 C 215.484375 52.027344 214.921875 51.875 214.429688 51.574219 C 213.945312 51.261719 213.558594 50.828125 213.28125 50.269531 C 213 49.703125 212.859375 49.03125 212.859375 48.253906 C 212.859375 47.480469 213 46.816406 213.28125 46.253906 C 213.558594 45.6875 213.945312 45.253906 214.429688 44.949219 C 214.921875 44.640625 215.484375 44.484375 216.109375 44.484375 C 216.734375 44.484375 217.292969 44.640625 217.78125 44.949219 C 218.265625 45.253906 218.648438 45.6875 218.929688 46.253906 C 219.210938 46.816406 219.351562 47.480469 219.351562 48.253906 Z M 218.488281 48.253906 C 218.488281 47.621094 218.378906 47.089844 218.167969 46.652344 C 217.953125 46.210938 217.664062 45.878906 217.304688 45.65625 C 216.949219 45.429688 216.554688 45.316406 216.109375 45.316406 C 215.660156 45.316406 215.253906 45.429688 214.894531 45.65625 C 214.539062 45.878906 214.257812 46.210938 214.042969 46.652344 C 213.828125 47.089844 213.722656 47.621094 213.722656 48.253906 C 213.722656 48.890625 213.828125 49.425781 214.042969 49.871094 C 214.257812 50.304688 214.539062 50.636719 214.894531 50.863281 C 215.253906 51.085938 215.660156 51.195312 216.109375 51.195312 C 216.554688 51.195312 216.949219 51.085938 217.304688 50.863281 C 217.664062 50.636719 217.953125 50.304688 218.167969 49.871094 C 218.378906 49.425781 218.488281 48.890625 218.488281 48.253906 Z M 218.488281 48.253906 " fill-opacity="1" fill-rule="nonzero"/><path fill="#737373" d="M 223.214844 51.925781 L 223.214844 44.585938 L 225.703125 44.585938 C 226.277344 44.585938 226.746094 44.683594 227.105469 44.882812 C 227.472656 45.078125 227.746094 45.34375 227.925781 45.679688 C 228.101562 46.019531 228.191406 46.40625 228.191406 46.839844 C 228.191406 47.328125 228.078125 47.753906 227.859375 48.113281 C 227.636719 48.472656 227.289062 48.738281 226.820312 48.898438 L 228.476562 51.925781 L 227.449219 51.925781 L 225.902344 49.050781 C 225.839844 49.058594 225.78125 49.0625 225.714844 49.0625 L 224.109375 49.0625 L 224.109375 51.925781 Z M 224.109375 48.253906 L 225.679688 48.253906 C 226.269531 48.253906 226.6875 48.132812 226.941406 47.878906 C 227.191406 47.621094 227.316406 47.277344 227.316406 46.839844 C 227.316406 46.398438 227.191406 46.042969 226.941406 45.777344 C 226.6875 45.507812 226.265625 45.371094 225.667969 45.371094 L 224.109375 45.371094 Z M 224.109375 48.253906 " fill-opacity="1" fill-rule="nonzero"/><path fill="#737373" d="M 232.050781 51.925781 L 232.050781 44.585938 L 232.945312 44.585938 L 232.945312 48.222656 L 233.03125 48.222656 L 236.328125 44.585938 L 237.488281 44.585938 L 234.402344 47.902344 L 237.488281 51.925781 L 236.417969 51.925781 L 233.863281 48.511719 L 232.945312 49.550781 L 232.945312 51.925781 Z M 232.050781 51.925781 " fill-opacity="1" fill-rule="nonzero"/><path stroke-linecap="round" transform="matrix(0, 0.532268, -0.530676, 0, 128.970602, 11.304648)" fill="none" stroke-linejoin="miter" d="M 0.499118 0.496669 L 93.225781 0.496669 " stroke="#000000" stroke-width="1" stroke-opacity="1" stroke-miterlimit="4"/></svg>
