<svg xmlns="http://www.w3.org/2000/svg" xmlns:xlink="http://www.w3.org/1999/xlink" width="400" zoomAndPan="magnify" viewBox="0 0 300 72.749999" height="97" preserveAspectRatio="xMidYMid meet" version="1.0"><defs><clipPath id="6648aff79c"><path d="M 44.015625 17.402344 L 115.628906 17.402344 L 115.628906 52.683594 L 44.015625 52.683594 Z M 44.015625 17.402344 " clip-rule="nonzero"/></clipPath><clipPath id="ff720afe05"><path d="M 72.589844 11.296875 L 122.332031 11.296875 L 122.332031 61 L 72.589844 61 Z M 72.589844 11.296875 " clip-rule="nonzero"/></clipPath></defs><g clip-path="url(#6648aff79c)"><path fill="#ffffff" d="M 74.039062 48.242188 C 77.203125 46.792969 79.953125 45.203125 82.203125 43.722656 C 86.503906 40.898438 92.011719 35.648438 92.308594 35.230469 L 90.296875 33.878906 L 88.546875 32.707031 L 94.078125 32.492188 L 95.851562 32.421875 L 96.335938 30.707031 L 97.839844 25.371094 L 99.753906 30.574219 L 100.371094 32.246094 L 102.144531 32.175781 L 107.671875 31.957031 L 103.328125 35.390625 L 101.933594 36.496094 L 102.546875 38.164062 L 104.460938 43.367188 L 99.859375 40.289062 L 98.382812 39.296875 L 96.988281 40.398438 L 92.640625 43.832031 L 93.386719 41.179688 L 94.144531 38.496094 L 94.238281 38.164062 C 88.949219 42.132812 81.546875 45.953125 77.121094 47.367188 C 76.105469 47.691406 75.078125 47.984375 74.039062 48.242188 Z M 63.636719 52.308594 C 71.476562 52 80.820312 50.003906 90.011719 44.136719 L 88.238281 50.425781 L 98.5 42.324219 L 109.359375 49.601562 L 104.84375 37.316406 L 115.101562 29.214844 L 102.046875 29.726562 L 97.53125 17.441406 L 93.980469 30.042969 L 80.925781 30.554688 L 88.484375 35.617188 C 83.511719 40.148438 71.035156 49.816406 54.507812 50.464844 C 51.167969 50.59375 47.65625 50.359375 44.015625 49.632812 C 44.015625 49.632812 52.242188 52.753906 63.636719 52.308594 " fill-opacity="1" fill-rule="nonzero"/></g><g clip-path="url(#ff720afe05)"><path fill="#ffffff" d="M 97.5625 11.34375 C 83.878906 11.34375 72.789062 22.457031 72.789062 36.167969 C 72.789062 38.765625 73.1875 41.269531 73.925781 43.621094 C 75 43.082031 76.03125 42.527344 77.011719 41.960938 C 76.496094 40.121094 76.21875 38.175781 76.21875 36.167969 C 76.21875 24.355469 85.777344 14.78125 97.5625 14.78125 C 109.347656 14.78125 118.902344 24.355469 118.902344 36.167969 C 118.902344 47.984375 109.347656 57.558594 97.5625 57.558594 C 91.167969 57.558594 85.433594 54.742188 81.523438 50.277344 C 80.382812 50.722656 79.230469 51.125 78.066406 51.492188 C 82.601562 57.277344 89.648438 60.996094 97.5625 60.996094 C 111.242188 60.996094 122.332031 49.878906 122.332031 36.167969 C 122.332031 22.457031 111.242188 11.34375 97.5625 11.34375 " fill-opacity="1" fill-rule="nonzero"/></g><path fill="#ffffff" d="M 61.425781 32.855469 L 62.792969 37.070312 L 67.214844 37.070312 L 63.636719 39.675781 L 65.003906 43.894531 L 61.425781 41.289062 L 57.84375 43.894531 L 59.210938 39.675781 L 55.632812 37.070312 L 60.058594 37.070312 L 61.425781 32.855469 " fill-opacity="1" fill-rule="nonzero"/><path fill="#ffffff" d="M 67.792969 18.953125 L 68.972656 22.597656 L 72.789062 22.597656 L 69.699219 24.84375 L 70.878906 28.484375 L 67.792969 26.234375 L 64.699219 28.484375 L 65.882812 24.84375 L 62.792969 22.597656 L 66.609375 22.597656 L 67.792969 18.953125 " fill-opacity="1" fill-rule="nonzero"/><path fill="#ffffff" d="M 48.292969 41.113281 L 48.980469 43.238281 L 51.210938 43.238281 L 49.40625 44.546875 L 50.09375 46.671875 L 48.292969 45.363281 L 46.488281 46.671875 L 47.179688 44.546875 L 45.375 43.238281 L 47.601562 43.238281 L 48.292969 41.113281 " fill-opacity="1" fill-rule="nonzero"/><path fill="#ffffff" d="M 137.96875 38.429688 L 137.96875 22.421875 L 141.351562 22.421875 L 141.351562 35.640625 L 148.222656 35.640625 L 148.222656 38.429688 Z M 137.96875 38.429688 " fill-opacity="1" fill-rule="nonzero"/><path fill="#ffffff" d="M 152.066406 22.421875 L 155.449219 22.421875 L 155.449219 38.429688 L 152.066406 38.429688 Z M 152.066406 22.421875 " fill-opacity="1" fill-rule="nonzero"/><path fill="#ffffff" d="M 159.242188 25.210938 L 159.242188 22.421875 L 172.394531 22.421875 L 172.394531 25.210938 L 167.488281 25.210938 L 167.488281 38.429688 L 164.148438 38.429688 L 164.148438 25.210938 Z M 159.242188 25.210938 " fill-opacity="1" fill-rule="nonzero"/><path fill="#ffffff" d="M 176.164062 38.429688 L 176.164062 22.421875 L 186.957031 22.421875 L 186.957031 25.210938 L 179.550781 25.210938 L 179.550781 29.027344 L 186.40625 29.027344 L 186.40625 31.816406 L 179.550781 31.816406 L 179.550781 35.640625 L 186.992188 35.640625 L 186.992188 38.429688 Z M 176.164062 38.429688 " fill-opacity="1" fill-rule="nonzero"/><path fill="#ffffff" d="M 199.941406 27.019531 C 199.882812 26.398438 199.613281 25.90625 199.136719 25.554688 C 198.660156 25.199219 198.015625 25.023438 197.207031 25.023438 C 196.375 25.023438 195.742188 25.199219 195.300781 25.542969 C 194.859375 25.882812 194.640625 26.308594 194.640625 26.820312 C 194.625 27.394531 194.867188 27.828125 195.367188 28.121094 C 195.875 28.417969 196.472656 28.644531 197.164062 28.804688 L 198.609375 29.148438 C 199.535156 29.363281 200.355469 29.664062 201.078125 30.0625 C 201.804688 30.453125 202.375 30.960938 202.789062 31.582031 C 203.199219 32.210938 203.40625 32.96875 203.40625 33.855469 C 203.40625 35.316406 202.855469 36.488281 201.761719 37.359375 C 200.664062 38.230469 199.140625 38.660156 197.1875 38.660156 C 195.246094 38.660156 193.695312 38.21875 192.535156 37.328125 C 191.378906 36.441406 190.78125 35.132812 190.738281 33.402344 L 194.023438 33.402344 C 194.074219 34.203125 194.386719 34.808594 194.960938 35.210938 C 195.539062 35.617188 196.273438 35.816406 197.152344 35.816406 C 198.015625 35.816406 198.699219 35.636719 199.214844 35.277344 C 199.726562 34.910156 199.988281 34.433594 199.988281 33.84375 C 199.988281 33.308594 199.75 32.894531 199.28125 32.597656 C 198.808594 32.304688 198.140625 32.054688 197.273438 31.847656 L 195.523438 31.40625 C 194.175781 31.085938 193.109375 30.574219 192.324219 29.875 C 191.546875 29.167969 191.160156 28.226562 191.167969 27.042969 C 191.160156 26.078125 191.414062 25.234375 191.9375 24.507812 C 192.46875 23.777344 193.1875 23.214844 194.101562 22.808594 C 195.019531 22.40625 196.0625 22.203125 197.230469 22.203125 C 198.421875 22.203125 199.460938 22.40625 200.351562 22.808594 C 201.238281 23.214844 201.929688 23.777344 202.421875 24.507812 C 202.914062 25.234375 203.167969 26.070312 203.183594 27.019531 Z M 199.941406 27.019531 " fill-opacity="1" fill-rule="nonzero"/><path fill="#ffffff" d="M 206.671875 25.210938 L 206.671875 22.421875 L 219.824219 22.421875 L 219.824219 25.210938 L 214.917969 25.210938 L 214.917969 38.429688 L 211.574219 38.429688 L 211.574219 25.210938 Z M 206.671875 25.210938 " fill-opacity="1" fill-rule="nonzero"/><path fill="#ffffff" d="M 226.359375 38.429688 L 222.734375 38.429688 L 228.257812 22.421875 L 232.621094 22.421875 L 238.136719 38.429688 L 234.507812 38.429688 L 233.316406 34.78125 L 227.539062 34.78125 Z M 228.398438 32.136719 L 232.46875 32.136719 L 230.496094 26.082031 L 230.375 26.082031 Z M 228.398438 32.136719 " fill-opacity="1" fill-rule="nonzero"/><path fill="#ffffff" d="M 241.660156 38.429688 L 241.660156 22.421875 L 247.980469 22.421875 C 249.800781 22.421875 251.210938 22.894531 252.210938 23.84375 C 253.21875 24.792969 253.722656 26.058594 253.722656 27.648438 C 253.722656 28.746094 253.476562 29.683594 252.984375 30.460938 C 252.5 31.230469 251.800781 31.816406 250.890625 32.210938 L 254.296875 38.429688 L 250.558594 38.429688 L 247.515625 32.753906 L 245.046875 32.753906 L 245.046875 38.429688 Z M 245.046875 30.027344 L 247.351562 30.027344 C 249.269531 30.027344 250.226562 29.234375 250.226562 27.648438 C 250.226562 26.011719 249.261719 25.191406 247.328125 25.191406 L 245.046875 25.191406 Z M 245.046875 30.027344 " fill-opacity="1" fill-rule="nonzero"/><path fill="#ffffff" d="M 154.75 52.683594 L 154.75 45.363281 L 159.148438 45.363281 L 159.148438 46.148438 L 155.640625 46.148438 L 155.640625 48.628906 L 158.816406 48.628906 L 158.816406 49.410156 L 155.640625 49.410156 L 155.640625 52.683594 Z M 154.75 52.683594 " fill-opacity="1" fill-rule="nonzero"/><path fill="#ffffff" d="M 163.027344 52.683594 L 163.027344 45.363281 L 165.511719 45.363281 C 166.082031 45.363281 166.550781 45.464844 166.910156 45.660156 C 167.277344 45.855469 167.550781 46.117188 167.726562 46.457031 C 167.902344 46.792969 167.992188 47.179688 167.992188 47.613281 C 167.992188 48.097656 167.878906 48.523438 167.660156 48.878906 C 167.4375 49.242188 167.09375 49.503906 166.625 49.664062 L 168.277344 52.683594 L 167.25 52.683594 L 165.707031 49.816406 C 165.648438 49.824219 165.585938 49.828125 165.519531 49.828125 L 163.921875 49.828125 L 163.921875 52.683594 Z M 163.921875 49.023438 L 165.488281 49.023438 C 166.074219 49.023438 166.492188 48.898438 166.746094 48.648438 C 166.992188 48.394531 167.121094 48.046875 167.121094 47.613281 C 167.121094 47.171875 166.992188 46.820312 166.746094 46.554688 C 166.492188 46.285156 166.070312 46.148438 165.476562 46.148438 L 163.921875 46.148438 Z M 163.921875 49.023438 " fill-opacity="1" fill-rule="nonzero"/><path fill="#ffffff" d="M 172.148438 52.683594 L 171.210938 52.683594 L 173.902344 45.363281 L 174.816406 45.363281 L 177.503906 52.683594 L 176.578125 52.683594 L 175.839844 50.613281 L 172.875 50.613281 Z M 173.160156 49.828125 L 175.566406 49.828125 L 174.386719 46.519531 L 174.332031 46.519531 Z M 173.160156 49.828125 " fill-opacity="1" fill-rule="nonzero"/><path fill="#ffffff" d="M 181.019531 45.363281 L 182.078125 45.363281 L 184.570312 51.4375 L 184.660156 51.4375 L 187.140625 45.363281 L 188.199219 45.363281 L 188.199219 52.683594 L 187.371094 52.683594 L 187.371094 47.128906 L 187.304688 47.128906 L 185.011719 52.683594 L 184.21875 52.683594 L 181.925781 47.128906 L 181.859375 47.128906 L 181.859375 52.683594 L 181.019531 52.683594 Z M 181.019531 45.363281 " fill-opacity="1" fill-rule="nonzero"/><path fill="#ffffff" d="M 192.574219 52.683594 L 192.574219 45.363281 L 196.996094 45.363281 L 196.996094 46.148438 L 193.46875 46.148438 L 193.46875 48.628906 L 196.765625 48.628906 L 196.765625 49.410156 L 193.46875 49.410156 L 193.46875 51.902344 L 197.050781 51.902344 L 197.050781 52.683594 Z M 192.574219 52.683594 " fill-opacity="1" fill-rule="nonzero"/><path fill="#ffffff" d="M 202.304688 52.683594 L 200.296875 45.363281 L 201.199219 45.363281 L 202.734375 51.328125 L 202.800781 51.328125 L 204.363281 45.363281 L 205.367188 45.363281 L 206.921875 51.328125 L 206.988281 51.328125 L 208.519531 45.363281 L 209.425781 45.363281 L 207.417969 52.683594 L 206.503906 52.683594 L 204.894531 46.851562 L 204.839844 46.851562 L 203.21875 52.683594 Z M 202.304688 52.683594 " fill-opacity="1" fill-rule="nonzero"/><path fill="#ffffff" d="M 219.078125 49.023438 C 219.078125 49.796875 218.9375 50.464844 218.660156 51.03125 C 218.378906 51.589844 218 52.023438 217.515625 52.332031 C 217.03125 52.632812 216.472656 52.785156 215.851562 52.785156 C 215.222656 52.785156 214.664062 52.632812 214.175781 52.332031 C 213.6875 52.023438 213.304688 51.589844 213.027344 51.03125 C 212.746094 50.464844 212.609375 49.796875 212.609375 49.023438 C 212.609375 48.253906 212.746094 47.589844 213.027344 47.027344 C 213.304688 46.464844 213.6875 46.03125 214.175781 45.726562 C 214.664062 45.417969 215.222656 45.265625 215.851562 45.265625 C 216.472656 45.265625 217.03125 45.417969 217.515625 45.726562 C 218 46.03125 218.378906 46.464844 218.660156 47.027344 C 218.9375 47.589844 219.078125 48.253906 219.078125 49.023438 Z M 218.21875 49.023438 C 218.21875 48.394531 218.113281 47.859375 217.898438 47.425781 C 217.683594 46.984375 217.398438 46.652344 217.039062 46.433594 C 216.6875 46.207031 216.289062 46.089844 215.851562 46.089844 C 215.402344 46.089844 214.996094 46.207031 214.636719 46.433594 C 214.285156 46.652344 214 46.984375 213.789062 47.425781 C 213.574219 47.859375 213.46875 48.394531 213.46875 49.023438 C 213.46875 49.65625 213.574219 50.191406 213.789062 50.632812 C 214 51.070312 214.285156 51.398438 214.636719 51.625 C 214.996094 51.847656 215.402344 51.957031 215.851562 51.957031 C 216.289062 51.957031 216.6875 51.847656 217.039062 51.625 C 217.398438 51.398438 217.683594 51.070312 217.898438 50.632812 C 218.113281 50.191406 218.21875 49.65625 218.21875 49.023438 Z M 218.21875 49.023438 " fill-opacity="1" fill-rule="nonzero"/><path fill="#ffffff" d="M 222.933594 52.683594 L 222.933594 45.363281 L 225.414062 45.363281 C 225.988281 45.363281 226.453125 45.464844 226.816406 45.660156 C 227.179688 45.855469 227.453125 46.117188 227.628906 46.457031 C 227.808594 46.792969 227.894531 47.179688 227.894531 47.613281 C 227.894531 48.097656 227.785156 48.523438 227.5625 48.878906 C 227.34375 49.242188 226.996094 49.503906 226.527344 49.664062 L 228.183594 52.683594 L 227.15625 52.683594 L 225.613281 49.816406 C 225.550781 49.824219 225.492188 49.828125 225.425781 49.828125 L 223.828125 49.828125 L 223.828125 52.683594 Z M 223.828125 49.023438 L 225.390625 49.023438 C 225.980469 49.023438 226.398438 48.898438 226.648438 48.648438 C 226.898438 48.394531 227.023438 48.046875 227.023438 47.613281 C 227.023438 47.171875 226.898438 46.820312 226.648438 46.554688 C 226.398438 46.285156 225.976562 46.148438 225.382812 46.148438 L 223.828125 46.148438 Z M 223.828125 49.023438 " fill-opacity="1" fill-rule="nonzero"/><path fill="#ffffff" d="M 231.742188 52.683594 L 231.742188 45.363281 L 232.636719 45.363281 L 232.636719 48.992188 L 232.726562 48.992188 L 236.011719 45.363281 L 237.167969 45.363281 L 234.09375 48.671875 L 237.167969 52.683594 L 236.097656 52.683594 L 233.550781 49.277344 L 232.636719 50.3125 L 232.636719 52.683594 Z M 231.742188 52.683594 " fill-opacity="1" fill-rule="nonzero"/><path stroke-linecap="round" transform="matrix(0, 0.530769, -0.529182, 0, 128.954892, 11.299976)" fill="none" stroke-linejoin="miter" d="M 0.50197 0.497913 L 93.225629 0.497913 " stroke="#edb641" stroke-width="1" stroke-opacity="1" stroke-miterlimit="4"/></svg>
