<svg xmlns="http://www.w3.org/2000/svg" xmlns:xlink="http://www.w3.org/1999/xlink" width="500" zoomAndPan="magnify" viewBox="0 0 375 374.999991" height="500" preserveAspectRatio="xMidYMid meet" version="1.0"><defs><g/></defs><g fill="#202235" fill-opacity="1"><g transform="translate(38.39185, 181.693464)"><g><path d="M 1.546875 0 L 1.546875 -17.765625 L 13.515625 -17.765625 L 13.515625 -14.671875 L 5.296875 -14.671875 L 5.296875 -10.4375 L 12.890625 -10.4375 L 12.890625 -7.34375 L 5.296875 -7.34375 L 5.296875 -3.09375 L 13.546875 -3.09375 L 13.546875 0 Z M 1.546875 0 "/></g></g></g><g fill="#202235" fill-opacity="1"><g transform="translate(55.135575, 181.693464)"><g><path d="M 1.546875 0 L 1.546875 -17.765625 L 13.296875 -17.765625 L 13.296875 -14.671875 L 5.296875 -14.671875 L 5.296875 -10.4375 L 12.515625 -10.4375 L 12.515625 -7.34375 L 5.296875 -7.34375 L 5.296875 0 Z M 1.546875 0 "/></g></g></g><g fill="#202235" fill-opacity="1"><g transform="translate(71.20284, 181.693464)"><g><path d="M 1.546875 0 L 1.546875 -17.765625 L 13.296875 -17.765625 L 13.296875 -14.671875 L 5.296875 -14.671875 L 5.296875 -10.4375 L 12.515625 -10.4375 L 12.515625 -7.34375 L 5.296875 -7.34375 L 5.296875 0 Z M 1.546875 0 "/></g></g></g><g fill="#202235" fill-opacity="1"><g transform="translate(87.270106, 181.693464)"><g><path d="M 17.859375 -8.875 C 17.859375 -6.9375 17.492188 -5.289062 16.765625 -3.9375 C 16.035156 -2.582031 15.039062 -1.546875 13.78125 -0.828125 C 12.53125 -0.109375 11.117188 0.25 9.546875 0.25 C 7.972656 0.25 6.554688 -0.109375 5.296875 -0.828125 C 4.046875 -1.546875 3.054688 -2.585938 2.328125 -3.953125 C 1.597656 -5.316406 1.234375 -6.957031 1.234375 -8.875 C 1.234375 -10.8125 1.597656 -12.457031 2.328125 -13.8125 C 3.054688 -15.175781 4.046875 -16.210938 5.296875 -16.921875 C 6.554688 -17.640625 7.972656 -18 9.546875 -18 C 11.117188 -18 12.53125 -17.640625 13.78125 -16.921875 C 15.039062 -16.210938 16.035156 -15.175781 16.765625 -13.8125 C 17.492188 -12.457031 17.859375 -10.8125 17.859375 -8.875 Z M 14.0625 -8.875 C 14.0625 -10.757812 13.648438 -12.195312 12.828125 -13.1875 C 12.003906 -14.1875 10.910156 -14.6875 9.546875 -14.6875 C 8.179688 -14.6875 7.085938 -14.1875 6.265625 -13.1875 C 5.441406 -12.195312 5.03125 -10.757812 5.03125 -8.875 C 5.03125 -7 5.441406 -5.5625 6.265625 -4.5625 C 7.085938 -3.570312 8.179688 -3.078125 9.546875 -3.078125 C 10.910156 -3.078125 12.003906 -3.570312 12.828125 -4.5625 C 13.648438 -5.5625 14.0625 -7 14.0625 -8.875 Z M 14.0625 -8.875 "/></g></g></g><g fill="#202235" fill-opacity="1"><g transform="translate(108.150594, 181.693464)"><g><path d="M 1.546875 0 L 1.546875 -17.765625 L 8.546875 -17.765625 C 10.566406 -17.765625 12.132812 -17.238281 13.25 -16.1875 C 14.363281 -15.132812 14.921875 -13.722656 14.921875 -11.953125 C 14.921875 -10.742188 14.648438 -9.707031 14.109375 -8.84375 C 13.566406 -7.976562 12.789062 -7.332031 11.78125 -6.90625 L 15.546875 0 L 11.40625 0 L 8.046875 -6.296875 L 5.296875 -6.296875 L 5.296875 0 Z M 5.296875 -9.3125 L 7.84375 -9.3125 C 9.976562 -9.3125 11.046875 -10.191406 11.046875 -11.953125 C 11.046875 -13.773438 9.972656 -14.6875 7.828125 -14.6875 L 5.296875 -14.6875 Z M 5.296875 -9.3125 "/></g></g></g><g fill="#202235" fill-opacity="1"><g transform="translate(125.961032, 181.693464)"><g><path d="M 0.875 -14.671875 L 0.875 -17.765625 L 15.453125 -17.765625 L 15.453125 -14.671875 L 10.015625 -14.671875 L 10.015625 0 L 6.3125 0 L 6.3125 -14.671875 Z M 0.875 -14.671875 "/></g></g></g><g fill="#202235" fill-opacity="1"><g transform="translate(144.066334, 181.693464)"><g><path d="M 1.546875 0 L 1.546875 -17.765625 L 5.296875 -17.765625 L 5.296875 -3.09375 L 12.90625 -3.09375 L 12.90625 0 Z M 1.546875 0 "/></g></g></g><g fill="#202235" fill-opacity="1"><g transform="translate(159.708644, 181.693464)"><g><path d="M 1.546875 0 L 1.546875 -17.765625 L 13.515625 -17.765625 L 13.515625 -14.671875 L 5.296875 -14.671875 L 5.296875 -10.4375 L 12.890625 -10.4375 L 12.890625 -7.34375 L 5.296875 -7.34375 L 5.296875 -3.09375 L 13.546875 -3.09375 L 13.546875 0 Z M 1.546875 0 "/></g></g></g><g fill="#202235" fill-opacity="1"><g transform="translate(176.452368, 181.693464)"><g><path d="M 11.171875 -12.65625 C 11.109375 -13.351562 10.8125 -13.894531 10.28125 -14.28125 C 9.75 -14.664062 9.035156 -14.859375 8.140625 -14.859375 C 7.222656 -14.859375 6.519531 -14.671875 6.03125 -14.296875 C 5.539062 -13.921875 5.296875 -13.445312 5.296875 -12.875 C 5.273438 -12.238281 5.546875 -11.753906 6.109375 -11.421875 C 6.671875 -11.097656 7.332031 -10.847656 8.09375 -10.671875 L 9.703125 -10.296875 C 10.722656 -10.066406 11.632812 -9.726562 12.4375 -9.28125 C 13.238281 -8.84375 13.867188 -8.28125 14.328125 -7.59375 C 14.785156 -6.90625 15.015625 -6.066406 15.015625 -5.078125 C 15.015625 -3.453125 14.40625 -2.15625 13.1875 -1.1875 C 11.976562 -0.226562 10.289062 0.25 8.125 0.25 C 5.96875 0.25 4.25 -0.238281 2.96875 -1.21875 C 1.6875 -2.207031 1.019531 -3.660156 0.96875 -5.578125 L 4.609375 -5.578125 C 4.671875 -4.679688 5.019531 -4.007812 5.65625 -3.5625 C 6.289062 -3.113281 7.097656 -2.890625 8.078125 -2.890625 C 9.035156 -2.890625 9.796875 -3.09375 10.359375 -3.5 C 10.929688 -3.90625 11.222656 -4.429688 11.234375 -5.078125 C 11.222656 -5.679688 10.957031 -6.144531 10.4375 -6.46875 C 9.914062 -6.789062 9.175781 -7.066406 8.21875 -7.296875 L 6.28125 -7.78125 C 4.78125 -8.144531 3.597656 -8.71875 2.734375 -9.5 C 1.867188 -10.28125 1.4375 -11.320312 1.4375 -12.625 C 1.4375 -13.695312 1.722656 -14.632812 2.296875 -15.4375 C 2.878906 -16.25 3.679688 -16.878906 4.703125 -17.328125 C 5.722656 -17.773438 6.878906 -18 8.171875 -18 C 9.484375 -18 10.632812 -17.773438 11.625 -17.328125 C 12.613281 -16.878906 13.378906 -16.25 13.921875 -15.4375 C 14.472656 -14.632812 14.757812 -13.707031 14.78125 -12.65625 Z M 11.171875 -12.65625 "/></g></g></g><g fill="#202235" fill-opacity="1"><g transform="translate(194.228108, 181.693464)"><g><path d="M 11.171875 -12.65625 C 11.109375 -13.351562 10.8125 -13.894531 10.28125 -14.28125 C 9.75 -14.664062 9.035156 -14.859375 8.140625 -14.859375 C 7.222656 -14.859375 6.519531 -14.671875 6.03125 -14.296875 C 5.539062 -13.921875 5.296875 -13.445312 5.296875 -12.875 C 5.273438 -12.238281 5.546875 -11.753906 6.109375 -11.421875 C 6.671875 -11.097656 7.332031 -10.847656 8.09375 -10.671875 L 9.703125 -10.296875 C 10.722656 -10.066406 11.632812 -9.726562 12.4375 -9.28125 C 13.238281 -8.84375 13.867188 -8.28125 14.328125 -7.59375 C 14.785156 -6.90625 15.015625 -6.066406 15.015625 -5.078125 C 15.015625 -3.453125 14.40625 -2.15625 13.1875 -1.1875 C 11.976562 -0.226562 10.289062 0.25 8.125 0.25 C 5.96875 0.25 4.25 -0.238281 2.96875 -1.21875 C 1.6875 -2.207031 1.019531 -3.660156 0.96875 -5.578125 L 4.609375 -5.578125 C 4.671875 -4.679688 5.019531 -4.007812 5.65625 -3.5625 C 6.289062 -3.113281 7.097656 -2.890625 8.078125 -2.890625 C 9.035156 -2.890625 9.796875 -3.09375 10.359375 -3.5 C 10.929688 -3.90625 11.222656 -4.429688 11.234375 -5.078125 C 11.222656 -5.679688 10.957031 -6.144531 10.4375 -6.46875 C 9.914062 -6.789062 9.175781 -7.066406 8.21875 -7.296875 L 6.28125 -7.78125 C 4.78125 -8.144531 3.597656 -8.71875 2.734375 -9.5 C 1.867188 -10.28125 1.4375 -11.320312 1.4375 -12.625 C 1.4375 -13.695312 1.722656 -14.632812 2.296875 -15.4375 C 2.878906 -16.25 3.679688 -16.878906 4.703125 -17.328125 C 5.722656 -17.773438 6.878906 -18 8.171875 -18 C 9.484375 -18 10.632812 -17.773438 11.625 -17.328125 C 12.613281 -16.878906 13.378906 -16.25 13.921875 -15.4375 C 14.472656 -14.632812 14.757812 -13.707031 14.78125 -12.65625 Z M 11.171875 -12.65625 "/></g></g></g><g fill="#202235" fill-opacity="1"><g transform="translate(212.003849, 181.693464)"><g><path d="M 1.546875 0 L 1.546875 -17.765625 L 5.296875 -17.765625 L 5.296875 -3.09375 L 12.90625 -3.09375 L 12.90625 0 Z M 1.546875 0 "/></g></g></g><g fill="#202235" fill-opacity="1"><g transform="translate(227.646159, 181.693464)"><g><path d="M 0.5 -17.765625 L 4.703125 -17.765625 L 8.765625 -10.109375 L 8.9375 -10.109375 L 12.984375 -17.765625 L 17.1875 -17.765625 L 10.703125 -6.28125 L 10.703125 0 L 6.984375 0 L 6.984375 -6.28125 Z M 0.5 -17.765625 "/></g></g></g><g fill="#202235" fill-opacity="1"><g transform="translate(247.121724, 181.693464)"><g/></g></g><g fill="#202235" fill-opacity="1"><g transform="translate(254.568554, 181.693464)"><g><path d="M 1.546875 0 L 1.546875 -17.765625 L 8.65625 -17.765625 C 10.613281 -17.765625 12.082031 -17.335938 13.0625 -16.484375 C 14.050781 -15.628906 14.546875 -14.535156 14.546875 -13.203125 C 14.546875 -12.160156 14.242188 -11.316406 13.640625 -10.671875 C 13.035156 -10.023438 12.269531 -9.597656 11.34375 -9.390625 L 11.34375 -9.21875 C 12.019531 -9.1875 12.65625 -8.992188 13.25 -8.640625 C 13.84375 -8.296875 14.320312 -7.804688 14.6875 -7.171875 C 15.0625 -6.546875 15.25 -5.789062 15.25 -4.90625 C 15.25 -3.96875 15.015625 -3.128906 14.546875 -2.390625 C 14.078125 -1.648438 13.390625 -1.066406 12.484375 -0.640625 C 11.578125 -0.210938 10.457031 0 9.125 0 Z M 5.296875 -3.0625 L 8.359375 -3.0625 C 9.410156 -3.0625 10.175781 -3.265625 10.65625 -3.671875 C 11.132812 -4.078125 11.375 -4.613281 11.375 -5.28125 C 11.375 -6.019531 11.109375 -6.617188 10.578125 -7.078125 C 10.054688 -7.546875 9.347656 -7.78125 8.453125 -7.78125 L 5.296875 -7.78125 Z M 5.296875 -10.328125 L 8.078125 -10.328125 C 8.847656 -10.328125 9.488281 -10.523438 10 -10.921875 C 10.507812 -11.328125 10.765625 -11.878906 10.765625 -12.578125 C 10.765625 -13.222656 10.535156 -13.738281 10.078125 -14.125 C 9.628906 -14.519531 8.988281 -14.71875 8.15625 -14.71875 L 5.296875 -14.71875 Z M 5.296875 -10.328125 "/></g></g></g><g fill="#202235" fill-opacity="1"><g transform="translate(272.491741, 181.693464)"><g><path d="M 12.546875 -17.765625 L 16.265625 -17.765625 L 16.265625 -6.015625 C 16.265625 -4.671875 15.945312 -3.53125 15.3125 -2.59375 C 14.6875 -1.664062 13.820312 -0.957031 12.71875 -0.46875 C 11.613281 0.0078125 10.34375 0.25 8.90625 0.25 C 7.46875 0.25 6.191406 0.0078125 5.078125 -0.46875 C 3.972656 -0.957031 3.109375 -1.664062 2.484375 -2.59375 C 1.859375 -3.53125 1.546875 -4.671875 1.546875 -6.015625 L 1.546875 -17.765625 L 5.296875 -17.765625 L 5.296875 -6.15625 C 5.296875 -5.195312 5.640625 -4.445312 6.328125 -3.90625 C 7.015625 -3.363281 7.875 -3.09375 8.90625 -3.09375 C 9.957031 -3.09375 10.828125 -3.363281 11.515625 -3.90625 C 12.203125 -4.445312 12.546875 -5.195312 12.546875 -6.15625 Z M 12.546875 -17.765625 "/></g></g></g><g fill="#202235" fill-opacity="1"><g transform="translate(292.088717, 181.693464)"><g><path d="M 5.296875 -17.765625 L 5.296875 0 L 1.546875 0 L 1.546875 -17.765625 Z M 5.296875 -17.765625 "/></g></g></g><g fill="#202235" fill-opacity="1"><g transform="translate(300.723672, 181.693464)"><g><path d="M 1.546875 0 L 1.546875 -17.765625 L 5.296875 -17.765625 L 5.296875 -3.09375 L 12.90625 -3.09375 L 12.90625 0 Z M 1.546875 0 "/></g></g></g><g fill="#202235" fill-opacity="1"><g transform="translate(316.365982, 181.693464)"><g><path d="M 7.84375 0 L 1.546875 0 L 1.546875 -17.765625 L 7.890625 -17.765625 C 9.679688 -17.765625 11.222656 -17.410156 12.515625 -16.703125 C 13.804688 -15.992188 14.796875 -14.976562 15.484375 -13.65625 C 16.179688 -12.332031 16.53125 -10.742188 16.53125 -8.890625 C 16.53125 -7.046875 16.179688 -5.457031 15.484375 -4.125 C 14.785156 -2.800781 13.785156 -1.78125 12.484375 -1.0625 C 11.191406 -0.351562 9.644531 0 7.84375 0 Z M 5.296875 -3.21875 L 7.6875 -3.21875 C 9.351562 -3.21875 10.617188 -3.664062 11.484375 -4.5625 C 12.347656 -5.46875 12.78125 -6.910156 12.78125 -8.890625 C 12.78125 -10.867188 12.347656 -12.304688 11.484375 -13.203125 C 10.617188 -14.097656 9.351562 -14.546875 7.6875 -14.546875 L 5.296875 -14.546875 Z M 5.296875 -3.21875 "/></g></g></g><g fill="#202235" fill-opacity="1"><g transform="translate(335.907456, 181.693464)"><g/></g></g><g fill="#edb641" fill-opacity="1"><g transform="translate(83.330266, 202.381921)"><g><path d="M 1.015625 0 L 1.015625 -11.765625 L 5.65625 -11.765625 C 6.550781 -11.765625 7.3125 -11.59375 7.9375 -11.25 C 8.570312 -10.914062 9.050781 -10.445312 9.375 -9.84375 C 9.707031 -9.25 9.875 -8.5625 9.875 -7.78125 C 9.875 -7 9.703125 -6.304688 9.359375 -5.703125 C 9.023438 -5.109375 8.539062 -4.644531 7.90625 -4.3125 C 7.269531 -3.976562 6.5 -3.8125 5.59375 -3.8125 L 3.515625 -3.8125 L 3.515625 0 Z M 3.515625 -5.8125 L 5.203125 -5.8125 C 5.910156 -5.8125 6.4375 -5.992188 6.78125 -6.359375 C 7.132812 -6.722656 7.3125 -7.195312 7.3125 -7.78125 C 7.3125 -8.363281 7.132812 -8.832031 6.78125 -9.1875 C 6.4375 -9.550781 5.90625 -9.734375 5.1875 -9.734375 L 3.515625 -9.734375 Z M 3.515625 -5.8125 "/></g></g></g><g fill="#edb641" fill-opacity="1"><g transform="translate(97.62378, 202.381921)"><g><path d="M 1.015625 0 L 1.015625 -11.765625 L 8.953125 -11.765625 L 8.953125 -9.71875 L 3.515625 -9.71875 L 3.515625 -6.90625 L 8.546875 -6.90625 L 8.546875 -4.859375 L 3.515625 -4.859375 L 3.515625 -2.046875 L 8.96875 -2.046875 L 8.96875 0 Z M 1.015625 0 "/></g></g></g><g fill="#edb641" fill-opacity="1"><g transform="translate(111.348763, 202.381921)"><g><path d="M 1.015625 0 L 1.015625 -11.765625 L 5.65625 -11.765625 C 7 -11.765625 8.035156 -11.414062 8.765625 -10.71875 C 9.503906 -10.019531 9.875 -9.085938 9.875 -7.921875 C 9.875 -7.117188 9.691406 -6.429688 9.328125 -5.859375 C 8.972656 -5.285156 8.460938 -4.859375 7.796875 -4.578125 L 10.296875 0 L 7.546875 0 L 5.328125 -4.171875 L 3.515625 -4.171875 L 3.515625 0 Z M 3.515625 -6.171875 L 5.203125 -6.171875 C 6.609375 -6.171875 7.3125 -6.753906 7.3125 -7.921875 C 7.3125 -9.128906 6.601562 -9.734375 5.1875 -9.734375 L 3.515625 -9.734375 Z M 3.515625 -6.171875 "/></g></g></g><g fill="#edb641" fill-opacity="1"><g transform="translate(125.780108, 202.381921)"><g><path d="M 1.015625 0 L 1.015625 -11.765625 L 8.8125 -11.765625 L 8.8125 -9.71875 L 3.515625 -9.71875 L 3.515625 -6.90625 L 8.296875 -6.90625 L 8.296875 -4.859375 L 3.515625 -4.859375 L 3.515625 0 Z M 1.015625 0 "/></g></g></g><g fill="#edb641" fill-opacity="1"><g transform="translate(139.057148, 202.381921)"><g><path d="M 11.828125 -5.875 C 11.828125 -4.59375 11.582031 -3.5 11.09375 -2.59375 C 10.613281 -1.695312 9.957031 -1.015625 9.125 -0.546875 C 8.300781 -0.078125 7.367188 0.15625 6.328125 0.15625 C 5.273438 0.15625 4.332031 -0.078125 3.5 -0.546875 C 2.675781 -1.023438 2.019531 -1.710938 1.53125 -2.609375 C 1.050781 -3.515625 0.8125 -4.601562 0.8125 -5.875 C 0.8125 -7.15625 1.050781 -8.242188 1.53125 -9.140625 C 2.019531 -10.046875 2.675781 -10.734375 3.5 -11.203125 C 4.332031 -11.679688 5.273438 -11.921875 6.328125 -11.921875 C 7.367188 -11.921875 8.300781 -11.679688 9.125 -11.203125 C 9.957031 -10.734375 10.613281 -10.046875 11.09375 -9.140625 C 11.582031 -8.242188 11.828125 -7.15625 11.828125 -5.875 Z M 9.3125 -5.875 C 9.3125 -7.125 9.035156 -8.078125 8.484375 -8.734375 C 7.941406 -9.390625 7.222656 -9.71875 6.328125 -9.71875 C 5.421875 -9.71875 4.695312 -9.390625 4.15625 -8.734375 C 3.613281 -8.078125 3.34375 -7.125 3.34375 -5.875 C 3.34375 -4.632812 3.613281 -3.679688 4.15625 -3.015625 C 4.695312 -2.359375 5.421875 -2.03125 6.328125 -2.03125 C 7.222656 -2.03125 7.941406 -2.359375 8.484375 -3.015625 C 9.035156 -3.679688 9.3125 -4.632812 9.3125 -5.875 Z M 9.3125 -5.875 "/></g></g></g><g fill="#edb641" fill-opacity="1"><g transform="translate(155.521436, 202.381921)"><g><path d="M 1.015625 0 L 1.015625 -11.765625 L 5.65625 -11.765625 C 7 -11.765625 8.035156 -11.414062 8.765625 -10.71875 C 9.503906 -10.019531 9.875 -9.085938 9.875 -7.921875 C 9.875 -7.117188 9.691406 -6.429688 9.328125 -5.859375 C 8.972656 -5.285156 8.460938 -4.859375 7.796875 -4.578125 L 10.296875 0 L 7.546875 0 L 5.328125 -4.171875 L 3.515625 -4.171875 L 3.515625 0 Z M 3.515625 -6.171875 L 5.203125 -6.171875 C 6.609375 -6.171875 7.3125 -6.753906 7.3125 -7.921875 C 7.3125 -9.128906 6.601562 -9.734375 5.1875 -9.734375 L 3.515625 -9.734375 Z M 3.515625 -6.171875 "/></g></g></g><g fill="#edb641" fill-opacity="1"><g transform="translate(169.952783, 202.381921)"><g><path d="M 1.015625 -11.765625 L 4.09375 -11.765625 L 7.328125 -3.859375 L 7.46875 -3.859375 L 10.703125 -11.765625 L 13.765625 -11.765625 L 13.765625 0 L 11.359375 0 L 11.359375 -7.65625 L 11.265625 -7.65625 L 8.21875 -0.0625 L 6.578125 -0.0625 L 3.53125 -7.6875 L 3.4375 -7.6875 L 3.4375 0 L 1.015625 0 Z M 1.015625 -11.765625 "/></g></g></g><g fill="#edb641" fill-opacity="1"><g transform="translate(188.714186, 202.381921)"><g><path d="M 3.046875 0 L 0.390625 0 L 4.4375 -11.765625 L 7.65625 -11.765625 L 11.703125 0 L 9.046875 0 L 8.171875 -2.6875 L 3.921875 -2.6875 Z M 4.546875 -4.625 L 7.546875 -4.625 L 6.09375 -9.078125 L 6 -9.078125 Z M 4.546875 -4.625 "/></g></g></g><g fill="#edb641" fill-opacity="1"><g transform="translate(204.62716, 202.381921)"><g><path d="M 10.859375 -11.765625 L 10.859375 0 L 8.71875 0 L 3.59375 -7.40625 L 3.515625 -7.40625 L 3.515625 0 L 1.015625 0 L 1.015625 -11.765625 L 3.203125 -11.765625 L 8.28125 -4.359375 L 8.390625 -4.359375 L 8.390625 -11.765625 Z M 10.859375 -11.765625 "/></g></g></g><g fill="#edb641" fill-opacity="1"><g transform="translate(220.333396, 202.381921)"><g><path d="M 0.578125 -9.71875 L 0.578125 -11.765625 L 10.234375 -11.765625 L 10.234375 -9.71875 L 6.640625 -9.71875 L 6.640625 0 L 4.171875 0 L 4.171875 -9.71875 Z M 0.578125 -9.71875 "/></g></g></g><g fill="#202235" fill-opacity="1"><g transform="translate(234.959163, 202.381921)"><g/></g></g><g fill="#202235" fill-opacity="1"><g transform="translate(242.527877, 202.381921)"><g><path d="M 3.046875 0 L 0.390625 0 L 4.4375 -11.765625 L 7.65625 -11.765625 L 11.703125 0 L 9.046875 0 L 8.171875 -2.6875 L 3.921875 -2.6875 Z M 4.546875 -4.625 L 7.546875 -4.625 L 6.09375 -9.078125 L 6 -9.078125 Z M 4.546875 -4.625 "/></g></g></g><g fill="#202235" fill-opacity="1"><g transform="translate(258.440855, 202.381921)"><g><path d="M 1.015625 0 L 1.015625 -11.765625 L 5.65625 -11.765625 C 6.550781 -11.765625 7.3125 -11.59375 7.9375 -11.25 C 8.570312 -10.914062 9.050781 -10.445312 9.375 -9.84375 C 9.707031 -9.25 9.875 -8.5625 9.875 -7.78125 C 9.875 -7 9.703125 -6.304688 9.359375 -5.703125 C 9.023438 -5.109375 8.539062 -4.644531 7.90625 -4.3125 C 7.269531 -3.976562 6.5 -3.8125 5.59375 -3.8125 L 3.515625 -3.8125 L 3.515625 0 Z M 3.515625 -5.8125 L 5.203125 -5.8125 C 5.910156 -5.8125 6.4375 -5.992188 6.78125 -6.359375 C 7.132812 -6.722656 7.3125 -7.195312 7.3125 -7.78125 C 7.3125 -8.363281 7.132812 -8.832031 6.78125 -9.1875 C 6.4375 -9.550781 5.90625 -9.734375 5.1875 -9.734375 L 3.515625 -9.734375 Z M 3.515625 -5.8125 "/></g></g></g><g fill="#202235" fill-opacity="1"><g transform="translate(272.734368, 202.381921)"><g><path d="M 3.515625 -11.765625 L 3.515625 0 L 1.015625 0 L 1.015625 -11.765625 Z M 3.515625 -11.765625 "/></g></g></g><g fill="#202235" fill-opacity="1"><g transform="translate(281.089842, 202.381921)"><g><path d="M 7.40625 -8.375 C 7.351562 -8.84375 7.148438 -9.203125 6.796875 -9.453125 C 6.453125 -9.710938 5.984375 -9.84375 5.390625 -9.84375 C 4.785156 -9.84375 4.316406 -9.71875 3.984375 -9.46875 C 3.660156 -9.21875 3.5 -8.90625 3.5 -8.53125 C 3.488281 -8.101562 3.664062 -7.78125 4.03125 -7.5625 C 4.40625 -7.351562 4.847656 -7.1875 5.359375 -7.0625 L 6.421875 -6.8125 C 7.097656 -6.664062 7.703125 -6.445312 8.234375 -6.15625 C 8.765625 -5.863281 9.179688 -5.488281 9.484375 -5.03125 C 9.796875 -4.570312 9.953125 -4.015625 9.953125 -3.359375 C 9.941406 -2.285156 9.535156 -1.425781 8.734375 -0.78125 C 7.929688 -0.144531 6.8125 0.171875 5.375 0.171875 C 3.945312 0.171875 2.804688 -0.148438 1.953125 -0.796875 C 1.109375 -1.453125 0.671875 -2.414062 0.640625 -3.6875 L 3.046875 -3.6875 C 3.085938 -3.101562 3.316406 -2.660156 3.734375 -2.359375 C 4.160156 -2.066406 4.703125 -1.921875 5.359375 -1.921875 C 5.984375 -1.921875 6.484375 -2.050781 6.859375 -2.3125 C 7.242188 -2.582031 7.4375 -2.929688 7.4375 -3.359375 C 7.4375 -3.765625 7.257812 -4.070312 6.90625 -4.28125 C 6.5625 -4.5 6.070312 -4.679688 5.4375 -4.828125 L 4.15625 -5.15625 C 3.164062 -5.394531 2.382812 -5.769531 1.8125 -6.28125 C 1.238281 -6.800781 0.953125 -7.492188 0.953125 -8.359375 C 0.953125 -9.066406 1.144531 -9.6875 1.53125 -10.21875 C 1.914062 -10.757812 2.441406 -11.175781 3.109375 -11.46875 C 3.785156 -11.769531 4.550781 -11.921875 5.40625 -11.921875 C 6.28125 -11.921875 7.039062 -11.769531 7.6875 -11.46875 C 8.34375 -11.175781 8.851562 -10.757812 9.21875 -10.21875 C 9.582031 -9.6875 9.769531 -9.070312 9.78125 -8.375 Z M 7.40625 -8.375 "/></g></g></g></svg>