<svg xmlns="http://www.w3.org/2000/svg" xmlns:xlink="http://www.w3.org/1999/xlink" width="500" zoomAndPan="magnify" viewBox="0 0 375 374.999991" height="500" preserveAspectRatio="xMidYMid meet" version="1.0"><defs><g/></defs><g fill="#ffffff" fill-opacity="1"><g transform="translate(38.39185, 181.693406)"><g><path d="M 2.15625 0 L 2.15625 -17.765625 L 12.875 -17.765625 L 12.875 -15.859375 L 4.296875 -15.859375 L 4.296875 -9.859375 L 12.3125 -9.859375 L 12.3125 -7.9375 L 4.296875 -7.9375 L 4.296875 -1.90625 L 13.015625 -1.90625 L 13.015625 0 Z M 2.15625 0 "/></g></g></g><g fill="#ffffff" fill-opacity="1"><g transform="translate(54.779996, 181.693406)"><g><path d="M 2.15625 0 L 2.15625 -17.765625 L 12.796875 -17.765625 L 12.796875 -15.859375 L 4.296875 -15.859375 L 4.296875 -9.859375 L 12 -9.859375 L 12 -7.9375 L 4.296875 -7.9375 L 4.296875 0 Z M 2.15625 0 "/></g></g></g><g fill="#ffffff" fill-opacity="1"><g transform="translate(70.890623, 181.693406)"><g><path d="M 2.15625 0 L 2.15625 -17.765625 L 12.796875 -17.765625 L 12.796875 -15.859375 L 4.296875 -15.859375 L 4.296875 -9.859375 L 12 -9.859375 L 12 -7.9375 L 4.296875 -7.9375 L 4.296875 0 Z M 2.15625 0 "/></g></g></g><g fill="#ffffff" fill-opacity="1"><g transform="translate(87.001251, 181.693406)"><g><path d="M 17.140625 -8.875 C 17.140625 -7.007812 16.800781 -5.394531 16.125 -4.03125 C 15.445312 -2.664062 14.515625 -1.609375 13.328125 -0.859375 C 12.148438 -0.117188 10.804688 0.25 9.296875 0.25 C 7.785156 0.25 6.4375 -0.117188 5.25 -0.859375 C 4.070312 -1.609375 3.144531 -2.664062 2.46875 -4.03125 C 1.789062 -5.394531 1.453125 -7.007812 1.453125 -8.875 C 1.453125 -10.75 1.789062 -12.367188 2.46875 -13.734375 C 3.144531 -15.097656 4.070312 -16.148438 5.25 -16.890625 C 6.4375 -17.628906 7.785156 -18 9.296875 -18 C 10.804688 -18 12.148438 -17.628906 13.328125 -16.890625 C 14.515625 -16.148438 15.445312 -15.097656 16.125 -13.734375 C 16.800781 -12.367188 17.140625 -10.75 17.140625 -8.875 Z M 15.0625 -8.875 C 15.0625 -10.414062 14.800781 -11.710938 14.28125 -12.765625 C 13.769531 -13.828125 13.078125 -14.628906 12.203125 -15.171875 C 11.335938 -15.710938 10.367188 -15.984375 9.296875 -15.984375 C 8.222656 -15.984375 7.25 -15.710938 6.375 -15.171875 C 5.507812 -14.628906 4.816406 -13.828125 4.296875 -12.765625 C 3.785156 -11.710938 3.53125 -10.414062 3.53125 -8.875 C 3.53125 -7.34375 3.785156 -6.046875 4.296875 -4.984375 C 4.816406 -3.929688 5.507812 -3.128906 6.375 -2.578125 C 7.25 -2.035156 8.222656 -1.765625 9.296875 -1.765625 C 10.367188 -1.765625 11.335938 -2.035156 12.203125 -2.578125 C 13.078125 -3.128906 13.769531 -3.929688 14.28125 -4.984375 C 14.800781 -6.046875 15.0625 -7.34375 15.0625 -8.875 Z M 15.0625 -8.875 "/></g></g></g><g fill="#ffffff" fill-opacity="1"><g transform="translate(107.378737, 181.693406)"><g><path d="M 2.15625 0 L 2.15625 -17.765625 L 8.15625 -17.765625 C 9.539062 -17.765625 10.675781 -17.523438 11.5625 -17.046875 C 12.457031 -16.578125 13.117188 -15.929688 13.546875 -15.109375 C 13.972656 -14.296875 14.1875 -13.363281 14.1875 -12.3125 C 14.1875 -11.132812 13.914062 -10.109375 13.375 -9.234375 C 12.832031 -8.359375 11.992188 -7.726562 10.859375 -7.34375 L 14.875 0 L 12.390625 0 L 8.640625 -6.953125 C 8.492188 -6.941406 8.34375 -6.9375 8.1875 -6.9375 L 4.296875 -6.9375 L 4.296875 0 Z M 4.296875 -8.875 L 8.125 -8.875 C 9.539062 -8.875 10.550781 -9.179688 11.15625 -9.796875 C 11.769531 -10.410156 12.078125 -11.25 12.078125 -12.3125 C 12.078125 -13.382812 11.769531 -14.242188 11.15625 -14.890625 C 10.550781 -15.535156 9.523438 -15.859375 8.078125 -15.859375 L 4.296875 -15.859375 Z M 4.296875 -8.875 "/></g></g></g><g fill="#ffffff" fill-opacity="1"><g transform="translate(124.772897, 181.693406)"><g><path d="M 1.171875 -15.859375 L 1.171875 -17.765625 L 14.5 -17.765625 L 14.5 -15.859375 L 8.921875 -15.859375 L 8.921875 0 L 6.765625 0 L 6.765625 -15.859375 Z M 1.171875 -15.859375 "/></g></g></g><g fill="#ffffff" fill-opacity="1"><g transform="translate(142.236437, 181.693406)"><g><path d="M 2.15625 0 L 2.15625 -17.765625 L 4.296875 -17.765625 L 4.296875 -1.90625 L 12.5625 -1.90625 L 12.5625 0 Z M 2.15625 0 "/></g></g></g><g fill="#ffffff" fill-opacity="1"><g transform="translate(157.757336, 181.693406)"><g><path d="M 2.15625 0 L 2.15625 -17.765625 L 12.875 -17.765625 L 12.875 -15.859375 L 4.296875 -15.859375 L 4.296875 -9.859375 L 12.3125 -9.859375 L 12.3125 -7.9375 L 4.296875 -7.9375 L 4.296875 -1.90625 L 13.015625 -1.90625 L 13.015625 0 Z M 2.15625 0 "/></g></g></g><g fill="#ffffff" fill-opacity="1"><g transform="translate(174.145481, 181.693406)"><g><path d="M 11.859375 -13.328125 C 11.753906 -14.203125 11.332031 -14.878906 10.59375 -15.359375 C 9.851562 -15.847656 8.945312 -16.09375 7.875 -16.09375 C 6.695312 -16.09375 5.75 -15.8125 5.03125 -15.25 C 4.3125 -14.695312 3.953125 -13.992188 3.953125 -13.140625 C 3.953125 -12.503906 4.144531 -11.988281 4.53125 -11.59375 C 4.925781 -11.207031 5.390625 -10.90625 5.921875 -10.6875 C 6.460938 -10.476562 6.953125 -10.316406 7.390625 -10.203125 L 9.1875 -9.71875 C 9.65625 -9.59375 10.171875 -9.421875 10.734375 -9.203125 C 11.304688 -8.992188 11.851562 -8.703125 12.375 -8.328125 C 12.90625 -7.960938 13.335938 -7.492188 13.671875 -6.921875 C 14.015625 -6.359375 14.1875 -5.660156 14.1875 -4.828125 C 14.1875 -3.859375 13.9375 -2.988281 13.4375 -2.21875 C 12.9375 -1.445312 12.207031 -0.832031 11.25 -0.375 C 10.289062 0.0820312 9.128906 0.3125 7.765625 0.3125 C 5.859375 0.3125 4.34375 -0.132812 3.21875 -1.03125 C 2.101562 -1.9375 1.492188 -3.117188 1.390625 -4.578125 L 3.609375 -4.578125 C 3.660156 -3.910156 3.882812 -3.359375 4.28125 -2.921875 C 4.675781 -2.484375 5.179688 -2.15625 5.796875 -1.9375 C 6.410156 -1.726562 7.066406 -1.625 7.765625 -1.625 C 8.585938 -1.625 9.328125 -1.757812 9.984375 -2.03125 C 10.640625 -2.300781 11.15625 -2.675781 11.53125 -3.15625 C 11.914062 -3.644531 12.109375 -4.210938 12.109375 -4.859375 C 12.109375 -5.441406 11.941406 -5.914062 11.609375 -6.28125 C 11.285156 -6.65625 10.851562 -6.957031 10.3125 -7.1875 C 9.769531 -7.425781 9.1875 -7.632812 8.5625 -7.8125 L 6.390625 -8.421875 C 4.992188 -8.828125 3.890625 -9.398438 3.078125 -10.140625 C 2.273438 -10.878906 1.875 -11.847656 1.875 -13.046875 C 1.875 -14.035156 2.144531 -14.898438 2.6875 -15.640625 C 3.226562 -16.390625 3.957031 -16.96875 4.875 -17.375 C 5.789062 -17.789062 6.8125 -18 7.9375 -18 C 9.082031 -18 10.097656 -17.796875 10.984375 -17.390625 C 11.878906 -16.984375 12.585938 -16.425781 13.109375 -15.71875 C 13.640625 -15.019531 13.921875 -14.222656 13.953125 -13.328125 Z M 11.859375 -13.328125 "/></g></g></g><g fill="#ffffff" fill-opacity="1"><g transform="translate(191.504942, 181.693406)"><g><path d="M 11.859375 -13.328125 C 11.753906 -14.203125 11.332031 -14.878906 10.59375 -15.359375 C 9.851562 -15.847656 8.945312 -16.09375 7.875 -16.09375 C 6.695312 -16.09375 5.75 -15.8125 5.03125 -15.25 C 4.3125 -14.695312 3.953125 -13.992188 3.953125 -13.140625 C 3.953125 -12.503906 4.144531 -11.988281 4.53125 -11.59375 C 4.925781 -11.207031 5.390625 -10.90625 5.921875 -10.6875 C 6.460938 -10.476562 6.953125 -10.316406 7.390625 -10.203125 L 9.1875 -9.71875 C 9.65625 -9.59375 10.171875 -9.421875 10.734375 -9.203125 C 11.304688 -8.992188 11.851562 -8.703125 12.375 -8.328125 C 12.90625 -7.960938 13.335938 -7.492188 13.671875 -6.921875 C 14.015625 -6.359375 14.1875 -5.660156 14.1875 -4.828125 C 14.1875 -3.859375 13.9375 -2.988281 13.4375 -2.21875 C 12.9375 -1.445312 12.207031 -0.832031 11.25 -0.375 C 10.289062 0.0820312 9.128906 0.3125 7.765625 0.3125 C 5.859375 0.3125 4.34375 -0.132812 3.21875 -1.03125 C 2.101562 -1.9375 1.492188 -3.117188 1.390625 -4.578125 L 3.609375 -4.578125 C 3.660156 -3.910156 3.882812 -3.359375 4.28125 -2.921875 C 4.675781 -2.484375 5.179688 -2.15625 5.796875 -1.9375 C 6.410156 -1.726562 7.066406 -1.625 7.765625 -1.625 C 8.585938 -1.625 9.328125 -1.757812 9.984375 -2.03125 C 10.640625 -2.300781 11.15625 -2.675781 11.53125 -3.15625 C 11.914062 -3.644531 12.109375 -4.210938 12.109375 -4.859375 C 12.109375 -5.441406 11.941406 -5.914062 11.609375 -6.28125 C 11.285156 -6.65625 10.851562 -6.957031 10.3125 -7.1875 C 9.769531 -7.425781 9.1875 -7.632812 8.5625 -7.8125 L 6.390625 -8.421875 C 4.992188 -8.828125 3.890625 -9.398438 3.078125 -10.140625 C 2.273438 -10.878906 1.875 -11.847656 1.875 -13.046875 C 1.875 -14.035156 2.144531 -14.898438 2.6875 -15.640625 C 3.226562 -16.390625 3.957031 -16.96875 4.875 -17.375 C 5.789062 -17.789062 6.8125 -18 7.9375 -18 C 9.082031 -18 10.097656 -17.796875 10.984375 -17.390625 C 11.878906 -16.984375 12.585938 -16.425781 13.109375 -15.71875 C 13.640625 -15.019531 13.921875 -14.222656 13.953125 -13.328125 Z M 11.859375 -13.328125 "/></g></g></g><g fill="#ffffff" fill-opacity="1"><g transform="translate(208.864404, 181.693406)"><g><path d="M 2.15625 0 L 2.15625 -17.765625 L 4.296875 -17.765625 L 4.296875 -1.90625 L 12.5625 -1.90625 L 12.5625 0 Z M 2.15625 0 "/></g></g></g><g fill="#ffffff" fill-opacity="1"><g transform="translate(224.385303, 181.693406)"><g><path d="M 0.625 -17.765625 L 3.09375 -17.765625 L 8.015625 -9.46875 L 8.21875 -9.46875 L 13.140625 -17.765625 L 15.609375 -17.765625 L 9.1875 -7.3125 L 9.1875 0 L 7.046875 0 L 7.046875 -7.3125 Z M 0.625 -17.765625 "/></g></g></g><g fill="#ffffff" fill-opacity="1"><g transform="translate(242.403876, 181.693406)"><g/></g></g><g fill="#ffffff" fill-opacity="1"><g transform="translate(251.056181, 181.693406)"><g><path d="M 2.15625 0 L 2.15625 -17.765625 L 8.359375 -17.765625 C 9.597656 -17.765625 10.617188 -17.550781 11.421875 -17.125 C 12.222656 -16.695312 12.820312 -16.125 13.21875 -15.40625 C 13.613281 -14.695312 13.8125 -13.910156 13.8125 -13.046875 C 13.8125 -12.285156 13.675781 -11.65625 13.40625 -11.15625 C 13.132812 -10.65625 12.78125 -10.257812 12.34375 -9.96875 C 11.90625 -9.6875 11.429688 -9.472656 10.921875 -9.328125 L 10.921875 -9.15625 C 11.472656 -9.125 12.019531 -8.929688 12.5625 -8.578125 C 13.113281 -8.234375 13.570312 -7.738281 13.9375 -7.09375 C 14.3125 -6.445312 14.5 -5.65625 14.5 -4.71875 C 14.5 -3.820312 14.296875 -3.019531 13.890625 -2.3125 C 13.484375 -1.601562 12.84375 -1.039062 11.96875 -0.625 C 11.101562 -0.207031 9.96875 0 8.5625 0 Z M 4.296875 -1.90625 L 8.5625 -1.90625 C 9.96875 -1.90625 10.96875 -2.175781 11.5625 -2.71875 C 12.15625 -3.269531 12.453125 -3.9375 12.453125 -4.71875 C 12.453125 -5.320312 12.296875 -5.878906 11.984375 -6.390625 C 11.679688 -6.898438 11.242188 -7.304688 10.671875 -7.609375 C 10.109375 -7.921875 9.441406 -8.078125 8.671875 -8.078125 L 4.296875 -8.078125 Z M 4.296875 -9.953125 L 8.296875 -9.953125 C 9.265625 -9.953125 10.082031 -10.234375 10.75 -10.796875 C 11.425781 -11.359375 11.765625 -12.109375 11.765625 -13.046875 C 11.765625 -13.828125 11.488281 -14.488281 10.9375 -15.03125 C 10.394531 -15.582031 9.535156 -15.859375 8.359375 -15.859375 L 4.296875 -15.859375 Z M 4.296875 -9.953125 "/></g></g></g><g fill="#ffffff" fill-opacity="1"><g transform="translate(268.727872, 181.693406)"><g><path d="M 13.8125 -17.765625 L 15.953125 -17.765625 L 15.953125 -6 C 15.953125 -4.664062 15.632812 -3.523438 15 -2.578125 C 14.375 -1.640625 13.535156 -0.921875 12.484375 -0.421875 C 11.441406 0.0664062 10.296875 0.3125 9.046875 0.3125 C 7.804688 0.3125 6.660156 0.0664062 5.609375 -0.421875 C 4.566406 -0.921875 3.726562 -1.640625 3.09375 -2.578125 C 2.46875 -3.523438 2.15625 -4.664062 2.15625 -6 L 2.15625 -17.765625 L 4.296875 -17.765625 L 4.296875 -6 C 4.296875 -5.070312 4.515625 -4.289062 4.953125 -3.65625 C 5.398438 -3.019531 5.984375 -2.535156 6.703125 -2.203125 C 7.421875 -1.867188 8.203125 -1.703125 9.046875 -1.703125 C 9.890625 -1.703125 10.671875 -1.867188 11.390625 -2.203125 C 12.117188 -2.535156 12.703125 -3.019531 13.140625 -3.65625 C 13.585938 -4.289062 13.8125 -5.070312 13.8125 -6 Z M 13.8125 -17.765625 "/></g></g></g><g fill="#ffffff" fill-opacity="1"><g transform="translate(288.619716, 181.693406)"><g><path d="M 4.296875 -17.765625 L 4.296875 0 L 2.15625 0 L 2.15625 -17.765625 Z M 4.296875 -17.765625 "/></g></g></g><g fill="#ffffff" fill-opacity="1"><g transform="translate(296.855754, 181.693406)"><g><path d="M 2.15625 0 L 2.15625 -17.765625 L 4.296875 -17.765625 L 4.296875 -1.90625 L 12.5625 -1.90625 L 12.5625 0 Z M 2.15625 0 "/></g></g></g><g fill="#ffffff" fill-opacity="1"><g transform="translate(312.376665, 181.693406)"><g><path d="M 7.625 0 L 2.15625 0 L 2.15625 -17.765625 L 7.875 -17.765625 C 9.59375 -17.765625 11.066406 -17.410156 12.296875 -16.703125 C 13.523438 -15.992188 14.460938 -14.976562 15.109375 -13.65625 C 15.765625 -12.332031 16.09375 -10.753906 16.09375 -8.921875 C 16.09375 -7.066406 15.765625 -5.472656 15.109375 -4.140625 C 14.453125 -2.804688 13.492188 -1.78125 12.234375 -1.0625 C 10.972656 -0.351562 9.4375 0 7.625 0 Z M 4.296875 -1.90625 L 7.5 -1.90625 C 9.695312 -1.90625 11.332031 -2.53125 12.40625 -3.78125 C 13.476562 -5.03125 14.015625 -6.742188 14.015625 -8.921875 C 14.015625 -11.066406 13.488281 -12.757812 12.4375 -14 C 11.382812 -15.238281 9.816406 -15.859375 7.734375 -15.859375 L 4.296875 -15.859375 Z M 4.296875 -1.90625 "/></g></g></g><g fill="#ffffff" fill-opacity="1"><g transform="translate(331.712143, 181.693406)"><g/></g></g><g fill="#edb641" fill-opacity="1"><g transform="translate(79.533392, 202.381907)"><g><path d="M 1.015625 0 L 1.015625 -11.765625 L 5.65625 -11.765625 C 6.550781 -11.765625 7.3125 -11.59375 7.9375 -11.25 C 8.570312 -10.914062 9.050781 -10.445312 9.375 -9.84375 C 9.707031 -9.25 9.875 -8.5625 9.875 -7.78125 C 9.875 -7 9.703125 -6.304688 9.359375 -5.703125 C 9.023438 -5.109375 8.539062 -4.644531 7.90625 -4.3125 C 7.269531 -3.976562 6.5 -3.8125 5.59375 -3.8125 L 3.515625 -3.8125 L 3.515625 0 Z M 3.515625 -5.8125 L 5.203125 -5.8125 C 5.910156 -5.8125 6.4375 -5.992188 6.78125 -6.359375 C 7.132812 -6.722656 7.3125 -7.195312 7.3125 -7.78125 C 7.3125 -8.363281 7.132812 -8.832031 6.78125 -9.1875 C 6.4375 -9.550781 5.90625 -9.734375 5.1875 -9.734375 L 3.515625 -9.734375 Z M 3.515625 -5.8125 "/></g></g></g><g fill="#edb641" fill-opacity="1"><g transform="translate(93.826906, 202.381907)"><g><path d="M 1.015625 0 L 1.015625 -11.765625 L 8.953125 -11.765625 L 8.953125 -9.71875 L 3.515625 -9.71875 L 3.515625 -6.90625 L 8.546875 -6.90625 L 8.546875 -4.859375 L 3.515625 -4.859375 L 3.515625 -2.046875 L 8.96875 -2.046875 L 8.96875 0 Z M 1.015625 0 "/></g></g></g><g fill="#edb641" fill-opacity="1"><g transform="translate(107.551888, 202.381907)"><g><path d="M 1.015625 0 L 1.015625 -11.765625 L 5.65625 -11.765625 C 7 -11.765625 8.035156 -11.414062 8.765625 -10.71875 C 9.503906 -10.019531 9.875 -9.085938 9.875 -7.921875 C 9.875 -7.117188 9.691406 -6.429688 9.328125 -5.859375 C 8.972656 -5.285156 8.460938 -4.859375 7.796875 -4.578125 L 10.296875 0 L 7.546875 0 L 5.328125 -4.171875 L 3.515625 -4.171875 L 3.515625 0 Z M 3.515625 -6.171875 L 5.203125 -6.171875 C 6.609375 -6.171875 7.3125 -6.753906 7.3125 -7.921875 C 7.3125 -9.128906 6.601562 -9.734375 5.1875 -9.734375 L 3.515625 -9.734375 Z M 3.515625 -6.171875 "/></g></g></g><g fill="#edb641" fill-opacity="1"><g transform="translate(121.983233, 202.381907)"><g><path d="M 1.015625 0 L 1.015625 -11.765625 L 8.8125 -11.765625 L 8.8125 -9.71875 L 3.515625 -9.71875 L 3.515625 -6.90625 L 8.296875 -6.90625 L 8.296875 -4.859375 L 3.515625 -4.859375 L 3.515625 0 Z M 1.015625 0 "/></g></g></g><g fill="#edb641" fill-opacity="1"><g transform="translate(135.260273, 202.381907)"><g><path d="M 11.828125 -5.875 C 11.828125 -4.59375 11.582031 -3.5 11.09375 -2.59375 C 10.613281 -1.695312 9.957031 -1.015625 9.125 -0.546875 C 8.300781 -0.078125 7.367188 0.15625 6.328125 0.15625 C 5.273438 0.15625 4.332031 -0.078125 3.5 -0.546875 C 2.675781 -1.023438 2.019531 -1.710938 1.53125 -2.609375 C 1.050781 -3.515625 0.8125 -4.601562 0.8125 -5.875 C 0.8125 -7.15625 1.050781 -8.242188 1.53125 -9.140625 C 2.019531 -10.046875 2.675781 -10.734375 3.5 -11.203125 C 4.332031 -11.679688 5.273438 -11.921875 6.328125 -11.921875 C 7.367188 -11.921875 8.300781 -11.679688 9.125 -11.203125 C 9.957031 -10.734375 10.613281 -10.046875 11.09375 -9.140625 C 11.582031 -8.242188 11.828125 -7.15625 11.828125 -5.875 Z M 9.3125 -5.875 C 9.3125 -7.125 9.035156 -8.078125 8.484375 -8.734375 C 7.941406 -9.390625 7.222656 -9.71875 6.328125 -9.71875 C 5.421875 -9.71875 4.695312 -9.390625 4.15625 -8.734375 C 3.613281 -8.078125 3.34375 -7.125 3.34375 -5.875 C 3.34375 -4.632812 3.613281 -3.679688 4.15625 -3.015625 C 4.695312 -2.359375 5.421875 -2.03125 6.328125 -2.03125 C 7.222656 -2.03125 7.941406 -2.359375 8.484375 -3.015625 C 9.035156 -3.679688 9.3125 -4.632812 9.3125 -5.875 Z M 9.3125 -5.875 "/></g></g></g><g fill="#edb641" fill-opacity="1"><g transform="translate(151.724561, 202.381907)"><g><path d="M 1.015625 0 L 1.015625 -11.765625 L 5.65625 -11.765625 C 7 -11.765625 8.035156 -11.414062 8.765625 -10.71875 C 9.503906 -10.019531 9.875 -9.085938 9.875 -7.921875 C 9.875 -7.117188 9.691406 -6.429688 9.328125 -5.859375 C 8.972656 -5.285156 8.460938 -4.859375 7.796875 -4.578125 L 10.296875 0 L 7.546875 0 L 5.328125 -4.171875 L 3.515625 -4.171875 L 3.515625 0 Z M 3.515625 -6.171875 L 5.203125 -6.171875 C 6.609375 -6.171875 7.3125 -6.753906 7.3125 -7.921875 C 7.3125 -9.128906 6.601562 -9.734375 5.1875 -9.734375 L 3.515625 -9.734375 Z M 3.515625 -6.171875 "/></g></g></g><g fill="#edb641" fill-opacity="1"><g transform="translate(166.155909, 202.381907)"><g><path d="M 1.015625 -11.765625 L 4.09375 -11.765625 L 7.328125 -3.859375 L 7.46875 -3.859375 L 10.703125 -11.765625 L 13.765625 -11.765625 L 13.765625 0 L 11.359375 0 L 11.359375 -7.65625 L 11.265625 -7.65625 L 8.21875 -0.0625 L 6.578125 -0.0625 L 3.53125 -7.6875 L 3.4375 -7.6875 L 3.4375 0 L 1.015625 0 Z M 1.015625 -11.765625 "/></g></g></g><g fill="#edb641" fill-opacity="1"><g transform="translate(184.917311, 202.381907)"><g><path d="M 3.046875 0 L 0.390625 0 L 4.4375 -11.765625 L 7.65625 -11.765625 L 11.703125 0 L 9.046875 0 L 8.171875 -2.6875 L 3.921875 -2.6875 Z M 4.546875 -4.625 L 7.546875 -4.625 L 6.09375 -9.078125 L 6 -9.078125 Z M 4.546875 -4.625 "/></g></g></g><g fill="#edb641" fill-opacity="1"><g transform="translate(200.830285, 202.381907)"><g><path d="M 10.859375 -11.765625 L 10.859375 0 L 8.71875 0 L 3.59375 -7.40625 L 3.515625 -7.40625 L 3.515625 0 L 1.015625 0 L 1.015625 -11.765625 L 3.203125 -11.765625 L 8.28125 -4.359375 L 8.390625 -4.359375 L 8.390625 -11.765625 Z M 10.859375 -11.765625 "/></g></g></g><g fill="#edb641" fill-opacity="1"><g transform="translate(216.536522, 202.381907)"><g><path d="M 0.578125 -9.71875 L 0.578125 -11.765625 L 10.234375 -11.765625 L 10.234375 -9.71875 L 6.640625 -9.71875 L 6.640625 0 L 4.171875 0 L 4.171875 -9.71875 Z M 0.578125 -9.71875 "/></g></g></g><g fill="#edb641" fill-opacity="1"><g transform="translate(231.162288, 202.381907)"><g/></g></g><g fill="#edb641" fill-opacity="1"><g transform="translate(238.731002, 202.381907)"><g/></g></g><g fill="#edb641" fill-opacity="1"><g transform="translate(246.299716, 202.381907)"><g/></g></g><g fill="#edb641" fill-opacity="1"><g transform="translate(253.86843, 202.381907)"><g/></g></g><g fill="#edb641" fill-opacity="1"><g transform="translate(261.437144, 202.381907)"><g/></g></g><g fill="#edb641" fill-opacity="1"><g transform="translate(269.00586, 202.381907)"><g/></g></g><g fill="#edb641" fill-opacity="1"><g transform="translate(276.574575, 202.381907)"><g/></g></g><g fill="#edb641" fill-opacity="1"><g transform="translate(284.143291, 202.381907)"><g/></g></g><g fill="#edb641" fill-opacity="1"><g transform="translate(291.712007, 202.381907)"><g/></g></g><g fill="#ffffff" fill-opacity="1"><g transform="translate(88.580266, 202.381907)"><g/></g></g><g fill="#ffffff" fill-opacity="1"><g transform="translate(96.947228, 202.381907)"><g/></g></g><g fill="#ffffff" fill-opacity="1"><g transform="translate(105.314191, 202.381907)"><g/></g></g><g fill="#ffffff" fill-opacity="1"><g transform="translate(113.681151, 202.381907)"><g/></g></g><g fill="#ffffff" fill-opacity="1"><g transform="translate(122.048115, 202.381907)"><g/></g></g><g fill="#ffffff" fill-opacity="1"><g transform="translate(130.415079, 202.381907)"><g/></g></g><g fill="#ffffff" fill-opacity="1"><g transform="translate(138.782043, 202.381907)"><g/></g></g><g fill="#ffffff" fill-opacity="1"><g transform="translate(147.149007, 202.381907)"><g/></g></g><g fill="#ffffff" fill-opacity="1"><g transform="translate(155.515971, 202.381907)"><g/></g></g><g fill="#ffffff" fill-opacity="1"><g transform="translate(163.882934, 202.381907)"><g/></g></g><g fill="#ffffff" fill-opacity="1"><g transform="translate(172.249898, 202.381907)"><g/></g></g><g fill="#ffffff" fill-opacity="1"><g transform="translate(180.616862, 202.381907)"><g/></g></g><g fill="#ffffff" fill-opacity="1"><g transform="translate(188.98382, 202.381907)"><g/></g></g><g fill="#ffffff" fill-opacity="1"><g transform="translate(197.350778, 202.381907)"><g/></g></g><g fill="#ffffff" fill-opacity="1"><g transform="translate(205.717736, 202.381907)"><g/></g></g><g fill="#ffffff" fill-opacity="1"><g transform="translate(214.084694, 202.381907)"><g/></g></g><g fill="#ffffff" fill-opacity="1"><g transform="translate(222.451652, 202.381907)"><g/></g></g><g fill="#ffffff" fill-opacity="1"><g transform="translate(230.81861, 202.381907)"><g/></g></g><g fill="#ffffff" fill-opacity="1"><g transform="translate(239.177912, 202.381907)"><g><path d="M 1.90625 0 L 0.40625 0 L 4.734375 -11.765625 L 6.203125 -11.765625 L 10.515625 0 L 9.03125 0 L 7.84375 -3.328125 L 3.09375 -3.328125 Z M 3.53125 -4.59375 L 7.390625 -4.59375 L 5.515625 -9.90625 L 5.421875 -9.90625 Z M 3.53125 -4.59375 "/></g></g></g><g fill="#ffffff" fill-opacity="1"><g transform="translate(253.930849, 202.381907)"><g><path d="M 1.421875 0 L 1.421875 -11.765625 L 5.390625 -11.765625 C 6.316406 -11.765625 7.070312 -11.597656 7.65625 -11.265625 C 8.25 -10.929688 8.6875 -10.484375 8.96875 -9.921875 C 9.25 -9.359375 9.390625 -8.734375 9.390625 -8.046875 C 9.390625 -7.347656 9.25 -6.710938 8.96875 -6.140625 C 8.6875 -5.578125 8.253906 -5.128906 7.671875 -4.796875 C 7.085938 -4.460938 6.335938 -4.296875 5.421875 -4.296875 L 2.84375 -4.296875 L 2.84375 0 Z M 2.84375 -5.5625 L 5.375 -5.5625 C 6.320312 -5.5625 6.992188 -5.796875 7.390625 -6.265625 C 7.796875 -6.742188 8 -7.335938 8 -8.046875 C 8 -8.753906 7.796875 -9.335938 7.390625 -9.796875 C 6.984375 -10.265625 6.304688 -10.5 5.359375 -10.5 L 2.84375 -10.5 Z M 2.84375 -5.5625 "/></g></g></g><g fill="#ffffff" fill-opacity="1"><g transform="translate(268.017626, 202.381907)"><g><path d="M 2.84375 -11.765625 L 2.84375 0 L 1.421875 0 L 1.421875 -11.765625 Z M 2.84375 -11.765625 "/></g></g></g><g fill="#ffffff" fill-opacity="1"><g transform="translate(276.108933, 202.381907)"><g><path d="M 7.859375 -8.828125 C 7.785156 -9.398438 7.503906 -9.847656 7.015625 -10.171875 C 6.523438 -10.492188 5.925781 -10.65625 5.21875 -10.65625 C 4.4375 -10.65625 3.804688 -10.46875 3.328125 -10.09375 C 2.859375 -9.726562 2.625 -9.265625 2.625 -8.703125 C 2.625 -8.285156 2.75 -7.945312 3 -7.6875 C 3.257812 -7.425781 3.566406 -7.222656 3.921875 -7.078125 C 4.273438 -6.941406 4.597656 -6.832031 4.890625 -6.75 L 6.09375 -6.4375 C 6.394531 -6.351562 6.734375 -6.238281 7.109375 -6.09375 C 7.484375 -5.957031 7.84375 -5.765625 8.1875 -5.515625 C 8.539062 -5.273438 8.828125 -4.960938 9.046875 -4.578125 C 9.273438 -4.203125 9.390625 -3.738281 9.390625 -3.1875 C 9.390625 -2.550781 9.222656 -1.976562 8.890625 -1.46875 C 8.566406 -0.957031 8.085938 -0.550781 7.453125 -0.25 C 6.816406 0.0507812 6.046875 0.203125 5.140625 0.203125 C 3.878906 0.203125 2.875 -0.09375 2.125 -0.6875 C 1.382812 -1.28125 0.984375 -2.0625 0.921875 -3.03125 L 2.390625 -3.03125 C 2.429688 -2.582031 2.582031 -2.210938 2.84375 -1.921875 C 3.101562 -1.640625 3.429688 -1.425781 3.828125 -1.28125 C 4.234375 -1.144531 4.671875 -1.078125 5.140625 -1.078125 C 5.691406 -1.078125 6.179688 -1.164062 6.609375 -1.34375 C 7.046875 -1.519531 7.390625 -1.769531 7.640625 -2.09375 C 7.890625 -2.414062 8.015625 -2.789062 8.015625 -3.21875 C 8.015625 -3.601562 7.90625 -3.914062 7.6875 -4.15625 C 7.46875 -4.40625 7.179688 -4.609375 6.828125 -4.765625 C 6.472656 -4.921875 6.085938 -5.054688 5.671875 -5.171875 L 4.234375 -5.578125 C 3.304688 -5.847656 2.570312 -6.226562 2.03125 -6.71875 C 1.5 -7.207031 1.234375 -7.847656 1.234375 -8.640625 C 1.234375 -9.296875 1.410156 -9.867188 1.765625 -10.359375 C 2.128906 -10.847656 2.613281 -11.226562 3.21875 -11.5 C 3.832031 -11.78125 4.515625 -11.921875 5.265625 -11.921875 C 6.015625 -11.921875 6.6875 -11.785156 7.28125 -11.515625 C 7.875 -11.242188 8.34375 -10.875 8.6875 -10.40625 C 9.03125 -9.945312 9.210938 -9.421875 9.234375 -8.828125 Z M 7.859375 -8.828125 "/></g></g></g></svg>