<svg xmlns="http://www.w3.org/2000/svg" viewBox="0 0 476 476"><defs><style>.cls-1{fill:#1d2433;}.cls-2{fill:#ffae57;}.cls-3{fill:#ffd580;}.cls-4{fill:#d6dbe1;}.cls-5{fill:#fff;}</style></defs><g id="logo"><rect id="rect" class="cls-1" width="476" height="476"/><rect id="rect-rounded" class="cls-1" width="476" height="476" rx="24"/><g id="star"><path id="dark1" class="cls-2" d="M154.33,17l44.25,137.57a.88.88,0,0,0,1.11.57L340.8,110a.88.88,0,0,1,.74,1.59L211,193.88a.88.88,0,0,0-.22,1.3L309.45,316a.88.88,0,0,1-1.26,1.23L183.81,212.39a.88.88,0,0,0-1.34.25l-78,140a.88.88,0,0,1-1.62-.68l43.64-149.2a.88.88,0,0,0-.64-1.1L6.77,168.09a.88.88,0,0,1,.2-1.74l149.87-1.65a.87.87,0,0,0,.87-.91l-5.1-146.53A.88.88,0,0,1,154.33,17Z"/><path id="light1" class="cls-3" d="M160,52.6l34.43,107a.54.54,0,0,0,.68.35l109.85-35.1a.53.53,0,0,1,.45,1l-101.57,64a.54.54,0,0,0-.12.8l77,94.34a.54.54,0,0,1-.76.75L182.85,204a.54.54,0,0,0-.81.15L121.28,313.17a.53.53,0,0,1-1-.41l34-116.25a.53.53,0,0,0-.39-.67L45.55,169.68a.54.54,0,0,1,.12-1.06l116.69-1.28a.54.54,0,0,0,.53-.56l-4-114A.54.54,0,0,1,160,52.6Z"/><path id="dark2" class="cls-2" d="M257.81,7.06l-49.3,164.35a.73.73,0,0,0,.56.92l185.71,34.84a.72.72,0,0,1-.11,1.43L203.51,215a.73.73,0,0,0-.68.89l43.09,183.2a.72.72,0,0,1-1.37.45L166,215.51a.73.73,0,0,0-1.08-.31L17.46,318.49a.72.72,0,0,1-.94-1.09L138.65,190.34a.72.72,0,0,0,0-1L23.31,76.28a.73.73,0,0,1,.89-1.14L166,162.93a.72.72,0,0,0,1-.25L256.48,6.49A.73.73,0,0,1,257.81,7.06Z"/><path id="light2" class="cls-3" d="M238.67,60.83l-34,113.54a.87.87,0,0,0,.68,1.11l128.5,24.11a.88.88,0,0,1-.13,1.74l-132.28,4.42a.87.87,0,0,0-.83,1.07l29.6,125.84a.88.88,0,0,1-1.66.55L174.44,206.55a.87.87,0,0,0-1.31-.38L71.6,277.28A.88.88,0,0,1,70.47,276l84.07-87.47a.87.87,0,0,0,0-1.23l-79.48-77.9A.88.88,0,0,1,76.13,108L174,168.53a.87.87,0,0,0,1.22-.31l61.9-108.08A.88.88,0,0,1,238.67,60.83Z"/><path id="silver" class="cls-4" d="M169.12,121.73,185.93,174a.09.09,0,0,0,.11.05l53.73-17.17a.09.09,0,0,1,.07.16l-49.64,31.3a.08.08,0,0,0,0,.12L228.11,235a.09.09,0,0,1-.12.12l-47.76-40.26a.08.08,0,0,0-.13,0l-29.76,53.42c-.05.09-.19,0-.16-.06l16.66-57a.09.09,0,0,0-.06-.11L113.7,178.3a.09.09,0,0,1,0-.17l57.08-.62a.09.09,0,0,0,.09-.09L169,121.76A.09.09,0,0,1,169.12,121.73Z"/><path id="white" class="cls-5" d="M207.56,124.8l-16.89,56.31a.18.18,0,0,0,.14.23l63.58,11.93a.18.18,0,0,1,0,.35l-65.45,2.18a.18.18,0,0,0-.17.22l14.79,62.9a.18.18,0,0,1-.34.11L176.26,195.9a.17.17,0,0,0-.26-.07l-50.6,35.43a.18.18,0,0,1-.23-.27l41.9-43.59a.18.18,0,0,0,0-.25l-39.55-38.76a.18.18,0,0,1,.22-.28l48.62,30.1a.18.18,0,0,0,.25-.07l30.62-53.48A.18.18,0,0,1,207.56,124.8Z"/></g><g id="text"><path id="S" class="cls-4" d="M47.89,452.27a65.53,65.53,0,0,1-19.12-2.55L27.16,448v-7.67l1.71-1a91.12,91.12,0,0,0,19,2.37c5.59,0,10.23-2.46,10.23-7.95,0-12.69-31.81-7.58-31.81-30.11,0-13,9.94-19.12,23-19.12a45.19,45.19,0,0,1,16.28,2.75l1.52,1.51v7.1l-1.71,1.42a59.86,59.86,0,0,0-15.9-2.36c-5.68,0-10.13,2-10.13,7.47,0,13,31.9,8.15,31.9,30C71.27,445.93,61.52,452.27,47.89,452.27Z"/><path id="T" class="cls-4" d="M123.15,395.47h-17v54.06l-1.61,1.61H95.32l-1.61-1.61V395.47H76.77l-1.71-1.6v-6.63l1.71-1.61h46.38l1.7,1.61v6.63Z"/><path id="A" class="cls-4" d="M161.11,432H141.8l-5.58,19.13L134,452.27l-8.62-1.89-1-2.08,20.07-61.06,1.61-1.61H157.7l1.71,1.7,19.5,60.87-1,2-9.38,2.08-2.08-1.13Zm-16.85-9.75h14.67l-7.1-25.18Z"/><path id="R" class="cls-4" d="M236.56,449.24l-8.43,3-2.27-.95-18.74-29h-3.69v27.17l-1.61,1.61h-9.09l-1.7-1.61V387.24l1.7-1.61h21.68c14.39,0,21.49,5.77,21.49,17.42,0,10.69-7.86,16.47-16.29,17.51L237.22,447ZM214.22,395.1H203.43v17.41h6.43c6.44,0,13.73-1.42,13.73-8.8C223.59,397.46,221.7,395.1,214.22,395.1Z"/><path id="L" class="cls-4" d="M288.81,451.14H251.33l-1.61-1.61V387.24l1.61-1.61h9.09l1.7,1.61v54.05h26.69l1.71,1.61v6.63Z"/><path id="I" class="cls-4" d="M315.7,395.47H302.35l-1.61-1.6v-6.63l1.61-1.61h39.19l1.61,1.61v6.63l-1.61,1.6H328.1v45.82h13.44l1.61,1.61v6.63l-1.61,1.61H302.35l-1.61-1.61V442.9l1.61-1.61H315.7Z"/><path id="T-2" data-name="T" class="cls-4" d="M400.61,395.47h-17v54.06L382,451.14h-9.18l-1.61-1.61V395.47H354.23l-1.71-1.6v-6.63l1.71-1.61h46.38l1.71,1.61v6.63Z"/><path id="E" class="cls-4" d="M451.07,451.14H414.62l-1.7-1.61V387.24l1.7-1.61h35.69l1.61,1.61v6.63l-1.61,1.6h-25v15.91h23.19l1.61,1.7v6.53l-1.61,1.61H425.32v20.07h25.75l1.7,1.61v6.63Z"/></g></g></svg>
