<?xml version="1.0" encoding="utf-8"?>
<!-- Generator: Adobe Illustrator 26.0.2, SVG Export Plug-In . SVG Version: 6.00 Build 0)  -->
<svg version="1.1" xmlns="http://www.w3.org/2000/svg" xmlns:xlink="http://www.w3.org/1999/xlink" x="0px" y="0px"
	 viewBox="0 0 1280 640" style="enable-background:new 0 0 1280 640;" xml:space="preserve">
<style type="text/css">
	.st0{fill:#1D2433;}
	.st1{fill:#FFAE57;}
	.st2{fill:#FFD580;}
	.st3{fill:#D6DBE1;}
	.st4{fill:#FFFFFF;}
	.st5{fill:none;}
	.st6{display:none;}
	.st7{display:inline;fill:#D6DBE1;}
	.st8{font-family:'NuvoMonoPro-Bold';}
	.st9{font-size:146.125px;}
	.st10{letter-spacing:-8;}
	.st11{letter-spacing:-7;}
	.st12{letter-spacing:6;}
	.st13{letter-spacing:-3;}
	.st14{letter-spacing:-2;}
	.st15{display:none;fill:#1D2433;}
</style>
<g id="Ebene_1">
	<rect class="st0" width="1280" height="640"/>
</g>
<g id="Ebene_2">
	<g>
		<polygon class="st1" points="243,72.4 284.2,259.9 477,217.9 293.8,310.4 410.9,485.4 257.5,328.9 136.1,505.2 213,312.2 
			32.3,249.9 231.3,266.7 		"/>
		<polygon class="st2" points="246.5,121 278.2,265.4 426.7,233.1 285.6,304.3 375.8,439.1 257.7,318.6 164.1,454.3 223.4,305.7 
			84.3,257.7 237.5,270.6 		"/>
		<polygon class="st1" points="379.3,72.8 294.1,282.2 532.8,350.9 281.8,335.5 315.7,583 235.3,330.6 28,448.2 204.9,296.1 
			67.3,132.9 242.7,266 		"/>
		<polygon class="st2" points="349.4,136.6 288.7,285.6 458.6,334.6 280,323.5 304.1,499.7 246.9,320.1 99.4,403.8 225.3,295.5 
			127.4,179.4 252.2,274.2 		"/>
		<polygon class="st3" points="250.6,213.2 265.7,281.9 336.4,266.5 269.3,300.4 312.2,364.6 255.9,307.2 211.4,371.8 239.6,301.1 
			173.4,278.3 246.3,284.4 		"/>
		<polygon class="st4" points="299.6,220.6 270.7,291.5 351.6,314.8 266.6,309.6 278.1,393.4 250.8,308 180.6,347.8 240.5,296.3 
			193.9,241 253.3,286.1 		"/>
	</g>
</g>
<g id="Ebene_3">
	<rect x="38" y="435" class="st5" width="1152" height="109"/>
	<text transform="matrix(1 0 0 1 510.2261 543.4001)" class="st6"><tspan x="0" y="0" class="st7 st8 st9 st10">S</tspan><tspan x="79.6" y="0" class="st7 st8 st9 st11">T</tspan><tspan x="159.4" y="0" class="st7 st8 st9 st12">A</tspan><tspan x="254" y="0" class="st7 st8 st9 st13">RL</tspan><tspan x="422.3" y="0" class="st7 st8 st9 st14">I</tspan><tspan x="507.9" y="0" class="st7 st8 st9 st13">T</tspan><tspan x="592.1" y="0" class="st7 st8 st9 st14">E</tspan></text>
	<g>
		<path class="st3" d="M553.3,545.2c-13.4,0-23.4-2-29.5-3.9l-2.5-2.6v-11.8l2.6-1.6c7,1.8,19.7,3.7,29.4,3.7
			c8.6,0,15.8-3.8,15.8-12.3c0-19.6-49.1-11.7-49.1-46.5c0-20,15.3-29.5,35.5-29.5c11.3,0,19.3,2,25.1,4.2l2.3,2.3v11l-2.6,2.2
			c-6-1.9-16.2-3.7-24.5-3.7c-8.8,0-15.6,3.1-15.6,11.5c0,20,49.2,12.6,49.2,46.3C589.4,535.4,574.4,545.2,553.3,545.2z"/>
		<path class="st3" d="M669.5,457.5h-26.3v83.4l-2.5,2.5h-14.2l-2.5-2.5v-83.4h-26.2l-2.6-2.5v-10.2l2.6-2.5h71.6l2.6,2.5V455
			L669.5,457.5z"/>
		<path class="st3" d="M728.1,513.9h-29.8l-8.6,29.5l-3.4,1.8l-13.3-2.9l-1.6-3.2l31-94.2l2.5-2.5h18l2.6,2.6l30.1,94l-1.6,3.1
			l-14.5,3.2l-3.2-1.8L728.1,513.9z M702.1,498.8h22.6l-11-38.9L702.1,498.8z"/>
		<path class="st3" d="M844.6,540.5l-13,4.7l-3.5-1.5L799.1,499h-5.7v41.9l-2.5,2.5h-14l-2.6-2.5v-96.1l2.6-2.5h33.5
			c22.2,0,33.2,8.9,33.2,26.9c0,16.5-12.1,25.4-25.1,27l27.2,40.8L844.6,540.5z M810.1,456.9h-16.7v26.9h9.9
			c9.9,0,21.2-2.2,21.2-13.6C824.5,460.6,821.6,456.9,810.1,456.9z"/>
		<path class="st3" d="M925.2,543.4h-57.9l-2.5-2.5v-96.1l2.5-2.5h14l2.6,2.5v83.4h41.2l2.6,2.5v10.2L925.2,543.4z"/>
		<path class="st3" d="M966.7,457.5h-20.6l-2.5-2.5v-10.2l2.5-2.5h60.5l2.5,2.5V455l-2.5,2.5h-20.7v70.7h20.7l2.5,2.5v10.2l-2.5,2.5
			h-60.5l-2.5-2.5v-10.2l2.5-2.5h20.6V457.5z"/>
		<path class="st3" d="M1097.8,457.5h-26.3v83.4l-2.5,2.5h-14.2l-2.5-2.5v-83.4h-26.2l-2.6-2.5v-10.2l2.6-2.5h71.6l2.6,2.5V455
			L1097.8,457.5z"/>
		<path class="st3" d="M1175.7,543.4h-56.3l-2.6-2.5v-96.1l2.6-2.5h55.1l2.5,2.5V455l-2.5,2.5h-38.6V482h35.8l2.5,2.6v10.1l-2.5,2.5
			h-35.8v31h39.7l2.6,2.5v10.2L1175.7,543.4z"/>
	</g>
</g>
<g id="Ebene_4">
</g>
<g id="Ebene_5">
</g>
</svg>
