<?xml version="1.0" encoding="utf-8"?>
<!-- Generator: Adobe Illustrator 26.0.2, SVG Export Plug-In . SVG Version: 6.00 Build 0)  -->
<svg version="1.1" xmlns="http://www.w3.org/2000/svg" xmlns:xlink="http://www.w3.org/1999/xlink" x="0px" y="0px"
	 viewBox="0 0 1280 640" style="enable-background:new 0 0 1280 640;" xml:space="preserve">
<style type="text/css">
	.st0{fill:#1D2433;}
	.st1{fill:#FFAE57;}
	.st2{fill:#FFD580;}
	.st3{fill:#D6DBE1;}
	.st4{fill:#FFFFFF;}
	.st5{fill:none;}
	.st6{font-family:'NuvoMonoPro-Bold';}
	.st7{font-size:146.125px;}
	.st8{letter-spacing:-8;}
	.st9{letter-spacing:-7;}
	.st10{letter-spacing:6;}
	.st11{letter-spacing:-3;}
	.st12{letter-spacing:-2;}
</style>
<g id="Ebene_1">
	<rect class="st0" width="1280" height="640"/>
</g>
<g id="Ebene_2">
	<g>
		<polygon class="st1" points="243,72.4 284.2,259.9 477,217.9 293.8,310.4 410.9,485.4 257.5,328.9 136.1,505.2 213,312.2 
			32.3,249.9 231.3,266.7 		"/>
		<polygon class="st2" points="246.5,121 278.2,265.4 426.7,233.1 285.6,304.3 375.8,439.1 257.7,318.6 164.1,454.3 223.4,305.7 
			84.3,257.7 237.5,270.6 		"/>
		<polygon class="st1" points="379.3,72.8 294.1,282.2 532.8,350.9 281.8,335.5 315.7,583 235.3,330.6 28,448.2 204.9,296.1 
			67.3,132.9 242.7,266 		"/>
		<polygon class="st2" points="349.4,136.6 288.7,285.6 458.6,334.6 280,323.5 304.1,499.7 246.9,320.1 99.4,403.8 225.3,295.5 
			127.4,179.4 252.2,274.2 		"/>
		<polygon class="st3" points="250.6,213.2 265.7,281.9 336.4,266.5 269.3,300.4 312.2,364.6 255.9,307.2 211.4,371.8 239.6,301.1 
			173.4,278.3 246.3,284.4 		"/>
		<polygon class="st4" points="299.6,220.6 270.7,291.5 351.6,314.8 266.6,309.6 278.1,393.4 250.8,308 180.6,347.8 240.5,296.3 
			193.9,241 253.3,286.1 		"/>
	</g>
</g>
<g id="Ebene_3">
	<rect x="38" y="435" class="st5" width="1152" height="109"/>
	<text transform="matrix(1 0 0 1 510.2261 543.4001)"><tspan x="0" y="0" class="st3 st6 st7 st8">S</tspan><tspan x="79.6" y="0" class="st3 st6 st7 st9">T</tspan><tspan x="159.4" y="0" class="st3 st6 st7 st10">A</tspan><tspan x="254" y="0" class="st3 st6 st7 st11">RL</tspan><tspan x="422.3" y="0" class="st3 st6 st7 st12">I</tspan><tspan x="507.9" y="0" class="st3 st6 st7 st11">T</tspan><tspan x="592.1" y="0" class="st3 st6 st7 st12">E</tspan></text>
</g>
</svg>
