<svg xmlns="http://www.w3.org/2000/svg" viewBox="0 0 1280 480"><defs><style>.cls-1{fill:#1d2433;}.cls-2{fill:#ffae57;}.cls-3{fill:#ffd580;}.cls-4{fill:#d6dbe1;}.cls-5{fill:#fff;}</style></defs><g id="banner-canvas"><rect id="rect" class="cls-1" y="1.24" width="1280" height="480"/></g><g id="banner-icon"><g id="star"><path id="dark1" class="cls-2" d="M164.33,54.07l44.25,137.57a.88.88,0,0,0,1.11.57L350.8,147.12a.89.89,0,0,1,.74,1.59L221,231a.88.88,0,0,0-.22,1.3l98.63,120.83a.88.88,0,0,1-1.26,1.23L193.81,249.5a.88.88,0,0,0-1.34.25l-78,140a.88.88,0,0,1-1.62-.68l43.64-149.2a.88.88,0,0,0-.64-1.1L16.77,205.2a.88.88,0,0,1,.2-1.74l149.87-1.65a.87.87,0,0,0,.87-.91l-5.1-146.53A.88.88,0,0,1,164.33,54.07Z"/><path id="light1" class="cls-3" d="M170,89.72l34.43,107a.54.54,0,0,0,.68.35L314.93,162a.53.53,0,0,1,.45,1L213.81,227a.54.54,0,0,0-.12.8l77,94.34a.54.54,0,0,1-.76.75l-97.08-81.83a.54.54,0,0,0-.81.15L131.28,350.28a.53.53,0,0,1-1-.41l34-116.25a.53.53,0,0,0-.39-.67L55.55,206.79a.54.54,0,0,1,.12-1.06l116.69-1.28a.53.53,0,0,0,.53-.56l-4-114A.54.54,0,0,1,170,89.72Z"/><path id="dark2" class="cls-2" d="M267.81,44.17l-49.3,164.35a.73.73,0,0,0,.56.92l185.71,34.84a.73.73,0,0,1-.11,1.44l-191.16,6.37a.73.73,0,0,0-.68.89l43.09,183.2a.72.72,0,0,1-1.37.45L176,252.62a.73.73,0,0,0-1.08-.31L27.46,355.6a.72.72,0,0,1-.94-1.09L148.65,227.45a.72.72,0,0,0,0-1l-115.33-113a.73.73,0,0,1,.89-1.14L176,200.05a.73.73,0,0,0,1-.26L266.48,43.6A.73.73,0,0,1,267.81,44.17Z"/><path id="light2" class="cls-3" d="M248.67,97.94l-34,113.54a.87.87,0,0,0,.68,1.11L343.8,236.7a.88.88,0,0,1-.13,1.74l-132.28,4.42a.87.87,0,0,0-.83,1.08l29.6,125.83a.88.88,0,0,1-1.66.55L184.44,243.66a.87.87,0,0,0-1.31-.38L81.6,314.39a.88.88,0,0,1-1.13-1.33l84.07-87.47a.87.87,0,0,0,0-1.23l-79.48-77.9a.88.88,0,0,1,1.08-1.37L184,205.64a.87.87,0,0,0,1.22-.31l61.9-108.08A.88.88,0,0,1,248.67,97.94Z"/><path id="silver" class="cls-4" d="M179.12,158.84l16.81,52.28a.09.09,0,0,0,.11,0L249.77,194a.09.09,0,0,1,.07.16l-49.64,31.3a.09.09,0,0,0,0,.13l37.93,46.47a.09.09,0,0,1-.12.12l-47.76-40.26a.08.08,0,0,0-.13,0l-29.76,53.42a.09.09,0,0,1-.16-.06l16.66-57a.09.09,0,0,0-.06-.11L123.7,215.41a.08.08,0,0,1,0-.16l57.08-.63a.09.09,0,0,0,.09-.09L179,158.87A.09.09,0,0,1,179.12,158.84Z"/><path id="white" class="cls-5" d="M217.56,161.91l-16.89,56.31a.18.18,0,0,0,.14.23l63.58,11.93a.18.18,0,0,1,0,.35l-65.45,2.18a.18.18,0,0,0-.17.22L213.54,296a.18.18,0,0,1-.34.11L186.26,233a.17.17,0,0,0-.26-.07l-50.6,35.43c-.17.13-.37-.11-.23-.27l41.9-43.59a.18.18,0,0,0,0-.25L137.52,185.5a.18.18,0,0,1,.22-.28l48.62,30.1a.18.18,0,0,0,.25-.07l30.62-53.48A.18.18,0,0,1,217.56,161.91Z"/></g></g><g id="banner-text"><g id="shapes"><path id="S" class="cls-4" d="M344.17,384.42c-13.44,0-23.37-2.05-29.51-3.95l-2.49-2.63V366l2.63-1.61a141.62,141.62,0,0,0,29.37,3.65c8.62,0,15.78-3.8,15.78-12.27,0-19.58-49.09-11.69-49.09-46.47,0-20,15.34-29.51,35.51-29.51A69.92,69.92,0,0,1,371.5,284l2.34,2.34v11l-2.63,2.19a92.42,92.42,0,0,0-24.55-3.65c-8.77,0-15.64,3.07-15.64,11.54,0,20,49.25,12.57,49.25,46.32C380.27,374.63,365.22,384.42,344.17,384.42Z"/><path id="T" class="cls-4" d="M460.34,296.74H434v83.44l-2.48,2.48H417.38l-2.48-2.48V296.74H388.74l-2.63-2.48V284l2.63-2.48h71.6L463,284v10.23Z"/><path id="A" class="cls-4" d="M518.94,353.15H489.13l-8.62,29.51-3.36,1.76-13.3-2.93-1.61-3.21,31-94.25,2.48-2.48h18l2.63,2.63,30.1,93.95-1.61,3.07-14.47,3.22-3.21-1.76Zm-26-15h22.65l-11-38.87Z"/><path id="R" class="cls-4" d="M635.4,379.74l-13,4.68-3.5-1.47L590,338.24h-5.69v41.94l-2.49,2.48h-14l-2.63-2.48V284l2.63-2.48H601.2c22.22,0,33.17,8.91,33.17,26.88,0,16.52-12.12,25.43-25.13,27l27.18,40.76Zm-34.49-83.58H584.26v26.89h9.93c9.94,0,21.19-2.2,21.19-13.59C615.38,299.81,612.46,296.16,600.91,296.16Z"/><path id="L" class="cls-4" d="M716.06,382.66H658.19l-2.48-2.48V284l2.48-2.48h14l2.63,2.48v83.44h41.21l2.63,2.48v10.23Z"/><path id="I" class="cls-4" d="M757.56,296.74H737l-2.48-2.48V284l2.48-2.48h60.5l2.48,2.48v10.23l-2.48,2.48H776.7v70.73h20.75l2.48,2.48v10.23l-2.48,2.48H737l-2.48-2.48V370l2.48-2.48h20.61Z"/><path id="T-2" data-name="T" class="cls-4" d="M888.63,296.74h-26.3v83.44l-2.49,2.48H845.67l-2.49-2.48V296.74H817l-2.63-2.48V284l2.63-2.48h71.6l2.63,2.48v10.23Z"/><path id="E" class="cls-4" d="M966.51,382.66H910.26l-2.63-2.48V284l2.63-2.48h55.08l2.49,2.48v10.23l-2.49,2.48H926.77v24.55h35.8l2.48,2.63V334l-2.48,2.48h-35.8v31h39.74l2.63,2.48v10.23Z"/></g></g></svg>
