<svg xmlns="http://www.w3.org/2000/svg" viewBox="0 0 476 476"><defs><style>.cls-1{fill:#1d2433;}.cls-2{fill:#ffae57;}.cls-3{fill:#ffd580;}.cls-4{fill:#d6dbe1;}.cls-5{fill:#fff;}</style></defs><g id="logo-round"><circle id="bg" class="cls-1" cx="238" cy="238" r="238"/><g id="star1"><path id="dark1" class="cls-2" d="M195.12,45.05,236,172.14a.8.8,0,0,0,1,.53L367.41,131a.81.81,0,0,1,.68,1.46l-120.57,76a.81.81,0,0,0-.2,1.2l91.12,111.64a.82.82,0,0,1-1.16,1.14L222.36,225.61a.82.82,0,0,0-1.24.22L149.06,355.19a.81.81,0,0,1-1.49-.62l40.31-137.85a.8.8,0,0,0-.59-1l-128.5-31a.81.81,0,0,1,.18-1.6l138.47-1.52a.83.83,0,0,0,.81-.85L193.53,45.32A.81.81,0,0,1,195.12,45.05Z"/><path id="light1" class="cls-3" d="M200.33,78l31.81,98.89a.51.51,0,0,0,.63.32l101.5-32.43a.49.49,0,0,1,.41.89l-93.84,59.17a.49.49,0,0,0-.12.73l71.15,87.17a.49.49,0,0,1-.7.69l-89.7-75.6a.5.5,0,0,0-.75.14L164.59,318.72a.5.5,0,0,1-.91-.38l31.41-107.4a.5.5,0,0,0-.36-.62L94.62,186.14a.49.49,0,0,1,.11-1L202.54,184a.49.49,0,0,0,.49-.51L199.36,78.14A.5.5,0,0,1,200.33,78Z"/><path id="dark2" class="cls-2" d="M290.73,35.9,245.18,187.74a.67.67,0,0,0,.52.85l171.59,32.19a.67.67,0,0,1-.11,1.33L240.56,228a.68.68,0,0,0-.63.82l39.81,169.26a.67.67,0,0,1-1.26.42l-72.56-170a.67.67,0,0,0-1-.29L68.66,323.64a.67.67,0,0,1-.86-1L180.64,205.23a.67.67,0,0,0,0-.94L74.07,99.85a.67.67,0,0,1,.82-1l131,81.11a.68.68,0,0,0,.94-.23L289.5,35.37A.67.67,0,0,1,290.73,35.9Z"/><path id="light2" class="cls-3" d="M273.05,85.58,241.58,190.47a.82.82,0,0,0,.63,1l118.73,22.27a.81.81,0,0,1-.12,1.61L238.6,219.47a.8.8,0,0,0-.76,1l27.34,116.27a.81.81,0,0,1-1.53.5l-49.95-117a.8.8,0,0,0-1.21-.35l-93.8,65.7a.81.81,0,0,1-1-1.23l77.68-80.81a.82.82,0,0,0,0-1.15l-73.43-72a.81.81,0,0,1,1-1.27l90.38,56a.81.81,0,0,0,1.13-.29l57.19-99.85A.81.81,0,0,1,273.05,85.58Z"/><path id="silver" class="cls-4" d="M208.78,141.84l15.54,48.3s.06.07.1.05l49.64-15.86a.08.08,0,0,1,.07.14l-45.86,28.92a.08.08,0,0,0,0,.12l35,42.94a.08.08,0,0,1-.11.11l-44.13-37.2a.08.08,0,0,0-.12,0l-27.5,49.36a.08.08,0,0,1-.14-.06l15.39-52.63a.08.08,0,0,0-.06-.1l-49-11.84a.08.08,0,0,1,0-.15l52.74-.58a.08.08,0,0,0,.08-.09l-1.79-51.42A.08.08,0,0,1,208.78,141.84Z"/><path id="white" class="cls-5" d="M244.3,144.68l-15.6,52a.15.15,0,0,0,.12.2l58.76,11a.16.16,0,0,1,0,.32l-60.47,2a.16.16,0,0,0-.16.2l13.67,58.11a.17.17,0,0,1-.31.11l-24.89-58.33a.17.17,0,0,0-.25-.07L168.4,243a.17.17,0,0,1-.22-.25l38.72-40.27a.16.16,0,0,0,0-.23l-36.54-35.82a.17.17,0,0,1,.2-.26L215.47,194a.16.16,0,0,0,.23-.06L244,144.55A.16.16,0,0,1,244.3,144.68Z"/></g><g id="text1"><g id="text"><g id="S"><path class="cls-4" d="M97.79,376.83a51.37,51.37,0,0,1-15.17-2.05l-1-.31-3-3.17v-9.44l4.59-2.8,1.63.4a62.74,62.74,0,0,0,13,1.62c1.59,0,3.48-.32,3.48-1.82,0-1.2-3.63-2.55-6.55-3.63-6.66-2.47-16.72-6.2-16.72-18.4,0-10.92,8.18-18,20.83-18a37.33,37.33,0,0,1,13.31,2.26l.82.3,2.89,2.89v8.73l-4.37,3.64-2.09-.66A40,40,0,0,0,99,334.86c-3.41,0-3.41.92-3.41,1.47,0,1.36,3.62,2.73,6.82,3.93,6.57,2.48,16.52,6.22,16.52,18C118.9,369.73,110.81,376.83,97.79,376.83Z"/><path class="cls-1" d="M98.83,323.25a33.11,33.11,0,0,1,11.91,2l1.11,1.11v5.2l-1.25,1A43.84,43.84,0,0,0,99,330.86c-4.16,0-7.41,1.46-7.41,5.47,0,9.49,23.34,6,23.34,22,0,9.9-7.14,14.54-17.11,14.54a47.92,47.92,0,0,1-14-1.87l-1.18-1.25v-5.6l1.25-.77a67,67,0,0,0,13.92,1.73c4.09,0,7.48-1.8,7.48-5.81,0-9.28-23.27-5.54-23.27-22,0-9.48,7.27-14,16.83-14m0-8c-14.85,0-24.83,8.83-24.83,22,0,9.31,4.85,14.64,10.15,17.94l-1.59-.4-2.86,1.75-1.25.76-3.83,2.34v13.27l2.19,2.32L78,376.45,79.43,378l2,.62a55.4,55.4,0,0,0,16.35,2.23c15.25,0,25.11-8.85,25.11-22.54,0-8.9-4.64-14.11-9.77-17.39l2.59-2.16,1.25-1,2.88-2.4V323.05l-2.34-2.34-1.11-1.11-1.23-1.23-1.62-.61a41.32,41.32,0,0,0-14.72-2.51Z"/></g><g id="T"><polygon class="cls-4" points="130.83 376 127.31 372.48 127.31 335.28 117.33 335.28 113.67 331.83 113.67 323.53 117.33 320.08 154.44 320.08 158.09 323.53 158.09 331.83 154.44 335.28 144.38 335.28 144.38 372.48 140.86 376 130.83 376"/><path class="cls-1" d="M152.85,324.08l1.25,1.17v4.85l-1.25,1.18H140.38v39.54L139.21,372h-6.72l-1.18-1.18V331.28h-12.4l-1.24-1.18v-4.85l1.24-1.17h33.94m3.18-8h-40.3l-2.31,2.18-1.25,1.18-2.5,2.37v11.74l2.51,2.37,1.24,1.18,2.31,2.18h7.58v34.86l2.34,2.34,1.18,1.18,2.34,2.34h13.35l2.34-2.34,1.18-1.18,2.34-2.34V339.28H156l2.31-2.18,1.25-1.18,2.51-2.37V321.81l-2.51-2.37-1.25-1.18L156,316.08Z"/></g><g id="A"><path class="cls-4" d="M181.1,374.7,177.58,362h-8.09l-3.72,12.75-4.4,2.29-9.58-2.11-2.35-4.7,15.49-47.14,3-3h11.84l3.1,3.1L198,370.23l-2.4,4.58-10.14,2.25Zm-7.36-27.82,0-.12,0,.12Z"/><path class="cls-1" d="M178.13,324.08l1.24,1.24,14.27,44.53-.76,1.46L186,372.83,184.5,372l-3.88-14H166.49l-4.08,14-1.6.83-6.3-1.38-.76-1.53,14.68-44.67,1.18-1.17h8.52m-9.84,26.8H179l-5.2-18.42-5.54,18.42m13.15-34.8H166.3L164,318.42l-1.17,1.18-1.35,1.34-.6,1.82-14.68,44.66-1,3.13,1.47,2.95.77,1.52,1.7,3.42,3.73.82,6.31,1.38,2.84.63,2.57-1.35,1.6-.83,3-1.57,1-3.28,2.4-8.23h2l2.25,8.13.9,3.26,3,1.62,1.52.83,2.64,1.44,2.93-.65,6.85-1.52,3.63-.81L200,375l.76-1.45,1.55-3-1-3.19L187,322.88,186.4,321,185,319.67l-1.24-1.25-2.35-2.34Z"/></g><g id="R"><path class="cls-4" d="M225.31,375.35l-9.73-15v12.16L212.06,376h-9.9l-3.65-3.45v-49l3.65-3.45h17.45c17.16,0,19.72,10.49,19.72,16.74a16,16,0,0,1-9.57,15.11l10.9,16.35-1.57,5.41-9.54,3.43Zm-9-35.61c6,0,6-1.77,6-2.44a7,7,0,0,0-.2-2,7.64,7.64,0,0,0-2.66-.3h-3.89v4.74Z"/><path class="cls-1" d="M219.61,324.08c10.53,0,15.72,4.22,15.72,12.74,0,7.82-5.75,12.05-11.91,12.81L236.3,369l-.48,1.67-6.17,2.21-1.66-.69L214.28,351h-2.7v19.87L210.4,372h-6.65l-1.24-1.18V325.25l1.24-1.17h15.86m-8,19.66h4.71c4.71,0,10-1,10-6.44,0-4.57-1.38-6.3-6.86-6.3h-7.89v12.74m8-27.66h-19l-2.31,2.18L197,319.44l-2.5,2.37v52.46l2.5,2.37,1.25,1.18,2.31,2.18h13.15l2.34-2.34,1.18-1.18,2.34-2.34v-.28l1.7,2.62,1.34,2.09,2.29.95,1.67.7,2.86,1.19,2.92-1.05,6.17-2.22,3.83-1.37,1.14-3.92.48-1.66,1.05-3.58L243,364.52l-7.52-11.28a20.15,20.15,0,0,0,7.89-16.42c0-8.43-3.73-13.24-6.87-15.78-4.12-3.34-9.63-5-16.85-5Z"/></g><g id="L"><polygon class="cls-4" points="244.97 376 241.45 372.48 241.45 323.6 244.97 320.08 254.86 320.08 258.52 323.53 258.52 360.8 275.64 360.8 279.3 364.25 279.3 372.55 275.64 376 244.97 376"/><path class="cls-1" d="M253.27,324.08l1.25,1.17V364.8h19.53l1.24,1.18v4.84L274.05,372H246.62l-1.17-1.18V325.25l1.17-1.17h6.65m3.18-8H243.31L241,318.42l-1.17,1.18-2.34,2.34v52.2l2.34,2.34,1.17,1.18,2.35,2.34h33.92l2.31-2.18,1.25-1.18,2.5-2.37V362.53l-2.5-2.37L279.54,359l-2.31-2.18H262.52v-35L260,319.44l-1.24-1.18-2.32-2.18Z"/></g><g id="I"><polygon class="cls-4" points="282.29 376 278.77 372.48 278.77 364.32 282.29 360.8 289.72 360.8 289.72 335.28 282.3 335.28 278.77 331.76 278.77 323.6 282.3 320.08 314.28 320.08 317.8 323.6 317.8 331.76 314.28 335.28 306.79 335.28 306.79 360.8 314.28 360.8 317.8 364.32 317.8 372.48 314.28 376 282.29 376"/><path class="cls-1" d="M312.62,324.08l1.18,1.17v4.85l-1.18,1.18h-9.83V364.8h9.83L313.8,366v4.84L312.62,372H284l-1.17-1.18V366L284,364.8h9.77V331.28H284l-1.17-1.18v-4.85l1.17-1.17h28.67m3.32-8h-35.3l-2.35,2.34-1.17,1.18-2.34,2.34v11.47l2.34,2.35,1.18,1.18,2.34,2.34h5.08V356.8h-5.08l-2.35,2.34-1.17,1.18-2.34,2.34v11.48l2.34,2.34,1.17,1.18,2.35,2.34h35.3l2.34-2.34,1.18-1.18,2.34-2.34V362.66l-2.34-2.34-1.18-1.18-2.34-2.34h-5.15V339.28h5.15l2.34-2.34,1.18-1.18,2.34-2.34V321.94l-2.34-2.34-1.18-1.18-2.34-2.34Z"/></g><g id="T-2" data-name="T"><polygon class="cls-4" points="333.82 376 330.3 372.48 330.3 335.28 320.32 335.28 316.66 331.83 316.66 323.53 320.32 320.08 357.43 320.08 361.09 323.53 361.09 331.83 357.43 335.28 347.37 335.28 347.37 372.48 343.86 376 333.82 376"/><path class="cls-1" d="M355.84,324.08l1.25,1.17v4.85l-1.25,1.18H343.37v39.54L342.2,372h-6.72l-1.18-1.18V331.28H321.91l-1.25-1.18v-4.85l1.25-1.17h33.93m3.18-8h-40.3l-2.31,2.18-1.24,1.18-2.51,2.37v11.74l2.51,2.37,1.24,1.18,2.31,2.18h7.58v34.86l2.34,2.34,1.18,1.18,2.35,2.34h13.34l2.34-2.34,1.18-1.18,2.34-2.34V339.28H359l2.31-2.18,1.25-1.18,2.51-2.37V321.81l-2.51-2.37-1.25-1.18L359,316.08Z"/></g><g id="E"><polygon class="cls-4" points="364.5 376 360.84 372.55 360.84 323.53 364.5 320.08 393.86 320.08 397.38 323.6 397.38 331.76 393.86 335.28 377.92 335.28 377.92 338.91 392.61 338.91 396.06 342.57 396.06 350.6 392.54 354.12 377.92 354.12 377.92 360.8 394.35 360.8 398 364.25 398 372.55 394.35 376 364.5 376"/><path class="cls-1" d="M392.2,324.08l1.18,1.17v4.85l-1.18,1.18H373.92v11.63h17l1.18,1.25v4.78l-1.18,1.18h-17V364.8h18.83L394,366v4.84L392.75,372H366.09l-1.25-1.18V325.25l1.25-1.17H392.2m3.31-8h-32.6l-2.31,2.18-1.25,1.18-2.51,2.37v52.46l2.51,2.37,1.25,1.18,2.31,2.18h33l2.32-2.18,1.24-1.18,2.51-2.37V362.53l-2.51-2.37L398.25,359l-2.32-2.18h-.42l1-1,1.18-1.17,2.34-2.35V341l-2.18-2.31-.85-.9.83-.83,1.17-1.18,2.35-2.34V321.94L399,319.6l-1.17-1.18-2.35-2.34Z"/></g></g><g id="text-2" data-name="text"><g id="S-2" data-name="S"><path class="cls-4" d="M97.79,372.83a47.92,47.92,0,0,1-14-1.87l-1.18-1.25v-5.6l1.25-.77a67,67,0,0,0,13.92,1.73c4.09,0,7.48-1.8,7.48-5.81,0-9.28-23.27-5.54-23.27-22,0-9.48,7.27-14,16.83-14a33.11,33.11,0,0,1,11.91,2l1.11,1.11v5.2l-1.25,1A43.84,43.84,0,0,0,99,330.86c-4.16,0-7.41,1.46-7.41,5.47,0,9.49,23.34,6,23.34,22C114.9,368.19,107.76,372.83,97.79,372.83Z"/></g><g id="T-3" data-name="T"><path class="cls-4" d="M152.85,331.28H140.38v39.54L139.21,372h-6.72l-1.18-1.18V331.28h-12.4l-1.24-1.18v-4.85l1.24-1.17h33.94l1.25,1.17v4.85Z"/></g><g id="A-2" data-name="A"><path class="cls-4" d="M180.62,358H166.49l-4.08,14-1.6.83-6.3-1.38-.76-1.53,14.68-44.67,1.18-1.17h8.52l1.24,1.24,14.27,44.53-.76,1.46L186,372.83,184.5,372Zm-12.33-7.13H179l-5.2-18.42Z"/></g><g id="R-2" data-name="R"><path class="cls-4" d="M235.82,370.62l-6.17,2.21-1.66-.69L214.28,351h-2.7v19.87L210.4,372h-6.65l-1.24-1.18V325.25l1.24-1.17h15.86c10.53,0,15.72,4.22,15.72,12.74,0,7.82-5.75,12.05-11.91,12.81L236.3,369ZM219.47,331h-7.89v12.74h4.71c4.71,0,10-1,10-6.44C226.33,332.73,225,331,219.47,331Z"/></g><g id="L-2" data-name="L"><path class="cls-4" d="M274.05,372H246.62l-1.17-1.18V325.25l1.17-1.17h6.65l1.25,1.17V364.8h19.53l1.24,1.18v4.84Z"/></g><g id="I-2" data-name="I"><path class="cls-4" d="M293.72,331.28H284l-1.17-1.18v-4.85l1.17-1.17h28.67l1.18,1.17v4.85l-1.18,1.18h-9.83V364.8h9.83L313.8,366v4.84L312.62,372H284l-1.17-1.18V366L284,364.8h9.77Z"/></g><g id="T-4" data-name="T"><path class="cls-4" d="M355.84,331.28H343.37v39.54L342.2,372h-6.72l-1.18-1.18V331.28H321.91l-1.25-1.18v-4.85l1.25-1.17h33.93l1.25,1.17v4.85Z"/></g><g id="E-2" data-name="E"><path class="cls-4" d="M392.75,372H366.09l-1.25-1.18V325.25l1.25-1.17H392.2l1.18,1.17v4.85l-1.18,1.18H373.92v11.63h17l1.18,1.25v4.78l-1.18,1.18h-17V364.8h18.83L394,366v4.84Z"/></g></g></g></g></svg>
